<?xml version="1.0" encoding="UTF-8" standalone="no"?>
<!DOCTYPE svg PUBLIC "-//W3C//DTD SVG 1.1//EN"
 "http://www.w3.org/Graphics/SVG/1.1/DTD/svg11.dtd">
<!-- Generated by graphviz version 2.43.0 (0)
 -->
<!-- Title: finite_state_machine Pages: 1 -->
<svg width="290pt" height="499pt"
 viewBox="0.00 0.00 289.60 498.80" xmlns="http://www.w3.org/2000/svg" xmlns:xlink="http://www.w3.org/1999/xlink">
<g id="graph0" class="graph" transform="scale(1 1) rotate(0) translate(4 494.8)">
<title>finite_state_machine</title>
<polygon fill="white" stroke="transparent" points="-4,4 -4,-494.8 285.6,-494.8 285.6,4 -4,4"/>
<!-- 0 -->
<g id="node1" class="node">
<title>0</title>
<ellipse fill="none" stroke="black" cx="18" cy="-243.8" rx="18" ry="18"/>
<text text-anchor="middle" x="18" y="-240.1" font-family="Helvetica,Arial,sans-serif" font-size="14.00">0</text>
</g>
<!-- 2 -->
<g id="node2" class="node">
<title>2</title>
<ellipse fill="none" stroke="black" cx="98" cy="-220.8" rx="18" ry="18"/>
<text text-anchor="middle" x="98" y="-217.1" font-family="Helvetica,Arial,sans-serif" font-size="14.00">2</text>
</g>
<!-- 0&#45;&gt;2 -->
<g id="edge1" class="edge">
<title>0&#45;&gt;2</title>
<path fill="none" stroke="black" d="M35.54,-238.92C45.78,-235.9 59.15,-231.96 70.8,-228.52"/>
<polygon fill="black" stroke="black" points="71.88,-231.85 80.48,-225.67 69.9,-225.14 71.88,-231.85"/>
<text text-anchor="middle" x="58" y="-237.6" font-family="Helvetica,Arial,sans-serif" font-size="14.00">1</text>
</g>
<!-- 3 -->
<g id="node3" class="node">
<title>3</title>
<ellipse fill="none" stroke="black" cx="98" cy="-396.8" rx="18" ry="18"/>
<text text-anchor="middle" x="98" y="-393.1" font-family="Helvetica,Arial,sans-serif" font-size="14.00">3</text>
</g>
<!-- 0&#45;&gt;3 -->
<g id="edge2" class="edge">
<title>0&#45;&gt;3</title>
<path fill="none" stroke="black" d="M27.05,-259.6C40.6,-286.17 68.04,-340 84.24,-371.76"/>
<polygon fill="black" stroke="black" points="81.21,-373.54 88.87,-380.86 87.45,-370.36 81.21,-373.54"/>
<text text-anchor="middle" x="58" y="-328.6" font-family="Helvetica,Arial,sans-serif" font-size="14.00">1</text>
</g>
<!-- 4 -->
<g id="node4" class="node">
<title>4</title>
<ellipse fill="none" stroke="black" cx="98" cy="-125.8" rx="18" ry="18"/>
<text text-anchor="middle" x="98" y="-122.1" font-family="Helvetica,Arial,sans-serif" font-size="14.00">4</text>
</g>
<!-- 0&#45;&gt;4 -->
<g id="edge3" class="edge">
<title>0&#45;&gt;4</title>
<path fill="none" stroke="black" d="M28.88,-228.85C42.18,-208.73 65.99,-172.71 81.64,-149.03"/>
<polygon fill="black" stroke="black" points="84.61,-150.89 87.2,-140.62 78.77,-147.03 84.61,-150.89"/>
<text text-anchor="middle" x="58" y="-192.6" font-family="Helvetica,Arial,sans-serif" font-size="14.00">1</text>
</g>
<!-- 5 -->
<g id="node5" class="node">
<title>5</title>
<ellipse fill="none" stroke="black" cx="98" cy="-274.8" rx="18" ry="18"/>
<text text-anchor="middle" x="98" y="-271.1" font-family="Helvetica,Arial,sans-serif" font-size="14.00">5</text>
</g>
<!-- 0&#45;&gt;5 -->
<g id="edge4" class="edge">
<title>0&#45;&gt;5</title>
<path fill="none" stroke="black" d="M35.16,-250.22C45.69,-254.41 59.65,-259.95 71.64,-264.72"/>
<polygon fill="black" stroke="black" points="70.54,-268.05 81.13,-268.49 73.13,-261.54 70.54,-268.05"/>
<text text-anchor="middle" x="58" y="-263.6" font-family="Helvetica,Arial,sans-serif" font-size="14.00">1</text>
</g>
<!-- 6 -->
<g id="node6" class="node">
<title>6</title>
<ellipse fill="none" stroke="black" cx="180.8" cy="-380.8" rx="18" ry="18"/>
<text text-anchor="middle" x="180.8" y="-377.1" font-family="Helvetica,Arial,sans-serif" font-size="14.00">6</text>
</g>
<!-- 2&#45;&gt;6 -->
<g id="edge10" class="edge">
<title>2&#45;&gt;6</title>
<path fill="none" stroke="black" d="M109.31,-234.81C111.84,-238.83 114.32,-243.34 116,-247.8 133.67,-294.55 104.08,-318.77 134,-358.8 138.79,-365.21 145.94,-369.84 153.18,-373.15"/>
<polygon fill="black" stroke="black" points="152.29,-376.56 162.88,-376.88 154.8,-370.02 152.29,-376.56"/>
<text text-anchor="middle" x="138" y="-369.6" font-family="Helvetica,Arial,sans-serif" font-size="14.00">1</text>
</g>
<!-- 8 -->
<g id="node9" class="node">
<title>8</title>
<ellipse fill="none" stroke="black" cx="180.8" cy="-133.8" rx="18" ry="18"/>
<text text-anchor="middle" x="180.8" y="-130.1" font-family="Helvetica,Arial,sans-serif" font-size="14.00">8</text>
</g>
<!-- 2&#45;&gt;8 -->
<g id="edge11" class="edge">
<title>2&#45;&gt;8</title>
<path fill="none" stroke="black" d="M103.55,-203.63C111.23,-175.23 126.67,-121.08 134,-115.8 141.25,-110.57 150.22,-112.62 158.3,-116.88"/>
<polygon fill="black" stroke="black" points="156.58,-119.93 166.9,-122.35 160.34,-114.03 156.58,-119.93"/>
<text text-anchor="middle" x="138" y="-119.6" font-family="Helvetica,Arial,sans-serif" font-size="14.00">1</text>
</g>
<!-- 9 -->
<g id="node10" class="node">
<title>9</title>
<ellipse fill="none" stroke="black" cx="180.8" cy="-228.8" rx="18" ry="18"/>
<text text-anchor="middle" x="180.8" y="-225.1" font-family="Helvetica,Arial,sans-serif" font-size="14.00">9</text>
</g>
<!-- 2&#45;&gt;9 -->
<g id="edge12" class="edge">
<title>2&#45;&gt;9</title>
<path fill="none" stroke="black" d="M116.14,-222.49C126.74,-223.54 140.59,-224.92 152.66,-226.11"/>
<polygon fill="black" stroke="black" points="152.39,-229.6 162.69,-227.1 153.08,-222.64 152.39,-229.6"/>
<text text-anchor="middle" x="138" y="-229.6" font-family="Helvetica,Arial,sans-serif" font-size="14.00">1</text>
</g>
<!-- 3&#45;&gt;6 -->
<g id="edge13" class="edge">
<title>3&#45;&gt;6</title>
<path fill="none" stroke="black" d="M101.71,-414.7C106.62,-441.77 118.7,-488.41 142,-472.8 163.2,-458.59 172.52,-430.12 176.61,-408.59"/>
<polygon fill="black" stroke="black" points="180.07,-409.11 178.23,-398.67 173.16,-407.98 180.07,-409.11"/>
<text text-anchor="middle" x="138" y="-479.6" font-family="Helvetica,Arial,sans-serif" font-size="14.00">1</text>
</g>
<!-- 3&#45;&gt;8 -->
<g id="edge14" class="edge">
<title>3&#45;&gt;8</title>
<path fill="none" stroke="black" d="M105.3,-380.1C114.12,-356.42 130.36,-311.65 142,-272.8 151.34,-241.61 151.45,-233.21 160,-201.8 163.71,-188.17 168.07,-173.09 171.76,-160.59"/>
<polygon fill="black" stroke="black" points="175.18,-161.38 174.67,-150.8 168.47,-159.39 175.18,-161.38"/>
<text text-anchor="middle" x="138" y="-299.6" font-family="Helvetica,Arial,sans-serif" font-size="14.00">1</text>
</g>
<!-- 3&#45;&gt;9 -->
<g id="edge15" class="edge">
<title>3&#45;&gt;9</title>
<path fill="none" stroke="black" d="M110.75,-409.8C119.88,-418.32 132.54,-426.56 142,-418.8 148.28,-413.64 166.62,-308 175.23,-256.52"/>
<polygon fill="black" stroke="black" points="178.72,-256.85 176.91,-246.41 171.82,-255.7 178.72,-256.85"/>
<text text-anchor="middle" x="138" y="-425.6" font-family="Helvetica,Arial,sans-serif" font-size="14.00">1</text>
</g>
<!-- 4&#45;&gt;6 -->
<g id="edge16" class="edge">
<title>4&#45;&gt;6</title>
<path fill="none" stroke="black" d="M103.83,-143.02C107.54,-156.7 112.59,-176.36 116,-193.8 126.93,-249.75 111.99,-268.21 134,-320.8 140.13,-335.44 150.71,-349.66 160.16,-360.58"/>
<polygon fill="black" stroke="black" points="157.77,-363.16 167.07,-368.23 162.97,-358.47 157.77,-363.16"/>
<text text-anchor="middle" x="138" y="-338.6" font-family="Helvetica,Arial,sans-serif" font-size="14.00">1</text>
</g>
<!-- 7 -->
<g id="node8" class="node">
<title>7</title>
<ellipse fill="none" stroke="black" cx="180.8" cy="-78.8" rx="18" ry="18"/>
<text text-anchor="middle" x="180.8" y="-75.1" font-family="Helvetica,Arial,sans-serif" font-size="14.00">7</text>
</g>
<!-- 4&#45;&gt;7 -->
<g id="edge17" class="edge">
<title>4&#45;&gt;7</title>
<path fill="none" stroke="black" d="M102.59,-108.34C106.96,-92.06 116.09,-68.72 134,-57.8 141.9,-52.98 151.08,-55.73 159.15,-60.61"/>
<polygon fill="black" stroke="black" points="157.18,-63.5 167.34,-66.49 161.26,-57.82 157.18,-63.5"/>
<text text-anchor="middle" x="138" y="-61.6" font-family="Helvetica,Arial,sans-serif" font-size="14.00">1</text>
</g>
<!-- 4&#45;&gt;8 -->
<g id="edge18" class="edge">
<title>4&#45;&gt;8</title>
<path fill="none" stroke="black" d="M105.03,-109.18C112.3,-92 125.6,-68.84 142,-77.8 154.98,-84.89 151.73,-93.53 160,-105.8 161.15,-107.5 162.35,-109.25 163.56,-111.01"/>
<polygon fill="black" stroke="black" points="161,-113.46 169.6,-119.64 166.73,-109.44 161,-113.46"/>
<text text-anchor="middle" x="138" y="-81.6" font-family="Helvetica,Arial,sans-serif" font-size="14.00">1</text>
</g>
<!-- 4&#45;&gt;9 -->
<g id="edge19" class="edge">
<title>4&#45;&gt;9</title>
<path fill="none" stroke="black" d="M109.9,-139.69C123.47,-156.99 146.8,-186.73 162.74,-207.06"/>
<polygon fill="black" stroke="black" points="160.15,-209.42 169.07,-215.13 165.66,-205.1 160.15,-209.42"/>
<text text-anchor="middle" x="138" y="-184.6" font-family="Helvetica,Arial,sans-serif" font-size="14.00">1</text>
</g>
<!-- 10 -->
<g id="node11" class="node">
<title>10</title>
<ellipse fill="none" stroke="black" cx="180.8" cy="-20.8" rx="20.6" ry="20.6"/>
<text text-anchor="middle" x="180.8" y="-17.1" font-family="Helvetica,Arial,sans-serif" font-size="14.00">10</text>
</g>
<!-- 4&#45;&gt;10 -->
<g id="edge20" class="edge">
<title>4&#45;&gt;10</title>
<path fill="none" stroke="black" d="M101.5,-107.98C105.21,-88.04 114.02,-56.02 134,-36.8 138.51,-32.46 144.26,-29.29 150.15,-26.98"/>
<polygon fill="black" stroke="black" points="151.54,-30.21 160.01,-23.84 149.41,-23.54 151.54,-30.21"/>
<text text-anchor="middle" x="138" y="-40.6" font-family="Helvetica,Arial,sans-serif" font-size="14.00">1</text>
</g>
<!-- 5&#45;&gt;6 -->
<g id="edge21" class="edge">
<title>5&#45;&gt;6</title>
<path fill="none" stroke="black" d="M101.52,-292.92C106.22,-323.74 117.37,-384.27 134,-396.8 140.87,-401.97 149.54,-400.48 157.48,-396.81"/>
<polygon fill="black" stroke="black" points="159.37,-399.76 166.32,-391.77 155.9,-393.68 159.37,-399.76"/>
<text text-anchor="middle" x="138" y="-403.6" font-family="Helvetica,Arial,sans-serif" font-size="14.00">1</text>
</g>
<!-- 5&#45;&gt;8 -->
<g id="edge22" class="edge">
<title>5&#45;&gt;8</title>
<path fill="none" stroke="black" d="M109.4,-260.48C111.88,-256.52 114.3,-252.13 116,-247.8 131.72,-207.8 106.9,-186.15 134,-152.8 138.93,-146.74 146.12,-142.58 153.34,-139.75"/>
<polygon fill="black" stroke="black" points="154.56,-143.03 163.02,-136.65 152.42,-136.37 154.56,-143.03"/>
<text text-anchor="middle" x="138" y="-156.6" font-family="Helvetica,Arial,sans-serif" font-size="14.00">1</text>
</g>
<!-- 5&#45;&gt;9 -->
<g id="edge23" class="edge">
<title>5&#45;&gt;9</title>
<path fill="none" stroke="black" d="M114.2,-266.15C125.93,-259.46 142.4,-250.09 155.89,-242.41"/>
<polygon fill="black" stroke="black" points="157.71,-245.4 164.67,-237.41 154.25,-239.32 157.71,-245.4"/>
<text text-anchor="middle" x="138" y="-257.6" font-family="Helvetica,Arial,sans-serif" font-size="14.00">1</text>
</g>
<!-- 1 -->
<g id="node7" class="node">
<title>1</title>
<ellipse fill="none" stroke="black" cx="263.6" cy="-133.8" rx="18" ry="18"/>
<text text-anchor="middle" x="263.6" y="-130.1" font-family="Helvetica,Arial,sans-serif" font-size="14.00">1</text>
</g>
<!-- 6&#45;&gt;1 -->
<g id="edge5" class="edge">
<title>6&#45;&gt;1</title>
<path fill="none" stroke="black" d="M187.35,-363.82C201.16,-321.61 237.14,-211.63 253.84,-160.57"/>
<polygon fill="black" stroke="black" points="257.22,-161.49 257,-150.89 250.57,-159.31 257.22,-161.49"/>
<text text-anchor="middle" x="223.6" y="-267.6" font-family="Helvetica,Arial,sans-serif" font-size="14.00">1</text>
</g>
<!-- 7&#45;&gt;1 -->
<g id="edge6" class="edge">
<title>7&#45;&gt;1</title>
<path fill="none" stroke="black" d="M196.24,-88.63C208.31,-96.84 225.73,-108.7 239.69,-118.21"/>
<polygon fill="black" stroke="black" points="238.04,-121.32 248.28,-124.05 241.98,-115.53 238.04,-121.32"/>
<text text-anchor="middle" x="223.6" y="-113.6" font-family="Helvetica,Arial,sans-serif" font-size="14.00">1</text>
</g>
<!-- 8&#45;&gt;1 -->
<g id="edge7" class="edge">
<title>8&#45;&gt;1</title>
<path fill="none" stroke="black" d="M198.93,-133.8C209.54,-133.8 223.39,-133.8 235.46,-133.8"/>
<polygon fill="black" stroke="black" points="235.49,-137.3 245.49,-133.8 235.49,-130.3 235.49,-137.3"/>
<text text-anchor="middle" x="223.6" y="-137.6" font-family="Helvetica,Arial,sans-serif" font-size="14.00">1</text>
</g>
<!-- 9&#45;&gt;1 -->
<g id="edge8" class="edge">
<title>9&#45;&gt;1</title>
<path fill="none" stroke="black" d="M193.03,-215.59C206.4,-199.87 228.9,-173.41 244.68,-154.86"/>
<polygon fill="black" stroke="black" points="247.38,-157.09 251.2,-147.2 242.05,-152.55 247.38,-157.09"/>
<text text-anchor="middle" x="223.6" y="-188.6" font-family="Helvetica,Arial,sans-serif" font-size="14.00">1</text>
</g>
<!-- 10&#45;&gt;1 -->
<g id="edge9" class="edge">
<title>10&#45;&gt;1</title>
<path fill="none" stroke="black" d="M193.72,-37.47C207.69,-57 230.89,-89.46 246.46,-111.23"/>
<polygon fill="black" stroke="black" points="243.75,-113.46 252.42,-119.56 249.45,-109.39 243.75,-113.46"/>
<text text-anchor="middle" x="223.6" y="-88.6" font-family="Helvetica,Arial,sans-serif" font-size="14.00">1</text>
</g>
</g>
</svg>
