<?xml version="1.0" encoding="UTF-8" standalone="no"?>
<!DOCTYPE svg PUBLIC "-//W3C//DTD SVG 1.1//EN"
 "http://www.w3.org/Graphics/SVG/1.1/DTD/svg11.dtd">
<!-- Generated by graphviz version 2.43.0 (0)
 -->
<!-- Title: finite_state_machine Pages: 1 -->
<svg width="649pt" height="273pt"
 viewBox="0.00 0.00 648.79 272.80" xmlns="http://www.w3.org/2000/svg" xmlns:xlink="http://www.w3.org/1999/xlink">
<g id="graph0" class="graph" transform="scale(1 1) rotate(0) translate(4 268.8)">
<title>finite_state_machine</title>
<polygon fill="white" stroke="transparent" points="-4,4 -4,-268.8 644.79,-268.8 644.79,4 -4,4"/>
<!-- 7 -->
<g id="node1" class="node">
<title>7</title>
<ellipse fill="none" stroke="black" cx="368.8" cy="-47.8" rx="18" ry="18"/>
<text text-anchor="middle" x="368.8" y="-44.1" font-family="Helvetica,Arial,sans-serif" font-size="14.00">7</text>
</g>
<!-- 10 -->
<g id="node2" class="node">
<title>10</title>
<ellipse fill="none" stroke="black" cx="534.39" cy="-93.8" rx="20.6" ry="20.6"/>
<text text-anchor="middle" x="534.39" y="-90.1" font-family="Helvetica,Arial,sans-serif" font-size="14.00">10</text>
</g>
<!-- 7&#45;&gt;10 -->
<g id="edge1" class="edge">
<title>7&#45;&gt;10</title>
<path fill="none" stroke="black" d="M387.06,-49.37C407.21,-51.52 441.37,-56.14 469.6,-64.8 482.1,-68.63 495.35,-74.36 506.52,-79.72"/>
<polygon fill="black" stroke="black" points="505.21,-82.98 515.73,-84.27 508.32,-76.7 505.21,-82.98"/>
<text text-anchor="middle" x="451.6" y="-68.6" font-family="Helvetica,Arial,sans-serif" font-size="14.00">1</text>
</g>
<!-- 12 -->
<g id="node3" class="node">
<title>12</title>
<ellipse fill="none" stroke="black" cx="619.99" cy="-20.8" rx="20.6" ry="20.6"/>
<text text-anchor="middle" x="619.99" y="-17.1" font-family="Helvetica,Arial,sans-serif" font-size="14.00">12</text>
</g>
<!-- 7&#45;&gt;12 -->
<g id="edge2" class="edge">
<title>7&#45;&gt;12</title>
<path fill="none" stroke="black" d="M386.93,-45.94C428.69,-41.42 536.21,-29.77 588.93,-24.06"/>
<polygon fill="black" stroke="black" points="589.44,-27.52 599.01,-22.96 588.69,-20.56 589.44,-27.52"/>
<text text-anchor="middle" x="491.6" y="-39.6" font-family="Helvetica,Arial,sans-serif" font-size="14.00">2</text>
</g>
<!-- 10&#45;&gt;12 -->
<g id="edge9" class="edge">
<title>10&#45;&gt;12</title>
<path fill="none" stroke="black" d="M550.73,-80.41C563.45,-69.3 581.74,-53.33 596.19,-40.71"/>
<polygon fill="black" stroke="black" points="598.52,-43.32 603.76,-34.1 593.92,-38.04 598.52,-43.32"/>
<text text-anchor="middle" x="577.19" y="-63.6" font-family="Helvetica,Arial,sans-serif" font-size="14.00">6</text>
</g>
<!-- 9 -->
<g id="node4" class="node">
<title>9</title>
<ellipse fill="none" stroke="black" cx="451.6" cy="-142.8" rx="18" ry="18"/>
<text text-anchor="middle" x="451.6" y="-139.1" font-family="Helvetica,Arial,sans-serif" font-size="14.00">9</text>
</g>
<!-- 9&#45;&gt;10 -->
<g id="edge3" class="edge">
<title>9&#45;&gt;10</title>
<path fill="none" stroke="black" d="M467.42,-133.81C478.59,-127.03 494.21,-117.56 507.45,-109.53"/>
<polygon fill="black" stroke="black" points="509.41,-112.44 516.14,-104.26 505.78,-106.45 509.41,-112.44"/>
<text text-anchor="middle" x="491.6" y="-125.6" font-family="Helvetica,Arial,sans-serif" font-size="14.00">4</text>
</g>
<!-- 11 -->
<g id="node5" class="node">
<title>11</title>
<ellipse fill="none" stroke="black" cx="368.8" cy="-142.8" rx="20.6" ry="20.6"/>
<text text-anchor="middle" x="368.8" y="-139.1" font-family="Helvetica,Arial,sans-serif" font-size="14.00">11</text>
</g>
<!-- 11&#45;&gt;9 -->
<g id="edge4" class="edge">
<title>11&#45;&gt;9</title>
<path fill="none" stroke="black" d="M389.77,-142.8C399.97,-142.8 412.53,-142.8 423.58,-142.8"/>
<polygon fill="black" stroke="black" points="423.58,-146.3 433.58,-142.8 423.58,-139.3 423.58,-146.3"/>
<text text-anchor="middle" x="411.6" y="-146.6" font-family="Helvetica,Arial,sans-serif" font-size="14.00">2</text>
</g>
<!-- 8 -->
<g id="node6" class="node">
<title>8</title>
<ellipse fill="none" stroke="black" cx="286" cy="-140.8" rx="18" ry="18"/>
<text text-anchor="middle" x="286" y="-137.1" font-family="Helvetica,Arial,sans-serif" font-size="14.00">8</text>
</g>
<!-- 8&#45;&gt;11 -->
<g id="edge5" class="edge">
<title>8&#45;&gt;11</title>
<path fill="none" stroke="black" d="M304.14,-141.22C313.82,-141.46 326.22,-141.77 337.5,-142.05"/>
<polygon fill="black" stroke="black" points="337.75,-145.56 347.84,-142.3 337.93,-138.56 337.75,-145.56"/>
<text text-anchor="middle" x="326" y="-146.6" font-family="Helvetica,Arial,sans-serif" font-size="14.00">2</text>
</g>
<!-- 6 -->
<g id="node7" class="node">
<title>6</title>
<ellipse fill="none" stroke="black" cx="286" cy="-199.8" rx="18" ry="18"/>
<text text-anchor="middle" x="286" y="-196.1" font-family="Helvetica,Arial,sans-serif" font-size="14.00">6</text>
</g>
<!-- 6&#45;&gt;9 -->
<g id="edge6" class="edge">
<title>6&#45;&gt;9</title>
<path fill="none" stroke="black" d="M303.87,-196.63C329.07,-191.51 377.63,-180.08 415.6,-161.8 419.1,-160.11 422.76,-158.24 426.33,-156.36"/>
<polygon fill="black" stroke="black" points="428.3,-159.28 435.43,-151.45 424.97,-153.12 428.3,-159.28"/>
<text text-anchor="middle" x="368.8" y="-189.6" font-family="Helvetica,Arial,sans-serif" font-size="14.00">2</text>
</g>
<!-- 3 -->
<g id="node8" class="node">
<title>3</title>
<ellipse fill="none" stroke="black" cx="206" cy="-162.8" rx="18" ry="18"/>
<text text-anchor="middle" x="206" y="-159.1" font-family="Helvetica,Arial,sans-serif" font-size="14.00">3</text>
</g>
<!-- 3&#45;&gt;8 -->
<g id="edge7" class="edge">
<title>3&#45;&gt;8</title>
<path fill="none" stroke="black" d="M220.86,-152.21C227,-148.15 234.51,-143.97 242,-141.8 246.94,-140.37 252.33,-139.63 257.58,-139.33"/>
<polygon fill="black" stroke="black" points="257.99,-142.82 267.95,-139.21 257.91,-135.82 257.99,-142.82"/>
<text text-anchor="middle" x="246" y="-145.6" font-family="Helvetica,Arial,sans-serif" font-size="14.00">2</text>
</g>
<!-- 3&#45;&gt;6 -->
<g id="edge8" class="edge">
<title>3&#45;&gt;6</title>
<path fill="none" stroke="black" d="M223.16,-168.56C231.33,-171.63 241.32,-175.63 250,-179.8 253.73,-181.59 257.6,-183.62 261.34,-185.68"/>
<polygon fill="black" stroke="black" points="259.84,-188.85 270.26,-190.76 263.3,-182.77 259.84,-188.85"/>
<text text-anchor="middle" x="246" y="-183.6" font-family="Helvetica,Arial,sans-serif" font-size="14.00">2</text>
</g>
<!-- 2 -->
<g id="node9" class="node">
<title>2</title>
<ellipse fill="none" stroke="black" cx="206" cy="-108.8" rx="18" ry="18"/>
<text text-anchor="middle" x="206" y="-105.1" font-family="Helvetica,Arial,sans-serif" font-size="14.00">2</text>
</g>
<!-- 5 -->
<g id="node10" class="node">
<title>5</title>
<ellipse fill="none" stroke="black" cx="286" cy="-62.8" rx="18" ry="18"/>
<text text-anchor="middle" x="286" y="-59.1" font-family="Helvetica,Arial,sans-serif" font-size="14.00">5</text>
</g>
<!-- 2&#45;&gt;5 -->
<g id="edge10" class="edge">
<title>2&#45;&gt;5</title>
<path fill="none" stroke="black" d="M222.04,-99.93C233.15,-93.37 248.51,-84.32 261.27,-76.79"/>
<polygon fill="black" stroke="black" points="263.17,-79.73 270.01,-71.64 259.62,-73.71 263.17,-79.73"/>
<text text-anchor="middle" x="246" y="-91.6" font-family="Helvetica,Arial,sans-serif" font-size="14.00">2</text>
</g>
<!-- 5&#45;&gt;7 -->
<g id="edge15" class="edge">
<title>5&#45;&gt;7</title>
<path fill="none" stroke="black" d="M303.74,-59.69C314.4,-57.71 328.44,-55.11 340.66,-52.84"/>
<polygon fill="black" stroke="black" points="341.61,-56.22 350.8,-50.95 340.33,-49.34 341.61,-56.22"/>
<text text-anchor="middle" x="326" y="-60.6" font-family="Helvetica,Arial,sans-serif" font-size="14.00">1</text>
</g>
<!-- 5&#45;&gt;10 -->
<g id="edge16" class="edge">
<title>5&#45;&gt;10</title>
<path fill="none" stroke="black" d="M302.75,-69.68C308.68,-72 315.55,-74.35 322,-75.8 385.35,-89.98 461.67,-93.17 503.07,-93.78"/>
<polygon fill="black" stroke="black" points="503.27,-97.28 513.3,-93.88 503.34,-90.28 503.27,-97.28"/>
<text text-anchor="middle" x="411.6" y="-93.6" font-family="Helvetica,Arial,sans-serif" font-size="14.00">1</text>
</g>
<!-- 1 -->
<g id="node13" class="node">
<title>1</title>
<ellipse fill="none" stroke="black" cx="18" cy="-128.8" rx="18" ry="18"/>
<text text-anchor="middle" x="18" y="-125.1" font-family="Helvetica,Arial,sans-serif" font-size="14.00">1</text>
</g>
<!-- 5&#45;&gt;1 -->
<g id="edge17" class="edge">
<title>5&#45;&gt;1</title>
<path fill="none" stroke="black" d="M269.33,-54.85C242.13,-41.99 184.25,-18.72 134,-25.8 97.37,-30.96 81.83,-24.43 54,-48.8 38.6,-62.28 29.71,-83.79 24.75,-101.11"/>
<polygon fill="black" stroke="black" points="21.24,-100.68 22.14,-111.24 28.02,-102.43 21.24,-100.68"/>
<text text-anchor="middle" x="152" y="-29.6" font-family="Helvetica,Arial,sans-serif" font-size="14.00">5</text>
</g>
<!-- 4 -->
<g id="node11" class="node">
<title>4</title>
<ellipse fill="none" stroke="black" cx="152" cy="-246.8" rx="18" ry="18"/>
<text text-anchor="middle" x="152" y="-243.1" font-family="Helvetica,Arial,sans-serif" font-size="14.00">4</text>
</g>
<!-- 4&#45;&gt;10 -->
<g id="edge11" class="edge">
<title>4&#45;&gt;10</title>
<path fill="none" stroke="black" d="M170.3,-246.8C188.79,-246.8 218.97,-246.8 245,-246.8 245,-246.8 245,-246.8 452.6,-246.8 507.24,-246.8 525.02,-169.54 530.74,-124.82"/>
<polygon fill="black" stroke="black" points="534.23,-125.09 531.9,-114.75 527.28,-124.29 534.23,-125.09"/>
<text text-anchor="middle" x="326" y="-250.6" font-family="Helvetica,Arial,sans-serif" font-size="14.00">2</text>
</g>
<!-- 0 -->
<g id="node12" class="node">
<title>0</title>
<ellipse fill="none" stroke="black" cx="98" cy="-128.8" rx="18" ry="18"/>
<text text-anchor="middle" x="98" y="-125.1" font-family="Helvetica,Arial,sans-serif" font-size="14.00">0</text>
</g>
<!-- 0&#45;&gt;3 -->
<g id="edge14" class="edge">
<title>0&#45;&gt;3</title>
<path fill="none" stroke="black" d="M115.56,-134.11C132.52,-139.55 159.12,-148.08 178.91,-154.43"/>
<polygon fill="black" stroke="black" points="177.96,-157.8 188.55,-157.52 180.1,-151.14 177.96,-157.8"/>
<text text-anchor="middle" x="152" y="-155.6" font-family="Helvetica,Arial,sans-serif" font-size="14.00">2</text>
</g>
<!-- 0&#45;&gt;2 -->
<g id="edge13" class="edge">
<title>0&#45;&gt;2</title>
<path fill="none" stroke="black" d="M115.22,-123.04C121.08,-121.14 127.78,-119.16 134,-117.8 148.37,-114.66 164.63,-112.5 177.96,-111.08"/>
<polygon fill="black" stroke="black" points="178.32,-114.56 187.93,-110.1 177.63,-107.6 178.32,-114.56"/>
<text text-anchor="middle" x="152" y="-121.6" font-family="Helvetica,Arial,sans-serif" font-size="14.00">2</text>
</g>
<!-- 0&#45;&gt;1 -->
<g id="edge12" class="edge">
<title>0&#45;&gt;1</title>
<path fill="none" stroke="black" d="M82.28,-119.26C76.25,-115.88 69.04,-112.5 62,-110.8 55.13,-109.14 47.94,-110.7 41.45,-113.49"/>
<polygon fill="black" stroke="black" points="39.75,-110.43 32.56,-118.21 43.04,-116.61 39.75,-110.43"/>
<text text-anchor="middle" x="58" y="-114.6" font-family="Helvetica,Arial,sans-serif" font-size="14.00">4</text>
</g>
<!-- 1&#45;&gt;6 -->
<g id="edge19" class="edge">
<title>1&#45;&gt;6</title>
<path fill="none" stroke="black" d="M34.02,-137.78C40.09,-141.19 47.25,-144.94 54,-147.8 111.47,-172.13 126.87,-177.2 188,-189.8 211.22,-194.58 238.07,-197.13 257.63,-198.45"/>
<polygon fill="black" stroke="black" points="257.47,-201.94 267.67,-199.06 257.9,-194.96 257.47,-201.94"/>
<text text-anchor="middle" x="152" y="-189.6" font-family="Helvetica,Arial,sans-serif" font-size="14.00">2</text>
</g>
<!-- 1&#45;&gt;5 -->
<g id="edge18" class="edge">
<title>1&#45;&gt;5</title>
<path fill="none" stroke="black" d="M33,-118.32C39.16,-114.16 46.66,-109.69 54,-106.8 64.95,-102.48 68.44,-104.01 80,-101.8 143.91,-89.57 219.06,-75.3 258.21,-67.88"/>
<polygon fill="black" stroke="black" points="259.08,-71.27 268.26,-65.97 257.78,-64.4 259.08,-71.27"/>
<text text-anchor="middle" x="152" y="-95.6" font-family="Helvetica,Arial,sans-serif" font-size="14.00">2</text>
</g>
<!-- 1&#45;&gt;4 -->
<g id="edge20" class="edge">
<title>1&#45;&gt;4</title>
<path fill="none" stroke="black" d="M20.72,-146.82C23.72,-168.1 31.91,-203.09 54,-222.8 73.05,-239.79 102.24,-245.18 123.63,-246.69"/>
<polygon fill="black" stroke="black" points="123.56,-250.19 133.71,-247.16 123.89,-243.2 123.56,-250.19"/>
<text text-anchor="middle" x="58" y="-231.6" font-family="Helvetica,Arial,sans-serif" font-size="14.00">2</text>
</g>
<!-- 1&#45;&gt;0 -->
<g id="edge21" class="edge">
<title>1&#45;&gt;0</title>
<path fill="none" stroke="black" d="M36.31,-128.8C46.11,-128.8 58.58,-128.8 69.67,-128.8"/>
<polygon fill="black" stroke="black" points="69.74,-132.3 79.74,-128.8 69.74,-125.3 69.74,-132.3"/>
<text text-anchor="middle" x="58" y="-132.6" font-family="Helvetica,Arial,sans-serif" font-size="14.00">5</text>
</g>
</g>
</svg>
