<?xml version="1.0" encoding="UTF-8" standalone="no"?>
<!DOCTYPE svg PUBLIC "-//W3C//DTD SVG 1.1//EN"
 "http://www.w3.org/Graphics/SVG/1.1/DTD/svg11.dtd">
<!-- Generated by graphviz version 2.43.0 (0)
 -->
<!-- Title: finite_state_machine Pages: 1 -->
<svg width="701pt" height="433pt"
 viewBox="0.00 0.00 700.79 433.00" xmlns="http://www.w3.org/2000/svg" xmlns:xlink="http://www.w3.org/1999/xlink">
<g id="graph0" class="graph" transform="scale(1 1) rotate(0) translate(4 429)">
<title>finite_state_machine</title>
<polygon fill="white" stroke="transparent" points="-4,4 -4,-429 696.79,-429 696.79,4 -4,4"/>
<!-- 7 -->
<g id="node1" class="node">
<title>7</title>
<ellipse fill="none" stroke="black" cx="18" cy="-367" rx="18" ry="18"/>
<text text-anchor="middle" x="18" y="-363.3" font-family="Helvetica,Arial,sans-serif" font-size="14.00">7</text>
</g>
<!-- 10 -->
<g id="node2" class="node">
<title>10</title>
<ellipse fill="none" stroke="black" cx="100.8" cy="-258" rx="20.6" ry="20.6"/>
<text text-anchor="middle" x="100.8" y="-254.3" font-family="Helvetica,Arial,sans-serif" font-size="14.00">10</text>
</g>
<!-- 7&#45;&gt;10 -->
<g id="edge1" class="edge">
<title>7&#45;&gt;10</title>
<path fill="none" stroke="black" d="M29.56,-352.75C42.78,-334.92 65.62,-304.1 81.66,-282.47"/>
<polygon fill="black" stroke="black" points="84.51,-284.51 87.65,-274.39 78.88,-280.34 84.51,-284.51"/>
<text text-anchor="middle" x="58" y="-322.8" font-family="Helvetica,Arial,sans-serif" font-size="14.00">1</text>
</g>
<!-- 12 -->
<g id="node3" class="node">
<title>12</title>
<ellipse fill="none" stroke="black" cx="186.39" cy="-293" rx="20.6" ry="20.6"/>
<text text-anchor="middle" x="186.39" y="-289.3" font-family="Helvetica,Arial,sans-serif" font-size="14.00">12</text>
</g>
<!-- 7&#45;&gt;12 -->
<g id="edge2" class="edge">
<title>7&#45;&gt;12</title>
<path fill="none" stroke="black" d="M34.91,-360.27C59.28,-349.93 107.27,-329.38 147.6,-311 151.04,-309.43 154.65,-307.76 158.21,-306.08"/>
<polygon fill="black" stroke="black" points="159.84,-309.18 167.38,-301.73 156.84,-302.85 159.84,-309.18"/>
<text text-anchor="middle" x="100.8" y="-343.8" font-family="Helvetica,Arial,sans-serif" font-size="14.00">2</text>
</g>
<!-- 10&#45;&gt;12 -->
<g id="edge19" class="edge">
<title>10&#45;&gt;12</title>
<path fill="none" stroke="black" d="M115.4,-273.23C122.02,-279.58 130.51,-286.33 139.6,-290 144.55,-292 150.05,-293.16 155.47,-293.78"/>
<polygon fill="black" stroke="black" points="155.44,-297.28 165.63,-294.39 155.85,-290.3 155.44,-297.28"/>
<text text-anchor="middle" x="143.6" y="-295.8" font-family="Helvetica,Arial,sans-serif" font-size="14.00">3</text>
</g>
<!-- 9 -->
<g id="node5" class="node">
<title>9</title>
<ellipse fill="none" stroke="black" cx="186.39" cy="-173" rx="18" ry="18"/>
<text text-anchor="middle" x="186.39" y="-169.3" font-family="Helvetica,Arial,sans-serif" font-size="14.00">9</text>
</g>
<!-- 10&#45;&gt;9 -->
<g id="edge17" class="edge">
<title>10&#45;&gt;9</title>
<path fill="none" stroke="black" d="M114.08,-241.65C121.17,-232.58 130.47,-221.29 139.6,-212 147.09,-204.37 155.92,-196.6 163.82,-190.03"/>
<polygon fill="black" stroke="black" points="166.08,-192.7 171.61,-183.67 161.65,-187.28 166.08,-192.7"/>
<text text-anchor="middle" x="143.6" y="-215.8" font-family="Helvetica,Arial,sans-serif" font-size="14.00">2</text>
</g>
<!-- 5 -->
<g id="node9" class="node">
<title>5</title>
<ellipse fill="none" stroke="black" cx="594.79" cy="-253" rx="18" ry="18"/>
<text text-anchor="middle" x="594.79" y="-249.3" font-family="Helvetica,Arial,sans-serif" font-size="14.00">5</text>
</g>
<!-- 10&#45;&gt;5 -->
<g id="edge18" class="edge">
<title>10&#45;&gt;5</title>
<path fill="none" stroke="black" d="M121.93,-257.41C168.69,-256.08 288.24,-253 388.19,-253 388.19,-253 388.19,-253 512.99,-253 530.88,-253 551.01,-253 566.69,-253"/>
<polygon fill="black" stroke="black" points="566.77,-256.5 576.77,-253 566.77,-249.5 566.77,-256.5"/>
<text text-anchor="middle" x="349.19" y="-256.8" font-family="Helvetica,Arial,sans-serif" font-size="14.00">1</text>
</g>
<!-- 12&#45;&gt;10 -->
<g id="edge16" class="edge">
<title>12&#45;&gt;10</title>
<path fill="none" stroke="black" d="M167.47,-284.06C161.23,-281.06 154.16,-277.77 147.6,-275 141.99,-272.63 135.93,-270.25 130.11,-268.06"/>
<polygon fill="black" stroke="black" points="131.26,-264.75 120.66,-264.57 128.83,-271.32 131.26,-264.75"/>
<text text-anchor="middle" x="143.6" y="-278.8" font-family="Helvetica,Arial,sans-serif" font-size="14.00">3</text>
</g>
<!-- 11 -->
<g id="node4" class="node">
<title>11</title>
<ellipse fill="none" stroke="black" cx="511.99" cy="-199" rx="20.6" ry="20.6"/>
<text text-anchor="middle" x="511.99" y="-195.3" font-family="Helvetica,Arial,sans-serif" font-size="14.00">11</text>
</g>
<!-- 11&#45;&gt;9 -->
<g id="edge3" class="edge">
<title>11&#45;&gt;9</title>
<path fill="none" stroke="black" d="M491.07,-197.4C435.5,-192.93 278.68,-180.33 214.89,-175.21"/>
<polygon fill="black" stroke="black" points="215.04,-171.71 204.79,-174.4 214.48,-178.69 215.04,-171.71"/>
<text text-anchor="middle" x="349.19" y="-191.8" font-family="Helvetica,Arial,sans-serif" font-size="14.00">2</text>
</g>
<!-- 9&#45;&gt;10 -->
<g id="edge10" class="edge">
<title>9&#45;&gt;10</title>
<path fill="none" stroke="black" d="M168.42,-169.23C159.18,-168.14 147.95,-168.47 139.6,-174 121.6,-185.92 112.07,-208.63 107.08,-227.43"/>
<polygon fill="black" stroke="black" points="103.63,-226.85 104.76,-237.38 110.44,-228.44 103.63,-226.85"/>
<text text-anchor="middle" x="143.6" y="-177.8" font-family="Helvetica,Arial,sans-serif" font-size="14.00">2</text>
</g>
<!-- 6 -->
<g id="node10" class="node">
<title>6</title>
<ellipse fill="none" stroke="black" cx="269.19" cy="-134" rx="18" ry="18"/>
<text text-anchor="middle" x="269.19" y="-130.3" font-family="Helvetica,Arial,sans-serif" font-size="14.00">6</text>
</g>
<!-- 9&#45;&gt;6 -->
<g id="edge9" class="edge">
<title>9&#45;&gt;6</title>
<path fill="none" stroke="black" d="M197.46,-158.3C204.21,-149.8 213.91,-139.85 225.19,-135 230.13,-132.88 235.68,-131.87 241.12,-131.52"/>
<polygon fill="black" stroke="black" points="241.23,-135.02 251.24,-131.53 241.24,-128.02 241.23,-135.02"/>
<text text-anchor="middle" x="229.19" y="-138.8" font-family="Helvetica,Arial,sans-serif" font-size="14.00">2</text>
</g>
<!-- 8 -->
<g id="node6" class="node">
<title>8</title>
<ellipse fill="none" stroke="black" cx="429.19" cy="-158" rx="18" ry="18"/>
<text text-anchor="middle" x="429.19" y="-154.3" font-family="Helvetica,Arial,sans-serif" font-size="14.00">8</text>
</g>
<!-- 8&#45;&gt;11 -->
<g id="edge4" class="edge">
<title>8&#45;&gt;11</title>
<path fill="none" stroke="black" d="M446.44,-163.59C454.62,-166.62 464.61,-170.63 473.19,-175 477.36,-177.12 481.65,-179.57 485.78,-182.08"/>
<polygon fill="black" stroke="black" points="484.13,-185.17 494.46,-187.55 487.87,-179.25 484.13,-185.17"/>
<text text-anchor="middle" x="469.19" y="-178.8" font-family="Helvetica,Arial,sans-serif" font-size="14.00">2</text>
</g>
<!-- 4 -->
<g id="node7" class="node">
<title>4</title>
<ellipse fill="none" stroke="black" cx="594.79" cy="-20" rx="18" ry="18"/>
<text text-anchor="middle" x="594.79" y="-16.3" font-family="Helvetica,Arial,sans-serif" font-size="14.00">4</text>
</g>
<!-- 4&#45;&gt;10 -->
<g id="edge5" class="edge">
<title>4&#45;&gt;10</title>
<path fill="none" stroke="black" d="M577.68,-13.56C561.57,-7.72 535.97,0 512.99,0 185.39,0 185.39,0 185.39,0 138.13,0 113.59,-158.67 105.19,-227.15"/>
<polygon fill="black" stroke="black" points="101.69,-226.98 103.98,-237.32 108.64,-227.81 101.69,-226.98"/>
<text text-anchor="middle" x="349.19" y="-3.8" font-family="Helvetica,Arial,sans-serif" font-size="14.00">2</text>
</g>
<!-- 1 -->
<g id="node8" class="node">
<title>1</title>
<ellipse fill="none" stroke="black" cx="511.99" cy="-53" rx="18" ry="18"/>
<text text-anchor="middle" x="511.99" y="-49.3" font-family="Helvetica,Arial,sans-serif" font-size="14.00">1</text>
</g>
<!-- 1&#45;&gt;4 -->
<g id="edge8" class="edge">
<title>1&#45;&gt;4</title>
<path fill="none" stroke="black" d="M528.95,-46.48C540.24,-41.87 555.61,-35.59 568.55,-30.31"/>
<polygon fill="black" stroke="black" points="569.92,-33.53 577.86,-26.51 567.28,-27.05 569.92,-33.53"/>
<text text-anchor="middle" x="554.79" y="-41.8" font-family="Helvetica,Arial,sans-serif" font-size="14.00">2</text>
</g>
<!-- 1&#45;&gt;5 -->
<g id="edge6" class="edge">
<title>1&#45;&gt;5</title>
<path fill="none" stroke="black" d="M521.49,-68.3C531.28,-86.3 547.46,-117.25 558.79,-145 569.85,-172.09 579.86,-204.09 586.31,-226.19"/>
<polygon fill="black" stroke="black" points="582.97,-227.24 589.1,-235.88 589.7,-225.31 582.97,-227.24"/>
<text text-anchor="middle" x="554.79" y="-148.8" font-family="Helvetica,Arial,sans-serif" font-size="14.00">2</text>
</g>
<!-- 1&#45;&gt;6 -->
<g id="edge7" class="edge">
<title>1&#45;&gt;6</title>
<path fill="none" stroke="black" d="M493.95,-53.7C456.94,-55.91 367.57,-65.1 305.19,-103 299.86,-106.24 294.57,-110.33 289.79,-114.47"/>
<polygon fill="black" stroke="black" points="287.3,-112 282.28,-121.33 292.02,-117.16 287.3,-112"/>
<text text-anchor="middle" x="389.19" y="-74.8" font-family="Helvetica,Arial,sans-serif" font-size="14.00">2</text>
</g>
<!-- 5&#45;&gt;7 -->
<g id="edge20" class="edge">
<title>5&#45;&gt;7</title>
<path fill="none" stroke="black" d="M592.79,-271.01C589.42,-312.25 574.91,-410 512.99,-410 99.8,-410 99.8,-410 99.8,-410 77.41,-410 55.19,-396.97 39.73,-385.26"/>
<polygon fill="black" stroke="black" points="41.88,-382.49 31.88,-378.98 37.5,-387.96 41.88,-382.49"/>
<text text-anchor="middle" x="309.19" y="-413.8" font-family="Helvetica,Arial,sans-serif" font-size="14.00">1</text>
</g>
<!-- 5&#45;&gt;10 -->
<g id="edge22" class="edge">
<title>5&#45;&gt;10</title>
<path fill="none" stroke="black" d="M587.5,-269.74C576.6,-295.52 551.6,-342 512.99,-342 185.39,-342 185.39,-342 185.39,-342 152.92,-342 128.71,-310.07 114.92,-285.58"/>
<polygon fill="black" stroke="black" points="117.95,-283.82 110.15,-276.64 111.77,-287.11 117.95,-283.82"/>
<text text-anchor="middle" x="349.19" y="-345.8" font-family="Helvetica,Arial,sans-serif" font-size="14.00">0</text>
</g>
<!-- 2 -->
<g id="node13" class="node">
<title>2</title>
<ellipse fill="none" stroke="black" cx="674.79" cy="-198" rx="18" ry="18"/>
<text text-anchor="middle" x="674.79" y="-194.3" font-family="Helvetica,Arial,sans-serif" font-size="14.00">2</text>
</g>
<!-- 5&#45;&gt;2 -->
<g id="edge21" class="edge">
<title>5&#45;&gt;2</title>
<path fill="none" stroke="black" d="M606.61,-238.97C613,-231.4 621.62,-222.33 630.79,-216 635.99,-212.4 642.03,-209.33 647.9,-206.78"/>
<polygon fill="black" stroke="black" points="649.43,-209.94 657.45,-203.02 646.87,-203.43 649.43,-209.94"/>
<text text-anchor="middle" x="634.79" y="-219.8" font-family="Helvetica,Arial,sans-serif" font-size="14.00">1</text>
</g>
<!-- 6&#45;&gt;9 -->
<g id="edge12" class="edge">
<title>6&#45;&gt;9</title>
<path fill="none" stroke="black" d="M252.66,-141.5C241.16,-147.05 225.26,-154.72 212.03,-161.11"/>
<polygon fill="black" stroke="black" points="210.46,-157.98 202.97,-165.48 213.5,-164.29 210.46,-157.98"/>
<text text-anchor="middle" x="229.19" y="-158.8" font-family="Helvetica,Arial,sans-serif" font-size="14.00">0</text>
</g>
<!-- 3 -->
<g id="node11" class="node">
<title>3</title>
<ellipse fill="none" stroke="black" cx="349.19" cy="-120" rx="18" ry="18"/>
<text text-anchor="middle" x="349.19" y="-116.3" font-family="Helvetica,Arial,sans-serif" font-size="14.00">3</text>
</g>
<!-- 6&#45;&gt;3 -->
<g id="edge11" class="edge">
<title>6&#45;&gt;3</title>
<path fill="none" stroke="black" d="M287.12,-130.96C297.13,-129.16 310.05,-126.85 321.42,-124.81"/>
<polygon fill="black" stroke="black" points="322.08,-128.24 331.3,-123.03 320.84,-121.35 322.08,-128.24"/>
<text text-anchor="middle" x="309.19" y="-131.8" font-family="Helvetica,Arial,sans-serif" font-size="14.00">2</text>
</g>
<!-- 3&#45;&gt;8 -->
<g id="edge13" class="edge">
<title>3&#45;&gt;8</title>
<path fill="none" stroke="black" d="M365.6,-127.51C376.5,-132.82 391.33,-140.04 403.82,-146.13"/>
<polygon fill="black" stroke="black" points="402.29,-149.27 412.81,-150.51 405.36,-142.98 402.29,-149.27"/>
<text text-anchor="middle" x="389.19" y="-144.8" font-family="Helvetica,Arial,sans-serif" font-size="14.00">2</text>
</g>
<!-- 3&#45;&gt;6 -->
<g id="edge15" class="edge">
<title>3&#45;&gt;6</title>
<path fill="none" stroke="black" d="M332.96,-111.31C324.69,-107.7 314.32,-104.98 305.19,-108 300.11,-109.68 295.17,-112.42 290.67,-115.49"/>
<polygon fill="black" stroke="black" points="288.46,-112.78 282.67,-121.65 292.73,-118.33 288.46,-112.78"/>
<text text-anchor="middle" x="309.19" y="-111.8" font-family="Helvetica,Arial,sans-serif" font-size="14.00">0</text>
</g>
<!-- 0 -->
<g id="node12" class="node">
<title>0</title>
<ellipse fill="none" stroke="black" cx="429.19" cy="-104" rx="18" ry="18"/>
<text text-anchor="middle" x="429.19" y="-100.3" font-family="Helvetica,Arial,sans-serif" font-size="14.00">0</text>
</g>
<!-- 3&#45;&gt;0 -->
<g id="edge14" class="edge">
<title>3&#45;&gt;0</title>
<path fill="none" stroke="black" d="M367.12,-116.53C377.13,-114.47 390.05,-111.82 401.42,-109.49"/>
<polygon fill="black" stroke="black" points="402.21,-112.9 411.3,-107.46 400.8,-106.05 402.21,-112.9"/>
<text text-anchor="middle" x="389.19" y="-116.8" font-family="Helvetica,Arial,sans-serif" font-size="14.00">2</text>
</g>
<!-- 0&#45;&gt;1 -->
<g id="edge25" class="edge">
<title>0&#45;&gt;1</title>
<path fill="none" stroke="black" d="M443.42,-92.92C449.81,-87.8 457.7,-81.8 465.19,-77 471.84,-72.74 479.33,-68.57 486.3,-64.94"/>
<polygon fill="black" stroke="black" points="488.01,-67.99 495.35,-60.35 484.85,-61.75 488.01,-67.99"/>
<text text-anchor="middle" x="469.19" y="-80.8" font-family="Helvetica,Arial,sans-serif" font-size="14.00">4</text>
</g>
<!-- 0&#45;&gt;3 -->
<g id="edge26" class="edge">
<title>0&#45;&gt;3</title>
<path fill="none" stroke="black" d="M412.9,-95.78C404.61,-92.4 394.24,-89.92 385.19,-93 379.97,-94.78 374.92,-97.69 370.36,-100.96"/>
<polygon fill="black" stroke="black" points="367.86,-98.47 362.27,-107.47 372.25,-103.92 367.86,-98.47"/>
<text text-anchor="middle" x="389.19" y="-96.8" font-family="Helvetica,Arial,sans-serif" font-size="14.00">0</text>
</g>
<!-- 0&#45;&gt;2 -->
<g id="edge27" class="edge">
<title>0&#45;&gt;2</title>
<path fill="none" stroke="black" d="M445.51,-111.93C468.14,-123.46 512.01,-145.08 550.79,-160 583.46,-172.57 622.2,-183.98 647.34,-190.95"/>
<polygon fill="black" stroke="black" points="646.66,-194.39 657.23,-193.65 648.51,-187.64 646.66,-194.39"/>
<text text-anchor="middle" x="554.79" y="-166.8" font-family="Helvetica,Arial,sans-serif" font-size="14.00">1</text>
</g>
<!-- 2&#45;&gt;5 -->
<g id="edge24" class="edge">
<title>2&#45;&gt;5</title>
<path fill="none" stroke="black" d="M661.9,-210.83C655.45,-217.36 647.11,-225.13 638.79,-231 633.21,-234.93 626.84,-238.59 620.73,-241.75"/>
<polygon fill="black" stroke="black" points="618.96,-238.72 611.52,-246.27 622.04,-245 618.96,-238.72"/>
<text text-anchor="middle" x="634.79" y="-239.8" font-family="Helvetica,Arial,sans-serif" font-size="14.00">1</text>
</g>
<!-- 2&#45;&gt;0 -->
<g id="edge23" class="edge">
<title>2&#45;&gt;0</title>
<path fill="none" stroke="black" d="M662.37,-184.65C643.4,-163.61 603.05,-123.52 558.79,-108 525.26,-96.24 483.74,-97.55 457.11,-100.23"/>
<polygon fill="black" stroke="black" points="456.55,-96.77 447.01,-101.38 457.35,-103.73 456.55,-96.77"/>
<text text-anchor="middle" x="554.79" y="-111.8" font-family="Helvetica,Arial,sans-serif" font-size="14.00">1</text>
</g>
</g>
</svg>
