<?xml version="1.0" encoding="UTF-8" standalone="no"?>
<!DOCTYPE svg PUBLIC "-//W3C//DTD SVG 1.1//EN"
 "http://www.w3.org/Graphics/SVG/1.1/DTD/svg11.dtd">
<!-- Generated by graphviz version 2.43.0 (0)
 -->
<!-- Title: finite_state_machine Pages: 1 -->
<svg width="850pt" height="580pt"
 viewBox="0.00 0.00 849.60 580.00" xmlns="http://www.w3.org/2000/svg" xmlns:xlink="http://www.w3.org/1999/xlink">
<g id="graph0" class="graph" transform="scale(1 1) rotate(0) translate(4 576)">
<title>finite_state_machine</title>
<polygon fill="white" stroke="transparent" points="-4,4 -4,-576 845.6,-576 845.6,4 -4,4"/>
<!-- 7 -->
<g id="node1" class="node">
<title>7</title>
<ellipse fill="none" stroke="black" cx="18" cy="-238" rx="18" ry="18"/>
<text text-anchor="middle" x="18" y="-234.3" font-family="Helvetica,Arial,sans-serif" font-size="14.00">7</text>
</g>
<!-- 1 -->
<g id="node2" class="node">
<title>1</title>
<ellipse fill="none" stroke="black" cx="98" cy="-159" rx="18" ry="18"/>
<text text-anchor="middle" x="98" y="-155.3" font-family="Helvetica,Arial,sans-serif" font-size="14.00">1</text>
</g>
<!-- 7&#45;&gt;1 -->
<g id="edge1" class="edge">
<title>7&#45;&gt;1</title>
<path fill="none" stroke="black" d="M31.19,-225.66C43.59,-213.09 63.01,-193.42 77.55,-178.7"/>
<polygon fill="black" stroke="black" points="80.11,-181.09 84.64,-171.52 75.12,-176.17 80.11,-181.09"/>
<text text-anchor="middle" x="58" y="-204.8" font-family="Helvetica,Arial,sans-serif" font-size="14.00">1</text>
</g>
<!-- 10 -->
<g id="node3" class="node">
<title>10</title>
<ellipse fill="none" stroke="black" cx="180.8" cy="-254" rx="20.6" ry="20.6"/>
<text text-anchor="middle" x="180.8" y="-250.3" font-family="Helvetica,Arial,sans-serif" font-size="14.00">10</text>
</g>
<!-- 1&#45;&gt;10 -->
<g id="edge11" class="edge">
<title>1&#45;&gt;10</title>
<path fill="none" stroke="black" d="M108.52,-173.61C115.24,-183.6 124.69,-196.98 134,-208 141.2,-216.52 149.68,-225.33 157.38,-232.93"/>
<polygon fill="black" stroke="black" points="155.12,-235.62 164.73,-240.07 160,-230.6 155.12,-235.62"/>
<text text-anchor="middle" x="138" y="-218.8" font-family="Helvetica,Arial,sans-serif" font-size="14.00">1</text>
</g>
<!-- 6 -->
<g id="node5" class="node">
<title>6</title>
<ellipse fill="none" stroke="black" cx="503.6" cy="-121" rx="18" ry="18"/>
<text text-anchor="middle" x="503.6" y="-117.3" font-family="Helvetica,Arial,sans-serif" font-size="14.00">6</text>
</g>
<!-- 1&#45;&gt;6 -->
<g id="edge13" class="edge">
<title>1&#45;&gt;6</title>
<path fill="none" stroke="black" d="M112.67,-148.01C128.05,-136.79 154.22,-121 179.8,-121 179.8,-121 179.8,-121 424.6,-121 441.49,-121 460.43,-121 475.42,-121"/>
<polygon fill="black" stroke="black" points="475.55,-124.5 485.55,-121 475.55,-117.5 475.55,-124.5"/>
<text text-anchor="middle" x="303.6" y="-124.8" font-family="Helvetica,Arial,sans-serif" font-size="14.00">1</text>
</g>
<!-- 8 -->
<g id="node6" class="node">
<title>8</title>
<ellipse fill="none" stroke="black" cx="823.6" cy="-170" rx="18" ry="18"/>
<text text-anchor="middle" x="823.6" y="-166.3" font-family="Helvetica,Arial,sans-serif" font-size="14.00">8</text>
</g>
<!-- 1&#45;&gt;8 -->
<g id="edge12" class="edge">
<title>1&#45;&gt;8</title>
<path fill="none" stroke="black" d="M102.24,-141.41C109.55,-107.85 130.67,-38 179.8,-38 179.8,-38 179.8,-38 744.6,-38 792.53,-38 811.62,-103.31 818.73,-142.05"/>
<polygon fill="black" stroke="black" points="815.33,-142.91 820.43,-152.2 822.23,-141.76 815.33,-142.91"/>
<text text-anchor="middle" x="463.6" y="-41.8" font-family="Helvetica,Arial,sans-serif" font-size="14.00">1</text>
</g>
<!-- 9 -->
<g id="node7" class="node">
<title>9</title>
<ellipse fill="none" stroke="black" cx="663.6" cy="-265" rx="18" ry="18"/>
<text text-anchor="middle" x="663.6" y="-261.3" font-family="Helvetica,Arial,sans-serif" font-size="14.00">9</text>
</g>
<!-- 1&#45;&gt;9 -->
<g id="edge10" class="edge">
<title>1&#45;&gt;9</title>
<path fill="none" stroke="black" d="M114.79,-166.13C120.72,-168.59 127.58,-171.18 134,-173 321.87,-226.29 556.52,-254 635.35,-262.28"/>
<polygon fill="black" stroke="black" points="635.11,-265.78 645.42,-263.33 635.83,-258.82 635.11,-265.78"/>
<text text-anchor="middle" x="383.6" y="-230.8" font-family="Helvetica,Arial,sans-serif" font-size="14.00">1</text>
</g>
<!-- 10&#45;&gt;1 -->
<g id="edge3" class="edge">
<title>10&#45;&gt;1</title>
<path fill="none" stroke="black" d="M159.76,-254.69C151.02,-254.01 141.15,-251.79 134,-246 116.09,-231.5 107.28,-206.43 102.99,-186.92"/>
<polygon fill="black" stroke="black" points="106.42,-186.19 101.09,-177.03 99.54,-187.51 106.42,-186.19"/>
<text text-anchor="middle" x="138" y="-253.8" font-family="Helvetica,Arial,sans-serif" font-size="14.00">0</text>
</g>
<!-- 4 -->
<g id="node4" class="node">
<title>4</title>
<ellipse fill="none" stroke="black" cx="263.6" cy="-296" rx="18" ry="18"/>
<text text-anchor="middle" x="263.6" y="-292.3" font-family="Helvetica,Arial,sans-serif" font-size="14.00">4</text>
</g>
<!-- 10&#45;&gt;4 -->
<g id="edge2" class="edge">
<title>10&#45;&gt;4</title>
<path fill="none" stroke="black" d="M199.73,-263.32C211.07,-269.21 225.86,-276.91 238.26,-283.35"/>
<polygon fill="black" stroke="black" points="236.68,-286.47 247.16,-287.98 239.91,-280.26 236.68,-286.47"/>
<text text-anchor="middle" x="223.6" y="-280.8" font-family="Helvetica,Arial,sans-serif" font-size="14.00">1</text>
</g>
<!-- 4&#45;&gt;7 -->
<g id="edge5" class="edge">
<title>4&#45;&gt;7</title>
<path fill="none" stroke="black" d="M245.4,-296.78C237.52,-296.94 228.06,-296.84 219.6,-296 154.64,-289.53 81.81,-263.46 44.33,-248.57"/>
<polygon fill="black" stroke="black" points="45.31,-245.19 34.73,-244.69 42.69,-251.68 45.31,-245.19"/>
<text text-anchor="middle" x="138" y="-284.8" font-family="Helvetica,Arial,sans-serif" font-size="14.00">1</text>
</g>
<!-- 4&#45;&gt;10 -->
<g id="edge9" class="edge">
<title>4&#45;&gt;10</title>
<path fill="none" stroke="black" d="M254.17,-280.15C248.16,-270.65 239.11,-259.39 227.6,-254 222.68,-251.7 217.13,-250.62 211.64,-250.29"/>
<polygon fill="black" stroke="black" points="211.27,-246.79 201.31,-250.41 211.36,-253.79 211.27,-246.79"/>
<text text-anchor="middle" x="223.6" y="-257.8" font-family="Helvetica,Arial,sans-serif" font-size="14.00">0</text>
</g>
<!-- 4&#45;&gt;6 -->
<g id="edge4" class="edge">
<title>4&#45;&gt;6</title>
<path fill="none" stroke="black" d="M273.47,-280.34C290.38,-251.96 329.97,-192.01 379.6,-160 413.76,-137.96 429.11,-148.12 467.6,-135 470.76,-133.92 474.04,-132.72 477.29,-131.48"/>
<polygon fill="black" stroke="black" points="478.68,-134.69 486.7,-127.76 476.11,-128.18 478.68,-134.69"/>
<text text-anchor="middle" x="383.6" y="-163.8" font-family="Helvetica,Arial,sans-serif" font-size="14.00">1</text>
</g>
<!-- 4&#45;&gt;8 -->
<g id="edge6" class="edge">
<title>4&#45;&gt;8</title>
<path fill="none" stroke="black" d="M266.05,-313.94C271.3,-372.91 291.76,-557 342.6,-557 342.6,-557 342.6,-557 744.6,-557 817.79,-557 823.15,-287.6 822.91,-198.34"/>
<polygon fill="black" stroke="black" points="826.41,-198.13 822.86,-188.15 819.41,-198.17 826.41,-198.13"/>
<text text-anchor="middle" x="543.6" y="-560.8" font-family="Helvetica,Arial,sans-serif" font-size="14.00">1</text>
</g>
<!-- 4&#45;&gt;9 -->
<g id="edge7" class="edge">
<title>4&#45;&gt;9</title>
<path fill="none" stroke="black" d="M281.47,-292.98C315.19,-287.12 393.31,-274.4 459.6,-270 530.62,-265.29 548.44,-275.36 619.6,-277 623.15,-277.08 624.09,-277.58 627.6,-277 630.73,-276.48 633.95,-275.71 637.12,-274.81"/>
<polygon fill="black" stroke="black" points="638.43,-278.07 646.85,-271.63 636.26,-271.41 638.43,-278.07"/>
<text text-anchor="middle" x="463.6" y="-273.8" font-family="Helvetica,Arial,sans-serif" font-size="14.00">1</text>
</g>
<!-- 0 -->
<g id="node8" class="node">
<title>0</title>
<ellipse fill="none" stroke="black" cx="343.6" cy="-378" rx="18" ry="18"/>
<text text-anchor="middle" x="343.6" y="-374.3" font-family="Helvetica,Arial,sans-serif" font-size="14.00">0</text>
</g>
<!-- 4&#45;&gt;0 -->
<g id="edge8" class="edge">
<title>4&#45;&gt;0</title>
<path fill="none" stroke="black" d="M280.01,-304.36C288.74,-309.56 299.49,-316.81 307.6,-325 315.95,-333.43 323.46,-344.14 329.37,-353.72"/>
<polygon fill="black" stroke="black" points="326.42,-355.61 334.51,-362.45 332.45,-352.06 326.42,-355.61"/>
<text text-anchor="middle" x="303.6" y="-328.8" font-family="Helvetica,Arial,sans-serif" font-size="14.00">1</text>
</g>
<!-- 6&#45;&gt;1 -->
<g id="edge15" class="edge">
<title>6&#45;&gt;1</title>
<path fill="none" stroke="black" d="M489.19,-109.8C474.36,-98.6 449.3,-83 424.6,-83 179.8,-83 179.8,-83 179.8,-83 149.16,-83 125.4,-112.35 111.8,-134.57"/>
<polygon fill="black" stroke="black" points="108.75,-132.85 106.77,-143.25 114.81,-136.36 108.75,-132.85"/>
<text text-anchor="middle" x="303.6" y="-86.8" font-family="Helvetica,Arial,sans-serif" font-size="14.00">0</text>
</g>
<!-- 5 -->
<g id="node9" class="node">
<title>5</title>
<ellipse fill="none" stroke="black" cx="583.6" cy="-158" rx="18" ry="18"/>
<text text-anchor="middle" x="583.6" y="-154.3" font-family="Helvetica,Arial,sans-serif" font-size="14.00">5</text>
</g>
<!-- 6&#45;&gt;5 -->
<g id="edge14" class="edge">
<title>6&#45;&gt;5</title>
<path fill="none" stroke="black" d="M520.38,-128.49C531.13,-133.59 545.58,-140.44 557.84,-146.26"/>
<polygon fill="black" stroke="black" points="556.57,-149.53 567.1,-150.65 559.57,-143.2 556.57,-149.53"/>
<text text-anchor="middle" x="543.6" y="-144.8" font-family="Helvetica,Arial,sans-serif" font-size="14.00">1</text>
</g>
<!-- 8&#45;&gt;1 -->
<g id="edge20" class="edge">
<title>8&#45;&gt;1</title>
<path fill="none" stroke="black" d="M822.45,-151.81C821.04,-107.95 810.84,0 744.6,0 179.8,0 179.8,0 179.8,0 121.75,0 105.39,-85.27 100.79,-130.92"/>
<polygon fill="black" stroke="black" points="97.29,-130.8 99.9,-141.07 104.26,-131.42 97.29,-130.8"/>
<text text-anchor="middle" x="463.6" y="-3.8" font-family="Helvetica,Arial,sans-serif" font-size="14.00">0</text>
</g>
<!-- 8&#45;&gt;5 -->
<g id="edge22" class="edge">
<title>8&#45;&gt;5</title>
<path fill="none" stroke="black" d="M806.02,-165.22C783.83,-159.1 743.15,-148.82 707.6,-145 674.34,-141.43 636.02,-147.01 611.11,-151.94"/>
<polygon fill="black" stroke="black" points="610.39,-148.51 601.31,-153.98 611.81,-155.37 610.39,-148.51"/>
<text text-anchor="middle" x="703.6" y="-148.8" font-family="Helvetica,Arial,sans-serif" font-size="14.00">0</text>
</g>
<!-- 3 -->
<g id="node10" class="node">
<title>3</title>
<ellipse fill="none" stroke="black" cx="743.6" cy="-227" rx="18" ry="18"/>
<text text-anchor="middle" x="743.6" y="-223.3" font-family="Helvetica,Arial,sans-serif" font-size="14.00">3</text>
</g>
<!-- 8&#45;&gt;3 -->
<g id="edge21" class="edge">
<title>8&#45;&gt;3</title>
<path fill="none" stroke="black" d="M806.2,-174.93C797.79,-177.92 787.64,-182.28 779.6,-188 773.07,-192.64 766.9,-198.7 761.6,-204.65"/>
<polygon fill="black" stroke="black" points="758.71,-202.65 754.98,-212.56 764.08,-207.14 758.71,-202.65"/>
<text text-anchor="middle" x="783.6" y="-191.8" font-family="Helvetica,Arial,sans-serif" font-size="14.00">1</text>
</g>
<!-- 9&#45;&gt;1 -->
<g id="edge27" class="edge">
<title>9&#45;&gt;1</title>
<path fill="none" stroke="black" d="M646.28,-259.89C578.6,-238.71 322.58,-159 304.6,-159 179.8,-159 179.8,-159 179.8,-159 161.9,-159 141.78,-159 126.09,-159"/>
<polygon fill="black" stroke="black" points="126.02,-155.5 116.02,-159 126.02,-162.5 126.02,-155.5"/>
<text text-anchor="middle" x="383.6" y="-184.8" font-family="Helvetica,Arial,sans-serif" font-size="14.00">0</text>
</g>
<!-- 9&#45;&gt;5 -->
<g id="edge28" class="edge">
<title>9&#45;&gt;5</title>
<path fill="none" stroke="black" d="M658.83,-247.62C654.14,-229.45 644.6,-200.99 627.6,-182 622.69,-176.52 616.23,-172.02 609.81,-168.45"/>
<polygon fill="black" stroke="black" points="611.13,-165.2 600.62,-163.89 608.02,-171.47 611.13,-165.2"/>
<text text-anchor="middle" x="623.6" y="-185.8" font-family="Helvetica,Arial,sans-serif" font-size="14.00">0</text>
</g>
<!-- 9&#45;&gt;3 -->
<g id="edge30" class="edge">
<title>9&#45;&gt;3</title>
<path fill="none" stroke="black" d="M673.47,-249.48C679.55,-240.51 688.5,-230.03 699.6,-225 704.57,-222.74 710.21,-221.94 715.74,-221.94"/>
<polygon fill="black" stroke="black" points="715.75,-225.45 726,-222.77 716.31,-218.47 715.75,-225.45"/>
<text text-anchor="middle" x="703.6" y="-228.8" font-family="Helvetica,Arial,sans-serif" font-size="14.00">0</text>
</g>
<!-- 2 -->
<g id="node11" class="node">
<title>2</title>
<ellipse fill="none" stroke="black" cx="423.6" cy="-400" rx="18" ry="18"/>
<text text-anchor="middle" x="423.6" y="-396.3" font-family="Helvetica,Arial,sans-serif" font-size="14.00">2</text>
</g>
<!-- 9&#45;&gt;2 -->
<g id="edge29" class="edge">
<title>9&#45;&gt;2</title>
<path fill="none" stroke="black" d="M652.46,-279.27C646.04,-287.56 637.16,-297.76 627.6,-305 570.79,-347.98 491.42,-378.07 450.81,-391.73"/>
<polygon fill="black" stroke="black" points="449.53,-388.46 441.12,-394.92 451.72,-395.11 449.53,-388.46"/>
<text text-anchor="middle" x="543.6" y="-359.8" font-family="Helvetica,Arial,sans-serif" font-size="14.00">1</text>
</g>
<!-- 0&#45;&gt;4 -->
<g id="edge36" class="edge">
<title>0&#45;&gt;4</title>
<path fill="none" stroke="black" d="M328.87,-366.93C320.14,-359.64 308.79,-349.68 299.6,-340 293.22,-333.28 286.76,-325.5 281.16,-318.37"/>
<polygon fill="black" stroke="black" points="283.9,-316.19 275.03,-310.39 278.35,-320.45 283.9,-316.19"/>
<text text-anchor="middle" x="303.6" y="-350.8" font-family="Helvetica,Arial,sans-serif" font-size="14.00">0</text>
</g>
<!-- 0&#45;&gt;5 -->
<g id="edge35" class="edge">
<title>0&#45;&gt;5</title>
<path fill="none" stroke="black" d="M354.32,-362.98C372.6,-335.51 414.35,-276.3 459.6,-236 490.4,-208.56 531.9,-184.41 557.95,-170.51"/>
<polygon fill="black" stroke="black" points="559.9,-173.44 567.13,-165.7 556.64,-167.24 559.9,-173.44"/>
<text text-anchor="middle" x="463.6" y="-239.8" font-family="Helvetica,Arial,sans-serif" font-size="14.00">0</text>
</g>
<!-- 0&#45;&gt;3 -->
<g id="edge37" class="edge">
<title>0&#45;&gt;3</title>
<path fill="none" stroke="black" d="M349.12,-395.47C357.89,-424.86 380.2,-481 422.6,-481 422.6,-481 422.6,-481 664.6,-481 711.46,-481 733.07,-320.99 739.99,-254.97"/>
<polygon fill="black" stroke="black" points="743.49,-255.16 741.01,-244.86 736.52,-254.46 743.49,-255.16"/>
<text text-anchor="middle" x="543.6" y="-484.8" font-family="Helvetica,Arial,sans-serif" font-size="14.00">0</text>
</g>
<!-- 0&#45;&gt;2 -->
<g id="edge38" class="edge">
<title>0&#45;&gt;2</title>
<path fill="none" stroke="black" d="M361.65,-376.41C369.67,-376.16 379.28,-376.59 387.6,-379 391.81,-380.22 396.03,-382.08 400.01,-384.19"/>
<polygon fill="black" stroke="black" points="398.36,-387.28 408.74,-389.42 401.95,-381.28 398.36,-387.28"/>
<text text-anchor="middle" x="383.6" y="-382.8" font-family="Helvetica,Arial,sans-serif" font-size="14.00">0</text>
</g>
<!-- 5&#45;&gt;6 -->
<g id="edge19" class="edge">
<title>5&#45;&gt;6</title>
<path fill="none" stroke="black" d="M573.27,-142.85C567.13,-134.41 558.27,-124.68 547.6,-120 542.68,-117.84 537.13,-116.98 531.7,-116.85"/>
<polygon fill="black" stroke="black" points="531.39,-113.36 521.58,-117.36 531.74,-120.35 531.39,-113.36"/>
<text text-anchor="middle" x="543.6" y="-123.8" font-family="Helvetica,Arial,sans-serif" font-size="14.00">0</text>
</g>
<!-- 5&#45;&gt;8 -->
<g id="edge18" class="edge">
<title>5&#45;&gt;8</title>
<path fill="none" stroke="black" d="M601.71,-158.86C642.44,-160.92 745.4,-166.11 795.02,-168.61"/>
<polygon fill="black" stroke="black" points="795.15,-172.12 805.32,-169.13 795.5,-165.13 795.15,-172.12"/>
<text text-anchor="middle" x="703.6" y="-168.8" font-family="Helvetica,Arial,sans-serif" font-size="14.00">1</text>
</g>
<!-- 5&#45;&gt;9 -->
<g id="edge17" class="edge">
<title>5&#45;&gt;9</title>
<path fill="none" stroke="black" d="M595.96,-171.2C604.87,-181.73 617.43,-197 627.6,-211 634.66,-220.73 641.97,-231.82 648.07,-241.41"/>
<polygon fill="black" stroke="black" points="645.22,-243.44 653.5,-250.05 651.15,-239.72 645.22,-243.44"/>
<text text-anchor="middle" x="623.6" y="-214.8" font-family="Helvetica,Arial,sans-serif" font-size="14.00">1</text>
</g>
<!-- 5&#45;&gt;0 -->
<g id="edge16" class="edge">
<title>5&#45;&gt;0</title>
<path fill="none" stroke="black" d="M575.5,-174.26C560.3,-207.35 521.54,-283.09 467.6,-327 438.79,-350.45 397.69,-364.55 371.08,-371.8"/>
<polygon fill="black" stroke="black" points="370.11,-368.44 361.31,-374.34 371.87,-375.22 370.11,-368.44"/>
<text text-anchor="middle" x="463.6" y="-335.8" font-family="Helvetica,Arial,sans-serif" font-size="14.00">1</text>
</g>
<!-- 3&#45;&gt;6 -->
<g id="edge23" class="edge">
<title>3&#45;&gt;6</title>
<path fill="none" stroke="black" d="M740.46,-209.15C737.1,-189.3 728.6,-157.84 707.6,-141 656.63,-100.15 573.73,-107.78 531.36,-115.24"/>
<polygon fill="black" stroke="black" points="530.45,-111.85 521.27,-117.15 531.75,-118.73 530.45,-111.85"/>
<text text-anchor="middle" x="623.6" y="-114.8" font-family="Helvetica,Arial,sans-serif" font-size="14.00">1</text>
</g>
<!-- 3&#45;&gt;8 -->
<g id="edge26" class="edge">
<title>3&#45;&gt;8</title>
<path fill="none" stroke="black" d="M760.28,-219.44C768.69,-215.09 779.05,-209.27 787.6,-203 792.99,-199.05 798.43,-194.34 803.37,-189.73"/>
<polygon fill="black" stroke="black" points="805.87,-192.18 810.62,-182.71 801,-187.15 805.87,-192.18"/>
<text text-anchor="middle" x="783.6" y="-212.8" font-family="Helvetica,Arial,sans-serif" font-size="14.00">0</text>
</g>
<!-- 3&#45;&gt;9 -->
<g id="edge25" class="edge">
<title>3&#45;&gt;9</title>
<path fill="none" stroke="black" d="M727.22,-234.49C716.33,-239.8 701.5,-247.02 689,-253.11"/>
<polygon fill="black" stroke="black" points="687.46,-249.97 680.01,-257.49 690.53,-256.26 687.46,-249.97"/>
<text text-anchor="middle" x="703.6" y="-250.8" font-family="Helvetica,Arial,sans-serif" font-size="14.00">1</text>
</g>
<!-- 3&#45;&gt;0 -->
<g id="edge24" class="edge">
<title>3&#45;&gt;0</title>
<path fill="none" stroke="black" d="M742.31,-245.13C741.14,-298.53 735.38,-454.03 707.6,-495 695.31,-513.12 686.48,-519 664.6,-519 422.6,-519 422.6,-519 422.6,-519 371.38,-519 353.53,-446.9 347.51,-405.81"/>
<polygon fill="black" stroke="black" points="350.98,-405.31 346.2,-395.86 344.04,-406.23 350.98,-405.31"/>
<text text-anchor="middle" x="543.6" y="-522.8" font-family="Helvetica,Arial,sans-serif" font-size="14.00">1</text>
</g>
<!-- 2&#45;&gt;6 -->
<g id="edge31" class="edge">
<title>2&#45;&gt;6</title>
<path fill="none" stroke="black" d="M431.43,-383.35C442.13,-357.14 462.18,-307.33 467.6,-289 481.93,-240.53 492.63,-182.53 498.23,-148.91"/>
<polygon fill="black" stroke="black" points="501.71,-149.33 499.86,-138.89 494.8,-148.2 501.71,-149.33"/>
<text text-anchor="middle" x="463.6" y="-313.8" font-family="Helvetica,Arial,sans-serif" font-size="14.00">1</text>
</g>
<!-- 2&#45;&gt;8 -->
<g id="edge32" class="edge">
<title>2&#45;&gt;8</title>
<path fill="none" stroke="black" d="M437.22,-412.21C451.75,-424.92 476.93,-443 502.6,-443 502.6,-443 502.6,-443 744.6,-443 795.13,-443 814.75,-267.89 820.56,-198.16"/>
<polygon fill="black" stroke="black" points="824.07,-198.16 821.38,-187.91 817.09,-197.6 824.07,-198.16"/>
<text text-anchor="middle" x="623.6" y="-446.8" font-family="Helvetica,Arial,sans-serif" font-size="14.00">1</text>
</g>
<!-- 2&#45;&gt;9 -->
<g id="edge34" class="edge">
<title>2&#45;&gt;9</title>
<path fill="none" stroke="black" d="M441.65,-398.48C461.2,-396.48 494.1,-392.32 521.6,-385 559.82,-374.82 569.62,-369.28 601.6,-346 614.56,-336.56 617.49,-333.45 627.6,-321 635.45,-311.32 642.95,-299.76 648.97,-289.67"/>
<polygon fill="black" stroke="black" points="652.07,-291.31 654.06,-280.9 646.01,-287.8 652.07,-291.31"/>
<text text-anchor="middle" x="543.6" y="-382.8" font-family="Helvetica,Arial,sans-serif" font-size="14.00">0</text>
</g>
<!-- 2&#45;&gt;0 -->
<g id="edge33" class="edge">
<title>2&#45;&gt;0</title>
<path fill="none" stroke="black" d="M405.55,-401.03C397.53,-401.06 387.92,-400.42 379.6,-398 375.63,-396.85 371.63,-395.16 367.82,-393.25"/>
<polygon fill="black" stroke="black" points="369.32,-390.08 358.89,-388.21 365.88,-396.17 369.32,-390.08"/>
<text text-anchor="middle" x="383.6" y="-402.8" font-family="Helvetica,Arial,sans-serif" font-size="14.00">1</text>
</g>
</g>
</svg>
