<?xml version="1.0" encoding="UTF-8" standalone="no"?>
<!DOCTYPE svg PUBLIC "-//W3C//DTD SVG 1.1//EN"
 "http://www.w3.org/Graphics/SVG/1.1/DTD/svg11.dtd">
<!-- Generated by graphviz version 2.43.0 (0)
 -->
<!-- Title: finite_state_machine Pages: 1 -->
<svg width="290pt" height="511pt"
 viewBox="0.00 0.00 289.60 511.00" xmlns="http://www.w3.org/2000/svg" xmlns:xlink="http://www.w3.org/1999/xlink">
<g id="graph0" class="graph" transform="scale(1 1) rotate(0) translate(4 507)">
<title>finite_state_machine</title>
<polygon fill="white" stroke="transparent" points="-4,4 -4,-507 285.6,-507 285.6,4 -4,4"/>
<!-- 0 -->
<g id="node1" class="node">
<title>0</title>
<ellipse fill="none" stroke="black" cx="18" cy="-256" rx="18" ry="18"/>
<text text-anchor="middle" x="18" y="-252.3" font-family="Helvetica,Arial,sans-serif" font-size="14.00">0</text>
</g>
<!-- 2 -->
<g id="node2" class="node">
<title>2</title>
<ellipse fill="none" stroke="black" cx="98" cy="-233" rx="18" ry="18"/>
<text text-anchor="middle" x="98" y="-229.3" font-family="Helvetica,Arial,sans-serif" font-size="14.00">2</text>
</g>
<!-- 0&#45;&gt;2 -->
<g id="edge1" class="edge">
<title>0&#45;&gt;2</title>
<path fill="none" stroke="black" d="M35.54,-251.12C45.78,-248.1 59.15,-244.16 70.8,-240.72"/>
<polygon fill="black" stroke="black" points="71.88,-244.06 80.48,-237.87 69.9,-237.34 71.88,-244.06"/>
<text text-anchor="middle" x="58" y="-249.8" font-family="Helvetica,Arial,sans-serif" font-size="14.00">1</text>
</g>
<!-- 3 -->
<g id="node3" class="node">
<title>3</title>
<ellipse fill="none" stroke="black" cx="98" cy="-287" rx="18" ry="18"/>
<text text-anchor="middle" x="98" y="-283.3" font-family="Helvetica,Arial,sans-serif" font-size="14.00">3</text>
</g>
<!-- 0&#45;&gt;3 -->
<g id="edge2" class="edge">
<title>0&#45;&gt;3</title>
<path fill="none" stroke="black" d="M35.16,-262.42C45.69,-266.61 59.65,-272.15 71.64,-276.92"/>
<polygon fill="black" stroke="black" points="70.54,-280.25 81.13,-280.69 73.13,-273.75 70.54,-280.25"/>
<text text-anchor="middle" x="58" y="-276.8" font-family="Helvetica,Arial,sans-serif" font-size="14.00">1</text>
</g>
<!-- 4 -->
<g id="node4" class="node">
<title>4</title>
<ellipse fill="none" stroke="black" cx="98" cy="-138" rx="18" ry="18"/>
<text text-anchor="middle" x="98" y="-134.3" font-family="Helvetica,Arial,sans-serif" font-size="14.00">4</text>
</g>
<!-- 0&#45;&gt;4 -->
<g id="edge3" class="edge">
<title>0&#45;&gt;4</title>
<path fill="none" stroke="black" d="M28.88,-241.06C42.18,-220.93 65.99,-184.91 81.64,-161.23"/>
<polygon fill="black" stroke="black" points="84.61,-163.1 87.2,-152.82 78.77,-159.24 84.61,-163.1"/>
<text text-anchor="middle" x="58" y="-204.8" font-family="Helvetica,Arial,sans-serif" font-size="14.00">1</text>
</g>
<!-- 5 -->
<g id="node5" class="node">
<title>5</title>
<ellipse fill="none" stroke="black" cx="98" cy="-409" rx="18" ry="18"/>
<text text-anchor="middle" x="98" y="-405.3" font-family="Helvetica,Arial,sans-serif" font-size="14.00">5</text>
</g>
<!-- 0&#45;&gt;5 -->
<g id="edge4" class="edge">
<title>0&#45;&gt;5</title>
<path fill="none" stroke="black" d="M27.05,-271.8C40.6,-298.37 68.04,-352.2 84.24,-383.97"/>
<polygon fill="black" stroke="black" points="81.21,-385.74 88.87,-393.06 87.45,-382.56 81.21,-385.74"/>
<text text-anchor="middle" x="58" y="-340.8" font-family="Helvetica,Arial,sans-serif" font-size="14.00">1</text>
</g>
<!-- 6 -->
<g id="node6" class="node">
<title>6</title>
<ellipse fill="none" stroke="black" cx="180.8" cy="-393" rx="18" ry="18"/>
<text text-anchor="middle" x="180.8" y="-389.3" font-family="Helvetica,Arial,sans-serif" font-size="14.00">6</text>
</g>
<!-- 2&#45;&gt;6 -->
<g id="edge11" class="edge">
<title>2&#45;&gt;6</title>
<path fill="none" stroke="black" d="M109.31,-247.01C111.84,-251.03 114.32,-255.54 116,-260 133.67,-306.75 104.08,-330.97 134,-371 138.79,-377.41 145.94,-382.04 153.18,-385.35"/>
<polygon fill="black" stroke="black" points="152.29,-388.76 162.88,-389.08 154.8,-382.22 152.29,-388.76"/>
<text text-anchor="middle" x="138" y="-381.8" font-family="Helvetica,Arial,sans-serif" font-size="14.00">0</text>
</g>
<!-- 8 -->
<g id="node8" class="node">
<title>8</title>
<ellipse fill="none" stroke="black" cx="180.8" cy="-160" rx="18" ry="18"/>
<text text-anchor="middle" x="180.8" y="-156.3" font-family="Helvetica,Arial,sans-serif" font-size="14.00">8</text>
</g>
<!-- 2&#45;&gt;8 -->
<g id="edge12" class="edge">
<title>2&#45;&gt;8</title>
<path fill="none" stroke="black" d="M103.55,-215.83C111.23,-187.43 126.67,-133.28 134,-128 143.69,-121.02 154.65,-128.15 163.42,-137.44"/>
<polygon fill="black" stroke="black" points="160.78,-139.74 169.91,-145.12 166.13,-135.22 160.78,-139.74"/>
<text text-anchor="middle" x="138" y="-131.8" font-family="Helvetica,Arial,sans-serif" font-size="14.00">0</text>
</g>
<!-- 9 -->
<g id="node9" class="node">
<title>9</title>
<ellipse fill="none" stroke="black" cx="180.8" cy="-241" rx="18" ry="18"/>
<text text-anchor="middle" x="180.8" y="-237.3" font-family="Helvetica,Arial,sans-serif" font-size="14.00">9</text>
</g>
<!-- 2&#45;&gt;9 -->
<g id="edge10" class="edge">
<title>2&#45;&gt;9</title>
<path fill="none" stroke="black" d="M116.14,-234.7C126.74,-235.75 140.59,-237.12 152.66,-238.31"/>
<polygon fill="black" stroke="black" points="152.39,-241.8 162.69,-239.31 153.08,-234.84 152.39,-241.8"/>
<text text-anchor="middle" x="138" y="-241.8" font-family="Helvetica,Arial,sans-serif" font-size="14.00">1</text>
</g>
<!-- 3&#45;&gt;6 -->
<g id="edge14" class="edge">
<title>3&#45;&gt;6</title>
<path fill="none" stroke="black" d="M101.52,-305.12C106.22,-335.94 117.37,-396.47 134,-409 140.87,-414.17 149.54,-412.68 157.48,-409.01"/>
<polygon fill="black" stroke="black" points="159.37,-411.96 166.32,-403.97 155.9,-405.88 159.37,-411.96"/>
<text text-anchor="middle" x="138" y="-415.8" font-family="Helvetica,Arial,sans-serif" font-size="14.00">0</text>
</g>
<!-- 3&#45;&gt;8 -->
<g id="edge13" class="edge">
<title>3&#45;&gt;8</title>
<path fill="none" stroke="black" d="M109.4,-272.68C111.88,-268.73 114.3,-264.33 116,-260 131.72,-220.01 102.44,-194.17 134,-165 139.01,-160.37 145.77,-158.27 152.55,-157.53"/>
<polygon fill="black" stroke="black" points="153.06,-161.02 162.98,-157.31 152.91,-154.02 153.06,-161.02"/>
<text text-anchor="middle" x="138" y="-168.8" font-family="Helvetica,Arial,sans-serif" font-size="14.00">1</text>
</g>
<!-- 3&#45;&gt;9 -->
<g id="edge15" class="edge">
<title>3&#45;&gt;9</title>
<path fill="none" stroke="black" d="M114.2,-278.35C125.93,-271.67 142.4,-262.29 155.89,-254.61"/>
<polygon fill="black" stroke="black" points="157.71,-257.6 164.67,-249.61 154.25,-251.52 157.71,-257.6"/>
<text text-anchor="middle" x="138" y="-270.8" font-family="Helvetica,Arial,sans-serif" font-size="14.00">0</text>
</g>
<!-- 4&#45;&gt;6 -->
<g id="edge17" class="edge">
<title>4&#45;&gt;6</title>
<path fill="none" stroke="black" d="M103.81,-155.22C107.51,-168.9 112.55,-188.57 116,-206 126.71,-260.2 113.34,-277.76 134,-329 140.41,-344.91 151.55,-360.6 161.23,-372.47"/>
<polygon fill="black" stroke="black" points="158.8,-375.02 167.94,-380.38 164.14,-370.49 158.8,-375.02"/>
<text text-anchor="middle" x="138" y="-347.8" font-family="Helvetica,Arial,sans-serif" font-size="14.00">0</text>
</g>
<!-- 4&#45;&gt;8 -->
<g id="edge19" class="edge">
<title>4&#45;&gt;8</title>
<path fill="none" stroke="black" d="M105.17,-121.13C112.57,-103.73 125.99,-80.36 142,-90 156.65,-98.82 151.88,-108.95 160,-124 162.06,-127.81 164.25,-131.84 166.41,-135.77"/>
<polygon fill="black" stroke="black" points="163.38,-137.54 171.27,-144.61 169.52,-134.16 163.38,-137.54"/>
<text text-anchor="middle" x="138" y="-93.8" font-family="Helvetica,Arial,sans-serif" font-size="14.00">0</text>
</g>
<!-- 4&#45;&gt;9 -->
<g id="edge20" class="edge">
<title>4&#45;&gt;9</title>
<path fill="none" stroke="black" d="M109.9,-151.89C123.47,-169.19 146.8,-198.93 162.74,-219.26"/>
<polygon fill="black" stroke="black" points="160.15,-221.62 169.07,-227.33 165.66,-217.3 160.15,-221.62"/>
<text text-anchor="middle" x="138" y="-196.8" font-family="Helvetica,Arial,sans-serif" font-size="14.00">0</text>
</g>
<!-- 10 -->
<g id="node10" class="node">
<title>10</title>
<ellipse fill="none" stroke="black" cx="180.8" cy="-94" rx="20.6" ry="20.6"/>
<text text-anchor="middle" x="180.8" y="-90.3" font-family="Helvetica,Arial,sans-serif" font-size="14.00">10</text>
</g>
<!-- 4&#45;&gt;10 -->
<g id="edge16" class="edge">
<title>4&#45;&gt;10</title>
<path fill="none" stroke="black" d="M102.51,-120.29C106.82,-103.79 115.91,-80.11 134,-69 141.82,-64.2 150.63,-67.11 158.41,-72.39"/>
<polygon fill="black" stroke="black" points="156.38,-75.25 166.37,-78.79 160.77,-69.8 156.38,-75.25"/>
<text text-anchor="middle" x="138" y="-72.8" font-family="Helvetica,Arial,sans-serif" font-size="14.00">1</text>
</g>
<!-- 7 -->
<g id="node11" class="node">
<title>7</title>
<ellipse fill="none" stroke="black" cx="180.8" cy="-18" rx="18" ry="18"/>
<text text-anchor="middle" x="180.8" y="-14.3" font-family="Helvetica,Arial,sans-serif" font-size="14.00">7</text>
</g>
<!-- 4&#45;&gt;7 -->
<g id="edge18" class="edge">
<title>4&#45;&gt;7</title>
<path fill="none" stroke="black" d="M102.44,-120.47C106.97,-101.05 116.48,-69.62 134,-48 139.64,-41.04 147.33,-35.14 154.8,-30.46"/>
<polygon fill="black" stroke="black" points="157.04,-33.21 163.97,-25.2 153.55,-27.14 157.04,-33.21"/>
<text text-anchor="middle" x="138" y="-51.8" font-family="Helvetica,Arial,sans-serif" font-size="14.00">0</text>
</g>
<!-- 5&#45;&gt;6 -->
<g id="edge21" class="edge">
<title>5&#45;&gt;6</title>
<path fill="none" stroke="black" d="M101.71,-426.9C106.62,-453.97 118.7,-500.61 142,-485 163.2,-470.79 172.52,-442.32 176.61,-420.79"/>
<polygon fill="black" stroke="black" points="180.07,-421.31 178.23,-410.87 173.16,-420.18 180.07,-421.31"/>
<text text-anchor="middle" x="138" y="-491.8" font-family="Helvetica,Arial,sans-serif" font-size="14.00">1</text>
</g>
<!-- 5&#45;&gt;8 -->
<g id="edge22" class="edge">
<title>5&#45;&gt;8</title>
<path fill="none" stroke="black" d="M105.33,-392.45C114.18,-368.97 130.46,-324.58 142,-286 151.45,-254.4 150.31,-245.53 160,-214 162.86,-204.71 166.4,-194.67 169.7,-185.8"/>
<polygon fill="black" stroke="black" points="173,-186.98 173.27,-176.39 166.45,-184.5 173,-186.98"/>
<text text-anchor="middle" x="138" y="-313.8" font-family="Helvetica,Arial,sans-serif" font-size="14.00">0</text>
</g>
<!-- 5&#45;&gt;9 -->
<g id="edge23" class="edge">
<title>5&#45;&gt;9</title>
<path fill="none" stroke="black" d="M110.75,-422C119.88,-430.52 132.54,-438.77 142,-431 148.28,-425.85 166.62,-320.2 175.23,-268.72"/>
<polygon fill="black" stroke="black" points="178.72,-269.05 176.91,-258.61 171.82,-267.9 178.72,-269.05"/>
<text text-anchor="middle" x="138" y="-437.8" font-family="Helvetica,Arial,sans-serif" font-size="14.00">0</text>
</g>
<!-- 1 -->
<g id="node7" class="node">
<title>1</title>
<ellipse fill="none" stroke="black" cx="263.6" cy="-160" rx="18" ry="18"/>
<text text-anchor="middle" x="263.6" y="-156.3" font-family="Helvetica,Arial,sans-serif" font-size="14.00">1</text>
</g>
<!-- 6&#45;&gt;1 -->
<g id="edge5" class="edge">
<title>6&#45;&gt;1</title>
<path fill="none" stroke="black" d="M187.61,-376.24C201.49,-336.21 236.68,-234.73 253.45,-186.39"/>
<polygon fill="black" stroke="black" points="256.76,-187.51 256.73,-176.92 250.15,-185.22 256.76,-187.51"/>
<text text-anchor="middle" x="223.6" y="-287.8" font-family="Helvetica,Arial,sans-serif" font-size="14.00">1</text>
</g>
<!-- 8&#45;&gt;1 -->
<g id="edge6" class="edge">
<title>8&#45;&gt;1</title>
<path fill="none" stroke="black" d="M198.93,-160C209.54,-160 223.39,-160 235.46,-160"/>
<polygon fill="black" stroke="black" points="235.49,-163.5 245.49,-160 235.49,-156.5 235.49,-163.5"/>
<text text-anchor="middle" x="223.6" y="-163.8" font-family="Helvetica,Arial,sans-serif" font-size="14.00">1</text>
</g>
<!-- 9&#45;&gt;1 -->
<g id="edge7" class="edge">
<title>9&#45;&gt;1</title>
<path fill="none" stroke="black" d="M194.07,-228.7C207,-215.73 227.57,-195.12 242.8,-179.85"/>
<polygon fill="black" stroke="black" points="245.63,-181.97 250.21,-172.42 240.67,-177.03 245.63,-181.97"/>
<text text-anchor="middle" x="223.6" y="-206.8" font-family="Helvetica,Arial,sans-serif" font-size="14.00">1</text>
</g>
<!-- 10&#45;&gt;1 -->
<g id="edge8" class="edge">
<title>10&#45;&gt;1</title>
<path fill="none" stroke="black" d="M197.38,-106.73C209.83,-116.9 227.43,-131.27 241.2,-142.53"/>
<polygon fill="black" stroke="black" points="239.25,-145.45 249.21,-149.06 243.68,-140.03 239.25,-145.45"/>
<text text-anchor="middle" x="223.6" y="-134.8" font-family="Helvetica,Arial,sans-serif" font-size="14.00">1</text>
</g>
<!-- 7&#45;&gt;1 -->
<g id="edge9" class="edge">
<title>7&#45;&gt;1</title>
<path fill="none" stroke="black" d="M190.6,-33.47C204.62,-58.11 232.15,-106.5 248.81,-135.77"/>
<polygon fill="black" stroke="black" points="245.82,-137.59 253.81,-144.55 251.9,-134.13 245.82,-137.59"/>
<text text-anchor="middle" x="223.6" y="-101.8" font-family="Helvetica,Arial,sans-serif" font-size="14.00">0</text>
</g>
</g>
</svg>
