<?xml version="1.0" encoding="UTF-8" standalone="no"?>
<!DOCTYPE svg PUBLIC "-//W3C//DTD SVG 1.1//EN"
 "http://www.w3.org/Graphics/SVG/1.1/DTD/svg11.dtd">
<!-- Generated by graphviz version 2.43.0 (0)
 -->
<!-- Title: finite_state_machine Pages: 1 -->
<svg width="597pt" height="269pt"
 viewBox="0.00 0.00 596.79 269.00" xmlns="http://www.w3.org/2000/svg" xmlns:xlink="http://www.w3.org/1999/xlink">
<g id="graph0" class="graph" transform="scale(1 1) rotate(0) translate(4 265)">
<title>finite_state_machine</title>
<polygon fill="white" stroke="transparent" points="-4,4 -4,-265 592.79,-265 592.79,4 -4,4"/>
<!-- 5 -->
<g id="node1" class="node">
<title>5</title>
<ellipse fill="none" stroke="black" cx="288.8" cy="-202" rx="18" ry="18"/>
<text text-anchor="middle" x="288.8" y="-198.3" font-family="Helvetica,Arial,sans-serif" font-size="14.00">5</text>
</g>
<!-- 7 -->
<g id="node2" class="node">
<title>7</title>
<ellipse fill="none" stroke="black" cx="399.6" cy="-243" rx="18" ry="18"/>
<text text-anchor="middle" x="399.6" y="-239.3" font-family="Helvetica,Arial,sans-serif" font-size="14.00">7</text>
</g>
<!-- 5&#45;&gt;7 -->
<g id="edge1" class="edge">
<title>5&#45;&gt;7</title>
<path fill="none" stroke="black" d="M305.85,-208.05C323.53,-214.71 352.2,-225.52 372.99,-233.35"/>
<polygon fill="black" stroke="black" points="371.89,-236.67 382.48,-236.93 374.35,-230.12 371.89,-236.67"/>
<text text-anchor="middle" x="345.6" y="-232.8" font-family="Helvetica,Arial,sans-serif" font-size="14.00">1</text>
</g>
<!-- 10 -->
<g id="node3" class="node">
<title>10</title>
<ellipse fill="none" stroke="black" cx="482.39" cy="-192" rx="20.6" ry="20.6"/>
<text text-anchor="middle" x="482.39" y="-188.3" font-family="Helvetica,Arial,sans-serif" font-size="14.00">10</text>
</g>
<!-- 5&#45;&gt;10 -->
<g id="edge2" class="edge">
<title>5&#45;&gt;10</title>
<path fill="none" stroke="black" d="M306.8,-201.11C339.34,-199.41 410.78,-195.69 451.47,-193.56"/>
<polygon fill="black" stroke="black" points="451.79,-197.05 461.59,-193.03 451.42,-190.06 451.79,-197.05"/>
<text text-anchor="middle" x="399.6" y="-200.8" font-family="Helvetica,Arial,sans-serif" font-size="14.00">1</text>
</g>
<!-- 7&#45;&gt;10 -->
<g id="edge7" class="edge">
<title>7&#45;&gt;10</title>
<path fill="none" stroke="black" d="M415.42,-233.65C426.67,-226.54 442.42,-216.6 455.71,-208.21"/>
<polygon fill="black" stroke="black" points="457.84,-211 464.43,-202.71 454.11,-205.08 457.84,-211"/>
<text text-anchor="middle" x="439.6" y="-223.8" font-family="Helvetica,Arial,sans-serif" font-size="14.00">0</text>
</g>
<!-- 12 -->
<g id="node6" class="node">
<title>12</title>
<ellipse fill="none" stroke="black" cx="567.99" cy="-224" rx="20.6" ry="20.6"/>
<text text-anchor="middle" x="567.99" y="-220.3" font-family="Helvetica,Arial,sans-serif" font-size="14.00">12</text>
</g>
<!-- 7&#45;&gt;12 -->
<g id="edge8" class="edge">
<title>7&#45;&gt;12</title>
<path fill="none" stroke="black" d="M417.77,-241.51C425.64,-240.8 435.1,-239.91 443.6,-239 475.7,-235.56 512.43,-231.01 537.41,-227.83"/>
<polygon fill="black" stroke="black" points="537.87,-231.3 547.35,-226.56 536.99,-224.36 537.87,-231.3"/>
<text text-anchor="middle" x="482.39" y="-239.8" font-family="Helvetica,Arial,sans-serif" font-size="14.00">1</text>
</g>
<!-- 10&#45;&gt;12 -->
<g id="edge4" class="edge">
<title>10&#45;&gt;12</title>
<path fill="none" stroke="black" d="M501.95,-199.1C512.69,-203.22 526.45,-208.48 538.54,-213.11"/>
<polygon fill="black" stroke="black" points="537.61,-216.5 548.2,-216.81 540.11,-209.96 537.61,-216.5"/>
<text text-anchor="middle" x="525.19" y="-211.8" font-family="Helvetica,Arial,sans-serif" font-size="14.00">6</text>
</g>
<!-- 6 -->
<g id="node4" class="node">
<title>6</title>
<ellipse fill="none" stroke="black" cx="288.8" cy="-87" rx="18" ry="18"/>
<text text-anchor="middle" x="288.8" y="-83.3" font-family="Helvetica,Arial,sans-serif" font-size="14.00">6</text>
</g>
<!-- 9 -->
<g id="node5" class="node">
<title>9</title>
<ellipse fill="none" stroke="black" cx="399.6" cy="-87" rx="18" ry="18"/>
<text text-anchor="middle" x="399.6" y="-83.3" font-family="Helvetica,Arial,sans-serif" font-size="14.00">9</text>
</g>
<!-- 6&#45;&gt;9 -->
<g id="edge3" class="edge">
<title>6&#45;&gt;9</title>
<path fill="none" stroke="black" d="M307.28,-87C324.59,-87 351.35,-87 371.43,-87"/>
<polygon fill="black" stroke="black" points="371.52,-90.5 381.52,-87 371.52,-83.5 371.52,-90.5"/>
<text text-anchor="middle" x="345.6" y="-90.8" font-family="Helvetica,Arial,sans-serif" font-size="14.00">2</text>
</g>
<!-- 9&#45;&gt;10 -->
<g id="edge9" class="edge">
<title>9&#45;&gt;10</title>
<path fill="none" stroke="black" d="M416.49,-93.39C425.37,-97.61 436.12,-103.86 443.6,-112 456.76,-126.34 466.15,-146.08 472.28,-162.36"/>
<polygon fill="black" stroke="black" points="469.05,-163.72 475.68,-171.98 475.65,-161.38 469.05,-163.72"/>
<text text-anchor="middle" x="439.6" y="-115.8" font-family="Helvetica,Arial,sans-serif" font-size="14.00">3</text>
</g>
<!-- 2 -->
<g id="node7" class="node">
<title>2</title>
<ellipse fill="none" stroke="black" cx="152" cy="-204" rx="18" ry="18"/>
<text text-anchor="middle" x="152" y="-200.3" font-family="Helvetica,Arial,sans-serif" font-size="14.00">2</text>
</g>
<!-- 2&#45;&gt;5 -->
<g id="edge5" class="edge">
<title>2&#45;&gt;5</title>
<path fill="none" stroke="black" d="M170.07,-203.75C192.74,-203.41 233.04,-202.81 260.09,-202.41"/>
<polygon fill="black" stroke="black" points="260.49,-205.91 270.44,-202.26 260.39,-198.91 260.49,-205.91"/>
<text text-anchor="middle" x="206" y="-206.8" font-family="Helvetica,Arial,sans-serif" font-size="14.00">2</text>
</g>
<!-- 4 -->
<g id="node8" class="node">
<title>4</title>
<ellipse fill="none" stroke="black" cx="345.6" cy="-142" rx="18" ry="18"/>
<text text-anchor="middle" x="345.6" y="-138.3" font-family="Helvetica,Arial,sans-serif" font-size="14.00">4</text>
</g>
<!-- 4&#45;&gt;10 -->
<g id="edge6" class="edge">
<title>4&#45;&gt;10</title>
<path fill="none" stroke="black" d="M363.67,-143.46C378.33,-145.11 399.84,-148.45 417.6,-155 431.06,-159.96 444.96,-167.67 456.33,-174.77"/>
<polygon fill="black" stroke="black" points="454.56,-177.79 464.86,-180.27 458.35,-171.9 454.56,-177.79"/>
<text text-anchor="middle" x="399.6" y="-158.8" font-family="Helvetica,Arial,sans-serif" font-size="14.00">2</text>
</g>
<!-- 11 -->
<g id="node9" class="node">
<title>11</title>
<ellipse fill="none" stroke="black" cx="288.8" cy="-28" rx="20.6" ry="20.6"/>
<text text-anchor="middle" x="288.8" y="-24.3" font-family="Helvetica,Arial,sans-serif" font-size="14.00">11</text>
</g>
<!-- 11&#45;&gt;9 -->
<g id="edge10" class="edge">
<title>11&#45;&gt;9</title>
<path fill="none" stroke="black" d="M307.39,-37.53C322.35,-45.64 344.38,-57.58 363.6,-68 367.02,-69.86 370.63,-71.82 374.18,-73.74"/>
<polygon fill="black" stroke="black" points="372.81,-76.98 383.26,-78.67 376.15,-70.83 372.81,-76.98"/>
<text text-anchor="middle" x="345.6" y="-71.8" font-family="Helvetica,Arial,sans-serif" font-size="14.00">1</text>
</g>
<!-- 8 -->
<g id="node10" class="node">
<title>8</title>
<ellipse fill="none" stroke="black" cx="206" cy="-18" rx="18" ry="18"/>
<text text-anchor="middle" x="206" y="-14.3" font-family="Helvetica,Arial,sans-serif" font-size="14.00">8</text>
</g>
<!-- 8&#45;&gt;11 -->
<g id="edge11" class="edge">
<title>8&#45;&gt;11</title>
<path fill="none" stroke="black" d="M224.14,-20.12C233.99,-21.34 246.66,-22.91 258.09,-24.32"/>
<polygon fill="black" stroke="black" points="257.78,-27.81 268.13,-25.57 258.64,-20.86 257.78,-27.81"/>
<text text-anchor="middle" x="246" y="-27.8" font-family="Helvetica,Arial,sans-serif" font-size="14.00">1</text>
</g>
<!-- 3 -->
<g id="node11" class="node">
<title>3</title>
<ellipse fill="none" stroke="black" cx="98" cy="-72" rx="18" ry="18"/>
<text text-anchor="middle" x="98" y="-68.3" font-family="Helvetica,Arial,sans-serif" font-size="14.00">3</text>
</g>
<!-- 3&#45;&gt;6 -->
<g id="edge13" class="edge">
<title>3&#45;&gt;6</title>
<path fill="none" stroke="black" d="M116.09,-73.36C148.93,-75.97 221.11,-81.7 260.62,-84.84"/>
<polygon fill="black" stroke="black" points="260.37,-88.33 270.61,-85.63 260.92,-81.35 260.37,-88.33"/>
<text text-anchor="middle" x="206" y="-85.8" font-family="Helvetica,Arial,sans-serif" font-size="14.00">1</text>
</g>
<!-- 3&#45;&gt;8 -->
<g id="edge12" class="edge">
<title>3&#45;&gt;8</title>
<path fill="none" stroke="black" d="M111.48,-59.8C117.83,-54.11 125.9,-47.59 134,-43 147.86,-35.15 164.63,-29.11 178.38,-24.93"/>
<polygon fill="black" stroke="black" points="179.57,-28.23 188.22,-22.1 177.64,-21.5 179.57,-28.23"/>
<text text-anchor="middle" x="152" y="-46.8" font-family="Helvetica,Arial,sans-serif" font-size="14.00">1</text>
</g>
<!-- 1 -->
<g id="node12" class="node">
<title>1</title>
<ellipse fill="none" stroke="black" cx="206" cy="-143" rx="18" ry="18"/>
<text text-anchor="middle" x="206" y="-139.3" font-family="Helvetica,Arial,sans-serif" font-size="14.00">1</text>
</g>
<!-- 1&#45;&gt;5 -->
<g id="edge15" class="edge">
<title>1&#45;&gt;5</title>
<path fill="none" stroke="black" d="M221.07,-153.28C233.36,-162.24 251.38,-175.41 265.61,-185.8"/>
<polygon fill="black" stroke="black" points="263.75,-188.77 273.89,-191.84 267.87,-183.12 263.75,-188.77"/>
<text text-anchor="middle" x="246" y="-177.8" font-family="Helvetica,Arial,sans-serif" font-size="14.00">0</text>
</g>
<!-- 1&#45;&gt;6 -->
<g id="edge16" class="edge">
<title>1&#45;&gt;6</title>
<path fill="none" stroke="black" d="M217.81,-128.96C224.2,-121.38 232.82,-112.32 242,-106 248,-101.87 255.04,-98.39 261.78,-95.59"/>
<polygon fill="black" stroke="black" points="263.18,-98.8 271.27,-91.96 260.68,-92.26 263.18,-98.8"/>
<text text-anchor="middle" x="246" y="-109.8" font-family="Helvetica,Arial,sans-serif" font-size="14.00">1</text>
</g>
<!-- 1&#45;&gt;4 -->
<g id="edge14" class="edge">
<title>1&#45;&gt;4</title>
<path fill="none" stroke="black" d="M224.15,-142.88C247.43,-142.71 289.29,-142.4 317.02,-142.2"/>
<polygon fill="black" stroke="black" points="317.26,-145.7 327.23,-142.13 317.21,-138.7 317.26,-145.7"/>
<text text-anchor="middle" x="246" y="-146.8" font-family="Helvetica,Arial,sans-serif" font-size="14.00">2</text>
</g>
<!-- 0 -->
<g id="node13" class="node">
<title>0</title>
<ellipse fill="none" stroke="black" cx="18" cy="-143" rx="18" ry="18"/>
<text text-anchor="middle" x="18" y="-139.3" font-family="Helvetica,Arial,sans-serif" font-size="14.00">0</text>
</g>
<!-- 0&#45;&gt;2 -->
<g id="edge17" class="edge">
<title>0&#45;&gt;2</title>
<path fill="none" stroke="black" d="M34.66,-150.24C57.29,-160.69 99.35,-180.13 126.21,-192.55"/>
<polygon fill="black" stroke="black" points="124.81,-195.75 135.36,-196.77 127.75,-189.4 124.81,-195.75"/>
<text text-anchor="middle" x="58" y="-165.8" font-family="Helvetica,Arial,sans-serif" font-size="14.00">2</text>
</g>
<!-- 0&#45;&gt;3 -->
<g id="edge18" class="edge">
<title>0&#45;&gt;3</title>
<path fill="none" stroke="black" d="M31.88,-131.28C43.96,-120.28 62.23,-103.65 76.35,-90.8"/>
<polygon fill="black" stroke="black" points="79.06,-93.06 84.1,-83.74 74.35,-87.88 79.06,-93.06"/>
<text text-anchor="middle" x="58" y="-113.8" font-family="Helvetica,Arial,sans-serif" font-size="14.00">2</text>
</g>
<!-- 0&#45;&gt;1 -->
<g id="edge19" class="edge">
<title>0&#45;&gt;1</title>
<path fill="none" stroke="black" d="M36.17,-143C68.55,-143 138.91,-143 177.8,-143"/>
<polygon fill="black" stroke="black" points="177.88,-146.5 187.88,-143 177.88,-139.5 177.88,-146.5"/>
<text text-anchor="middle" x="98" y="-146.8" font-family="Helvetica,Arial,sans-serif" font-size="14.00">3</text>
</g>
</g>
</svg>
