<?xml version="1.0" encoding="UTF-8" standalone="no"?>
<!DOCTYPE svg PUBLIC "-//W3C//DTD SVG 1.1//EN"
 "http://www.w3.org/Graphics/SVG/1.1/DTD/svg11.dtd">
<!-- Generated by graphviz version 2.43.0 (0)
 -->
<!-- Title: finite_state_machine Pages: 1 -->
<svg width="781pt" height="496pt"
 viewBox="0.00 0.00 780.79 495.86" xmlns="http://www.w3.org/2000/svg" xmlns:xlink="http://www.w3.org/1999/xlink">
<g id="graph0" class="graph" transform="scale(1 1) rotate(0) translate(4 491.86)">
<title>finite_state_machine</title>
<polygon fill="white" stroke="transparent" points="-4,4 -4,-491.86 776.79,-491.86 776.79,4 -4,4"/>
<!-- 7 -->
<g id="node1" class="node">
<title>7</title>
<ellipse fill="none" stroke="black" cx="18" cy="-183.86" rx="18" ry="18"/>
<text text-anchor="middle" x="18" y="-180.16" font-family="Helvetica,Arial,sans-serif" font-size="14.00">7</text>
</g>
<!-- 10 -->
<g id="node2" class="node">
<title>10</title>
<ellipse fill="none" stroke="black" cx="100.8" cy="-183.86" rx="20.6" ry="20.6"/>
<text text-anchor="middle" x="100.8" y="-180.16" font-family="Helvetica,Arial,sans-serif" font-size="14.00">10</text>
</g>
<!-- 7&#45;&gt;10 -->
<g id="edge1" class="edge">
<title>7&#45;&gt;10</title>
<path fill="none" stroke="black" d="M36.14,-183.86C45.82,-183.86 58.22,-183.86 69.5,-183.86"/>
<polygon fill="black" stroke="black" points="69.84,-187.36 79.84,-183.86 69.84,-180.36 69.84,-187.36"/>
<text text-anchor="middle" x="58" y="-187.66" font-family="Helvetica,Arial,sans-serif" font-size="14.00">1</text>
</g>
<!-- 5 -->
<g id="node3" class="node">
<title>5</title>
<ellipse fill="none" stroke="black" cx="186.39" cy="-251.86" rx="18" ry="18"/>
<text text-anchor="middle" x="186.39" y="-248.16" font-family="Helvetica,Arial,sans-serif" font-size="14.00">5</text>
</g>
<!-- 7&#45;&gt;5 -->
<g id="edge2" class="edge">
<title>7&#45;&gt;5</title>
<path fill="none" stroke="black" d="M18.57,-202.06C18.97,-229.27 24.01,-280.33 54,-307.86 84.64,-336 112.88,-330.78 147.6,-307.86 158.91,-300.39 167.72,-288.25 173.97,-277.17"/>
<polygon fill="black" stroke="black" points="177.11,-278.73 178.62,-268.25 170.9,-275.5 177.11,-278.73"/>
<text text-anchor="middle" x="100.8" y="-330.66" font-family="Helvetica,Arial,sans-serif" font-size="14.00">1</text>
</g>
<!-- 12 -->
<g id="node4" class="node">
<title>12</title>
<ellipse fill="none" stroke="black" cx="186.39" cy="-58.86" rx="20.6" ry="20.6"/>
<text text-anchor="middle" x="186.39" y="-55.16" font-family="Helvetica,Arial,sans-serif" font-size="14.00">12</text>
</g>
<!-- 7&#45;&gt;12 -->
<g id="edge3" class="edge">
<title>7&#45;&gt;12</title>
<path fill="none" stroke="black" d="M19.5,-165.71C21.09,-135.19 27.6,-72.55 54,-27.86 61.85,-14.58 65.57,-10.33 80,-4.86 97.29,1.68 104.24,1.5 121.6,-4.86 138.59,-11.09 154.16,-24.06 165.67,-35.73"/>
<polygon fill="black" stroke="black" points="163.22,-38.23 172.62,-43.13 168.32,-33.44 163.22,-38.23"/>
<text text-anchor="middle" x="100.8" y="-8.66" font-family="Helvetica,Arial,sans-serif" font-size="14.00">1</text>
</g>
<!-- 10&#45;&gt;5 -->
<g id="edge14" class="edge">
<title>10&#45;&gt;5</title>
<path fill="none" stroke="black" d="M117.05,-197.58C123.86,-203.6 132.04,-210.69 139.6,-216.86 147.06,-222.96 155.39,-229.43 162.88,-235.12"/>
<polygon fill="black" stroke="black" points="161.09,-238.15 171.18,-241.38 165.3,-232.56 161.09,-238.15"/>
<text text-anchor="middle" x="143.6" y="-225.66" font-family="Helvetica,Arial,sans-serif" font-size="14.00">1</text>
</g>
<!-- 10&#45;&gt;12 -->
<g id="edge16" class="edge">
<title>10&#45;&gt;12</title>
<path fill="none" stroke="black" d="M104.98,-163.43C109.36,-141.29 119.15,-106.03 139.6,-82.86 144.39,-77.44 150.7,-73.05 157.11,-69.58"/>
<polygon fill="black" stroke="black" points="158.87,-72.62 166.39,-65.15 155.85,-66.3 158.87,-72.62"/>
<text text-anchor="middle" x="143.6" y="-86.66" font-family="Helvetica,Arial,sans-serif" font-size="14.00">6</text>
</g>
<!-- 4 -->
<g id="node7" class="node">
<title>4</title>
<ellipse fill="none" stroke="black" cx="509.19" cy="-170.86" rx="18" ry="18"/>
<text text-anchor="middle" x="509.19" y="-167.16" font-family="Helvetica,Arial,sans-serif" font-size="14.00">4</text>
</g>
<!-- 10&#45;&gt;4 -->
<g id="edge15" class="edge">
<title>10&#45;&gt;4</title>
<path fill="none" stroke="black" d="M120.86,-178.09C137.67,-173.51 162.93,-167.86 185.39,-167.86 185.39,-167.86 185.39,-167.86 390.19,-167.86 421.29,-167.86 456.99,-168.92 480.9,-169.78"/>
<polygon fill="black" stroke="black" points="480.88,-173.28 491,-170.15 481.14,-166.28 480.88,-173.28"/>
<text text-anchor="middle" x="309.19" y="-171.66" font-family="Helvetica,Arial,sans-serif" font-size="14.00">2</text>
</g>
<!-- 9 -->
<g id="node9" class="node">
<title>9</title>
<ellipse fill="none" stroke="black" cx="674.79" cy="-402.86" rx="18" ry="18"/>
<text text-anchor="middle" x="674.79" y="-399.16" font-family="Helvetica,Arial,sans-serif" font-size="14.00">9</text>
</g>
<!-- 10&#45;&gt;9 -->
<g id="edge13" class="edge">
<title>10&#45;&gt;9</title>
<path fill="none" stroke="black" d="M113.69,-200.33C116.34,-204.09 119.1,-208.09 121.6,-211.86 141.28,-241.56 137.73,-256.67 165.6,-278.86 287.22,-375.75 340.28,-369.41 491.19,-406.86 554.93,-422.69 574.31,-426.31 638.79,-413.86 641.72,-413.3 644.75,-412.57 647.75,-411.76"/>
<polygon fill="black" stroke="black" points="649.04,-415.03 657.61,-408.8 647.02,-408.32 649.04,-415.03"/>
<text text-anchor="middle" x="389.19" y="-387.66" font-family="Helvetica,Arial,sans-serif" font-size="14.00">2</text>
</g>
<!-- 5&#45;&gt;7 -->
<g id="edge6" class="edge">
<title>5&#45;&gt;7</title>
<path fill="none" stroke="black" d="M168.65,-248.61C159.89,-246.72 149.04,-244.07 139.6,-240.86 100.18,-227.5 91.34,-221.25 54,-202.86 50.51,-201.14 46.86,-199.26 43.29,-197.37"/>
<polygon fill="black" stroke="black" points="44.66,-194.13 34.2,-192.46 41.33,-200.29 44.66,-194.13"/>
<text text-anchor="middle" x="100.8" y="-237.66" font-family="Helvetica,Arial,sans-serif" font-size="14.00">0</text>
</g>
<!-- 5&#45;&gt;10 -->
<g id="edge4" class="edge">
<title>5&#45;&gt;10</title>
<path fill="none" stroke="black" d="M176.91,-236.51C170.19,-225.57 159.91,-211.2 147.6,-201.86 142.63,-198.09 136.76,-195.01 130.92,-192.53"/>
<polygon fill="black" stroke="black" points="131.87,-189.14 121.28,-188.9 129.41,-195.7 131.87,-189.14"/>
<text text-anchor="middle" x="143.6" y="-205.66" font-family="Helvetica,Arial,sans-serif" font-size="14.00">0</text>
</g>
<!-- 2 -->
<g id="node5" class="node">
<title>2</title>
<ellipse fill="none" stroke="black" cx="269.19" cy="-224.86" rx="18" ry="18"/>
<text text-anchor="middle" x="269.19" y="-221.16" font-family="Helvetica,Arial,sans-serif" font-size="14.00">2</text>
</g>
<!-- 5&#45;&gt;2 -->
<g id="edge5" class="edge">
<title>5&#45;&gt;2</title>
<path fill="none" stroke="black" d="M197.51,-237.45C204.27,-229.14 213.97,-219.44 225.19,-214.86 230.83,-212.56 237.11,-212.66 243.09,-213.87"/>
<polygon fill="black" stroke="black" points="242.12,-217.24 252.7,-216.77 244.14,-210.53 242.12,-217.24"/>
<text text-anchor="middle" x="229.19" y="-218.66" font-family="Helvetica,Arial,sans-serif" font-size="14.00">2</text>
</g>
<!-- 12&#45;&gt;7 -->
<g id="edge9" class="edge">
<title>12&#45;&gt;7</title>
<path fill="none" stroke="black" d="M165.89,-62.78C157.45,-64.98 147.68,-68.24 139.6,-72.86 97.89,-96.76 58.72,-137.44 36.9,-162.36"/>
<polygon fill="black" stroke="black" points="34.05,-160.3 30.18,-170.16 39.36,-164.87 34.05,-160.3"/>
<text text-anchor="middle" x="100.8" y="-120.66" font-family="Helvetica,Arial,sans-serif" font-size="14.00">1</text>
</g>
<!-- 12&#45;&gt;10 -->
<g id="edge10" class="edge">
<title>12&#45;&gt;10</title>
<path fill="none" stroke="black" d="M171.71,-73.63C162.13,-84.36 149.34,-99.46 139.6,-113.86 130.5,-127.3 121.8,-143.15 115.04,-156.37"/>
<polygon fill="black" stroke="black" points="111.83,-154.94 110.48,-165.45 118.09,-158.08 111.83,-154.94"/>
<text text-anchor="middle" x="143.6" y="-117.66" font-family="Helvetica,Arial,sans-serif" font-size="14.00">5</text>
</g>
<!-- 2&#45;&gt;5 -->
<g id="edge8" class="edge">
<title>2&#45;&gt;5</title>
<path fill="none" stroke="black" d="M251.87,-230.32C240.81,-234.01 225.97,-238.97 213.31,-243.2"/>
<polygon fill="black" stroke="black" points="212.12,-239.91 203.75,-246.4 214.34,-246.55 212.12,-239.91"/>
<text text-anchor="middle" x="229.19" y="-242.66" font-family="Helvetica,Arial,sans-serif" font-size="14.00">0</text>
</g>
<!-- 0 -->
<g id="node6" class="node">
<title>0</title>
<ellipse fill="none" stroke="black" cx="349.19" cy="-235.86" rx="18" ry="18"/>
<text text-anchor="middle" x="349.19" y="-232.16" font-family="Helvetica,Arial,sans-serif" font-size="14.00">0</text>
</g>
<!-- 2&#45;&gt;0 -->
<g id="edge7" class="edge">
<title>2&#45;&gt;0</title>
<path fill="none" stroke="black" d="M283.61,-213.74C292.02,-208.14 303.14,-203.24 313.19,-206.86 318.76,-208.87 324.07,-212.19 328.79,-215.88"/>
<polygon fill="black" stroke="black" points="326.77,-218.76 336.6,-222.73 331.39,-213.5 326.77,-218.76"/>
<text text-anchor="middle" x="309.19" y="-210.66" font-family="Helvetica,Arial,sans-serif" font-size="14.00">2</text>
</g>
<!-- 0&#45;&gt;2 -->
<g id="edge31" class="edge">
<title>0&#45;&gt;2</title>
<path fill="none" stroke="black" d="M331.3,-233.48C321.39,-232.09 308.64,-230.29 297.35,-228.69"/>
<polygon fill="black" stroke="black" points="297.51,-225.18 287.12,-227.25 296.53,-232.11 297.51,-225.18"/>
<text text-anchor="middle" x="309.19" y="-233.66" font-family="Helvetica,Arial,sans-serif" font-size="14.00">0</text>
</g>
<!-- 1 -->
<g id="node8" class="node">
<title>1</title>
<ellipse fill="none" stroke="black" cx="429.19" cy="-235.86" rx="18" ry="18"/>
<text text-anchor="middle" x="429.19" y="-232.16" font-family="Helvetica,Arial,sans-serif" font-size="14.00">1</text>
</g>
<!-- 0&#45;&gt;1 -->
<g id="edge32" class="edge">
<title>0&#45;&gt;1</title>
<path fill="none" stroke="black" d="M364.5,-226C370.6,-222.37 377.96,-218.7 385.19,-216.86 392.1,-215.11 399.3,-216.76 405.79,-219.71"/>
<polygon fill="black" stroke="black" points="404.24,-222.85 414.67,-224.69 407.66,-216.74 404.24,-222.85"/>
<text text-anchor="middle" x="389.19" y="-220.66" font-family="Helvetica,Arial,sans-serif" font-size="14.00">3</text>
</g>
<!-- 3 -->
<g id="node13" class="node">
<title>3</title>
<ellipse fill="none" stroke="black" cx="429.19" cy="-331.86" rx="18" ry="18"/>
<text text-anchor="middle" x="429.19" y="-328.16" font-family="Helvetica,Arial,sans-serif" font-size="14.00">3</text>
</g>
<!-- 0&#45;&gt;3 -->
<g id="edge30" class="edge">
<title>0&#45;&gt;3</title>
<path fill="none" stroke="black" d="M361.37,-249.62C374.23,-265.44 395.51,-291.63 410.59,-310.2"/>
<polygon fill="black" stroke="black" points="408.02,-312.58 417.04,-318.14 413.45,-308.17 408.02,-312.58"/>
<text text-anchor="middle" x="389.19" y="-289.66" font-family="Helvetica,Arial,sans-serif" font-size="14.00">0</text>
</g>
<!-- 4&#45;&gt;10 -->
<g id="edge12" class="edge">
<title>4&#45;&gt;10</title>
<path fill="none" stroke="black" d="M495.2,-159.01C480.54,-146.9 455.44,-129.86 430.19,-129.86 228.19,-129.86 228.19,-129.86 228.19,-129.86 187.03,-129.86 176.52,-138.66 139.6,-156.86 134.84,-159.21 130.03,-162.14 125.5,-165.19"/>
<polygon fill="black" stroke="black" points="123.35,-162.42 117.26,-171.09 127.43,-168.11 123.35,-162.42"/>
<text text-anchor="middle" x="309.19" y="-133.66" font-family="Helvetica,Arial,sans-serif" font-size="14.00">0</text>
</g>
<!-- 4&#45;&gt;1 -->
<g id="edge11" class="edge">
<title>4&#45;&gt;1</title>
<path fill="none" stroke="black" d="M495.88,-183.14C489.31,-189.52 481,-197.32 473.19,-203.86 466.68,-209.33 459.33,-214.97 452.58,-219.97"/>
<polygon fill="black" stroke="black" points="450.47,-217.17 444.45,-225.89 454.6,-222.83 450.47,-217.17"/>
<text text-anchor="middle" x="469.19" y="-213.66" font-family="Helvetica,Arial,sans-serif" font-size="14.00">2</text>
</g>
<!-- 1&#45;&gt;5 -->
<g id="edge26" class="edge">
<title>1&#45;&gt;5</title>
<path fill="none" stroke="black" d="M413.35,-245.14C401.4,-251.92 383.91,-260.35 367.19,-262.86 313.38,-270.96 249.66,-262.97 214.36,-257.02"/>
<polygon fill="black" stroke="black" points="214.81,-253.54 204.35,-255.26 213.6,-260.44 214.81,-253.54"/>
<text text-anchor="middle" x="309.19" y="-269.66" font-family="Helvetica,Arial,sans-serif" font-size="14.00">2</text>
</g>
<!-- 1&#45;&gt;0 -->
<g id="edge27" class="edge">
<title>1&#45;&gt;0</title>
<path fill="none" stroke="black" d="M410.93,-235.86C401.14,-235.86 388.67,-235.86 377.58,-235.86"/>
<polygon fill="black" stroke="black" points="377.5,-232.36 367.5,-235.86 377.5,-239.36 377.5,-232.36"/>
<text text-anchor="middle" x="389.19" y="-239.66" font-family="Helvetica,Arial,sans-serif" font-size="14.00">2</text>
</g>
<!-- 1&#45;&gt;4 -->
<g id="edge28" class="edge">
<title>1&#45;&gt;4</title>
<path fill="none" stroke="black" d="M437.82,-219.49C443.81,-208.28 453.15,-193.87 465.19,-184.86 469.91,-181.34 475.55,-178.68 481.17,-176.68"/>
<polygon fill="black" stroke="black" points="482.47,-179.94 491.07,-173.74 480.49,-173.23 482.47,-179.94"/>
<text text-anchor="middle" x="469.19" y="-188.66" font-family="Helvetica,Arial,sans-serif" font-size="14.00">0</text>
</g>
<!-- 6 -->
<g id="node10" class="node">
<title>6</title>
<ellipse fill="none" stroke="black" cx="754.79" cy="-331.86" rx="18" ry="18"/>
<text text-anchor="middle" x="754.79" y="-328.16" font-family="Helvetica,Arial,sans-serif" font-size="14.00">6</text>
</g>
<!-- 1&#45;&gt;6 -->
<g id="edge29" class="edge">
<title>1&#45;&gt;6</title>
<path fill="none" stroke="black" d="M447.37,-233.89C491.13,-229.68 609.3,-223.43 692.79,-266.86 711.32,-276.51 727.27,-294.05 738.21,-308.49"/>
<polygon fill="black" stroke="black" points="735.65,-310.92 744.35,-316.97 741.32,-306.82 735.65,-310.92"/>
<text text-anchor="middle" x="591.99" y="-242.66" font-family="Helvetica,Arial,sans-serif" font-size="14.00">1</text>
</g>
<!-- 9&#45;&gt;10 -->
<g id="edge18" class="edge">
<title>9&#45;&gt;10</title>
<path fill="none" stroke="black" d="M665.06,-418.4C652.18,-439.02 626.03,-472.86 592.99,-472.86 185.39,-472.86 185.39,-472.86 185.39,-472.86 65.98,-472.86 171.12,-320.53 121.6,-211.86 121.07,-210.71 120.49,-209.55 119.88,-208.39"/>
<polygon fill="black" stroke="black" points="122.83,-206.51 114.61,-199.82 116.86,-210.17 122.83,-206.51"/>
<text text-anchor="middle" x="389.19" y="-476.66" font-family="Helvetica,Arial,sans-serif" font-size="14.00">3</text>
</g>
<!-- 9&#45;&gt;6 -->
<g id="edge17" class="edge">
<title>9&#45;&gt;6</title>
<path fill="none" stroke="black" d="M692.02,-396.77C700.58,-393.03 710.92,-387.66 718.79,-380.86 726.9,-373.87 734.12,-364.63 739.87,-356.06"/>
<polygon fill="black" stroke="black" points="742.9,-357.81 745.3,-347.49 736.99,-354.06 742.9,-357.81"/>
<text text-anchor="middle" x="714.79" y="-389.66" font-family="Helvetica,Arial,sans-serif" font-size="14.00">2</text>
</g>
<!-- 6&#45;&gt;9 -->
<g id="edge24" class="edge">
<title>6&#45;&gt;9</title>
<path fill="none" stroke="black" d="M738.76,-340.99C730.17,-346.54 719.42,-354.04 710.79,-361.86 704.45,-367.61 698.18,-374.48 692.73,-380.94"/>
<polygon fill="black" stroke="black" points="689.94,-378.82 686.33,-388.79 695.36,-383.25 689.94,-378.82"/>
<text text-anchor="middle" x="714.79" y="-365.66" font-family="Helvetica,Arial,sans-serif" font-size="14.00">0</text>
</g>
<!-- 6&#45;&gt;3 -->
<g id="edge25" class="edge">
<title>6&#45;&gt;3</title>
<path fill="none" stroke="black" d="M742.61,-318.47C728.67,-303.35 703.29,-280.86 675.79,-280.86 508.19,-280.86 508.19,-280.86 508.19,-280.86 484.99,-280.86 463.3,-296.88 448.71,-310.96"/>
<polygon fill="black" stroke="black" points="445.86,-308.87 441.37,-318.47 450.87,-313.76 445.86,-308.87"/>
<text text-anchor="middle" x="591.99" y="-284.66" font-family="Helvetica,Arial,sans-serif" font-size="14.00">1</text>
</g>
<!-- 11 -->
<g id="node11" class="node">
<title>11</title>
<ellipse fill="none" stroke="black" cx="591.99" cy="-385.86" rx="20.6" ry="20.6"/>
<text text-anchor="middle" x="591.99" y="-382.16" font-family="Helvetica,Arial,sans-serif" font-size="14.00">11</text>
</g>
<!-- 11&#45;&gt;9 -->
<g id="edge19" class="edge">
<title>11&#45;&gt;9</title>
<path fill="none" stroke="black" d="M612.55,-389.98C622.81,-392.14 635.55,-394.82 646.74,-397.17"/>
<polygon fill="black" stroke="black" points="646.37,-400.67 656.87,-399.31 647.81,-393.82 646.37,-400.67"/>
<text text-anchor="middle" x="634.79" y="-398.66" font-family="Helvetica,Arial,sans-serif" font-size="14.00">1</text>
</g>
<!-- 8 -->
<g id="node12" class="node">
<title>8</title>
<ellipse fill="none" stroke="black" cx="509.19" cy="-379.86" rx="18" ry="18"/>
<text text-anchor="middle" x="509.19" y="-376.16" font-family="Helvetica,Arial,sans-serif" font-size="14.00">8</text>
</g>
<!-- 8&#45;&gt;11 -->
<g id="edge20" class="edge">
<title>8&#45;&gt;11</title>
<path fill="none" stroke="black" d="M527.33,-381.14C537.12,-381.86 549.67,-382.8 561.04,-383.64"/>
<polygon fill="black" stroke="black" points="560.8,-387.13 571.03,-384.38 561.32,-380.15 560.8,-387.13"/>
<text text-anchor="middle" x="549.19" y="-386.66" font-family="Helvetica,Arial,sans-serif" font-size="14.00">1</text>
</g>
<!-- 3&#45;&gt;0 -->
<g id="edge21" class="edge">
<title>3&#45;&gt;0</title>
<path fill="none" stroke="black" d="M411.27,-335.68C402.72,-336.64 392.6,-336.16 385.19,-330.86 363.93,-315.67 355.56,-286.08 352.28,-263.95"/>
<polygon fill="black" stroke="black" points="355.72,-263.28 351.04,-253.77 348.78,-264.12 355.72,-263.28"/>
<text text-anchor="middle" x="389.19" y="-337.66" font-family="Helvetica,Arial,sans-serif" font-size="14.00">2</text>
</g>
<!-- 3&#45;&gt;6 -->
<g id="edge22" class="edge">
<title>3&#45;&gt;6</title>
<path fill="none" stroke="black" d="M447.23,-331.86C463.04,-331.86 487.2,-331.86 508.19,-331.86 508.19,-331.86 508.19,-331.86 675.79,-331.86 692.68,-331.86 711.63,-331.86 726.62,-331.86"/>
<polygon fill="black" stroke="black" points="726.75,-335.36 736.75,-331.86 726.75,-328.36 726.75,-335.36"/>
<text text-anchor="middle" x="591.99" y="-335.66" font-family="Helvetica,Arial,sans-serif" font-size="14.00">0</text>
</g>
<!-- 3&#45;&gt;8 -->
<g id="edge23" class="edge">
<title>3&#45;&gt;8</title>
<path fill="none" stroke="black" d="M444.86,-340.89C456.09,-347.8 471.78,-357.46 484.74,-365.43"/>
<polygon fill="black" stroke="black" points="483.24,-368.62 493.59,-370.88 486.9,-362.65 483.24,-368.62"/>
<text text-anchor="middle" x="469.19" y="-360.66" font-family="Helvetica,Arial,sans-serif" font-size="14.00">1</text>
</g>
</g>
</svg>
