<?xml version="1.0" encoding="UTF-8" standalone="no"?>
<!DOCTYPE svg PUBLIC "-//W3C//DTD SVG 1.1//EN"
 "http://www.w3.org/Graphics/SVG/1.1/DTD/svg11.dtd">
<!-- Generated by graphviz version 2.43.0 (0)
 -->
<!-- Title: finite_state_machine Pages: 1 -->
<svg width="579pt" height="270pt"
 viewBox="0.00 0.00 578.79 269.80" xmlns="http://www.w3.org/2000/svg" xmlns:xlink="http://www.w3.org/1999/xlink">
<g id="graph0" class="graph" transform="scale(1 1) rotate(0) translate(4 265.8)">
<title>finite_state_machine</title>
<polygon fill="white" stroke="transparent" points="-4,4 -4,-265.8 574.79,-265.8 574.79,4 -4,4"/>
<!-- 7 -->
<g id="node1" class="node">
<title>7</title>
<ellipse fill="none" stroke="black" cx="298.8" cy="-166.8" rx="18" ry="18"/>
<text text-anchor="middle" x="298.8" y="-163.1" font-family="Helvetica,Arial,sans-serif" font-size="14.00">7</text>
</g>
<!-- 10 -->
<g id="node2" class="node">
<title>10</title>
<ellipse fill="none" stroke="black" cx="464.39" cy="-160.8" rx="20.6" ry="20.6"/>
<text text-anchor="middle" x="464.39" y="-157.1" font-family="Helvetica,Arial,sans-serif" font-size="14.00">10</text>
</g>
<!-- 7&#45;&gt;10 -->
<g id="edge1" class="edge">
<title>7&#45;&gt;10</title>
<path fill="none" stroke="black" d="M317,-166.17C344.53,-165.16 398.89,-163.16 433.06,-161.91"/>
<polygon fill="black" stroke="black" points="433.52,-165.4 443.39,-161.53 433.27,-158.4 433.52,-165.4"/>
<text text-anchor="middle" x="381.6" y="-167.6" font-family="Helvetica,Arial,sans-serif" font-size="14.00">1</text>
</g>
<!-- 12 -->
<g id="node3" class="node">
<title>12</title>
<ellipse fill="none" stroke="black" cx="549.99" cy="-185.8" rx="20.6" ry="20.6"/>
<text text-anchor="middle" x="549.99" y="-182.1" font-family="Helvetica,Arial,sans-serif" font-size="14.00">12</text>
</g>
<!-- 7&#45;&gt;12 -->
<g id="edge2" class="edge">
<title>7&#45;&gt;12</title>
<path fill="none" stroke="black" d="M316.2,-172.62C322.79,-174.79 330.49,-177.13 337.6,-178.8 409.51,-195.64 429.34,-191.56 503.19,-192.8 506.75,-192.86 507.65,-193.12 511.19,-192.8 513.9,-192.55 516.71,-192.2 519.51,-191.79"/>
<polygon fill="black" stroke="black" points="520.19,-195.23 529.47,-190.12 519.03,-188.33 520.19,-195.23"/>
<text text-anchor="middle" x="421.6" y="-195.6" font-family="Helvetica,Arial,sans-serif" font-size="14.00">2</text>
</g>
<!-- 10&#45;&gt;12 -->
<g id="edge11" class="edge">
<title>10&#45;&gt;12</title>
<path fill="none" stroke="black" d="M484.78,-166.6C495.23,-169.72 508.32,-173.64 519.96,-177.12"/>
<polygon fill="black" stroke="black" points="519.12,-180.52 529.71,-180.03 521.13,-173.81 519.12,-180.52"/>
<text text-anchor="middle" x="507.19" y="-177.6" font-family="Helvetica,Arial,sans-serif" font-size="14.00">6</text>
</g>
<!-- 5 -->
<g id="node4" class="node">
<title>5</title>
<ellipse fill="none" stroke="black" cx="188" cy="-159.8" rx="18" ry="18"/>
<text text-anchor="middle" x="188" y="-156.1" font-family="Helvetica,Arial,sans-serif" font-size="14.00">5</text>
</g>
<!-- 5&#45;&gt;7 -->
<g id="edge3" class="edge">
<title>5&#45;&gt;7</title>
<path fill="none" stroke="black" d="M206,-160.89C223.22,-162 250.14,-163.73 270.39,-165.03"/>
<polygon fill="black" stroke="black" points="270.35,-168.54 280.56,-165.69 270.8,-161.55 270.35,-168.54"/>
<text text-anchor="middle" x="242" y="-167.6" font-family="Helvetica,Arial,sans-serif" font-size="14.00">1</text>
</g>
<!-- 5&#45;&gt;10 -->
<g id="edge4" class="edge">
<title>5&#45;&gt;10</title>
<path fill="none" stroke="black" d="M205.55,-154.92C223.28,-149.98 252.34,-142.65 278,-139.8 333.23,-133.67 397.7,-145.19 434.22,-153.45"/>
<polygon fill="black" stroke="black" points="433.65,-156.91 444.18,-155.78 435.24,-150.1 433.65,-156.91"/>
<text text-anchor="middle" x="341.6" y="-142.6" font-family="Helvetica,Arial,sans-serif" font-size="14.00">1</text>
</g>
<!-- 9 -->
<g id="node5" class="node">
<title>9</title>
<ellipse fill="none" stroke="black" cx="381.6" cy="-74.8" rx="18" ry="18"/>
<text text-anchor="middle" x="381.6" y="-71.1" font-family="Helvetica,Arial,sans-serif" font-size="14.00">9</text>
</g>
<!-- 9&#45;&gt;10 -->
<g id="edge5" class="edge">
<title>9&#45;&gt;10</title>
<path fill="none" stroke="black" d="M399.57,-78.57C408.14,-81.15 418.25,-85.32 425.6,-91.8 437.71,-102.49 446.7,-118.03 452.87,-131.66"/>
<polygon fill="black" stroke="black" points="449.75,-133.29 456.86,-141.15 456.21,-130.57 449.75,-133.29"/>
<text text-anchor="middle" x="421.6" y="-95.6" font-family="Helvetica,Arial,sans-serif" font-size="14.00">4</text>
</g>
<!-- 11 -->
<g id="node6" class="node">
<title>11</title>
<ellipse fill="none" stroke="black" cx="298.8" cy="-20.8" rx="20.6" ry="20.6"/>
<text text-anchor="middle" x="298.8" y="-17.1" font-family="Helvetica,Arial,sans-serif" font-size="14.00">11</text>
</g>
<!-- 11&#45;&gt;9 -->
<g id="edge6" class="edge">
<title>11&#45;&gt;9</title>
<path fill="none" stroke="black" d="M317.43,-31.07C326.04,-36.22 336.48,-42.65 345.6,-48.8 349.84,-51.67 354.29,-54.83 358.54,-57.94"/>
<polygon fill="black" stroke="black" points="356.73,-60.96 366.84,-64.13 360.91,-55.35 356.73,-60.96"/>
<text text-anchor="middle" x="341.6" y="-52.6" font-family="Helvetica,Arial,sans-serif" font-size="14.00">2</text>
</g>
<!-- 8 -->
<g id="node7" class="node">
<title>8</title>
<ellipse fill="none" stroke="black" cx="188" cy="-21.8" rx="18" ry="18"/>
<text text-anchor="middle" x="188" y="-18.1" font-family="Helvetica,Arial,sans-serif" font-size="14.00">8</text>
</g>
<!-- 8&#45;&gt;11 -->
<g id="edge7" class="edge">
<title>8&#45;&gt;11</title>
<path fill="none" stroke="black" d="M206,-21.64C222.51,-21.49 247.94,-21.26 267.85,-21.07"/>
<polygon fill="black" stroke="black" points="268,-24.57 277.97,-20.98 267.94,-17.57 268,-24.57"/>
<text text-anchor="middle" x="242" y="-25.6" font-family="Helvetica,Arial,sans-serif" font-size="14.00">2</text>
</g>
<!-- 6 -->
<g id="node8" class="node">
<title>6</title>
<ellipse fill="none" stroke="black" cx="188" cy="-77.8" rx="18" ry="18"/>
<text text-anchor="middle" x="188" y="-74.1" font-family="Helvetica,Arial,sans-serif" font-size="14.00">6</text>
</g>
<!-- 6&#45;&gt;9 -->
<g id="edge8" class="edge">
<title>6&#45;&gt;9</title>
<path fill="none" stroke="black" d="M206,-77.53C239.22,-77.01 313.01,-75.86 353.2,-75.23"/>
<polygon fill="black" stroke="black" points="353.41,-78.72 363.36,-75.07 353.3,-71.73 353.41,-78.72"/>
<text text-anchor="middle" x="298.8" y="-79.6" font-family="Helvetica,Arial,sans-serif" font-size="14.00">2</text>
</g>
<!-- 3 -->
<g id="node9" class="node">
<title>3</title>
<ellipse fill="none" stroke="black" cx="103" cy="-48.8" rx="18" ry="18"/>
<text text-anchor="middle" x="103" y="-45.1" font-family="Helvetica,Arial,sans-serif" font-size="14.00">3</text>
</g>
<!-- 3&#45;&gt;8 -->
<g id="edge9" class="edge">
<title>3&#45;&gt;8</title>
<path fill="none" stroke="black" d="M116.5,-36.53C122.73,-31.25 130.69,-25.64 139,-22.8 145.52,-20.57 152.84,-19.67 159.75,-19.48"/>
<polygon fill="black" stroke="black" points="160.06,-22.99 170.12,-19.68 160.19,-15.99 160.06,-22.99"/>
<text text-anchor="middle" x="145.5" y="-26.6" font-family="Helvetica,Arial,sans-serif" font-size="14.00">2</text>
</g>
<!-- 3&#45;&gt;6 -->
<g id="edge10" class="edge">
<title>3&#45;&gt;6</title>
<path fill="none" stroke="black" d="M121.14,-52.18C130.41,-54.23 141.99,-57.16 152,-60.8 155.4,-62.04 158.92,-63.5 162.35,-65.04"/>
<polygon fill="black" stroke="black" points="161.09,-68.32 171.62,-69.47 164.11,-62 161.09,-68.32"/>
<text text-anchor="middle" x="145.5" y="-64.6" font-family="Helvetica,Arial,sans-serif" font-size="14.00">2</text>
</g>
<!-- 2 -->
<g id="node10" class="node">
<title>2</title>
<ellipse fill="none" stroke="black" cx="103" cy="-102.8" rx="18" ry="18"/>
<text text-anchor="middle" x="103" y="-99.1" font-family="Helvetica,Arial,sans-serif" font-size="14.00">2</text>
</g>
<!-- 2&#45;&gt;5 -->
<g id="edge12" class="edge">
<title>2&#45;&gt;5</title>
<path fill="none" stroke="black" d="M120.15,-97C129.98,-94.5 142.45,-93.27 152,-98.8 164.88,-106.26 173.43,-120.45 178.86,-133.27"/>
<polygon fill="black" stroke="black" points="175.6,-134.55 182.41,-142.67 182.15,-132.08 175.6,-134.55"/>
<text text-anchor="middle" x="145.5" y="-102.6" font-family="Helvetica,Arial,sans-serif" font-size="14.00">2</text>
</g>
<!-- 4 -->
<g id="node11" class="node">
<title>4</title>
<ellipse fill="none" stroke="black" cx="242" cy="-229.8" rx="18" ry="18"/>
<text text-anchor="middle" x="242" y="-226.1" font-family="Helvetica,Arial,sans-serif" font-size="14.00">4</text>
</g>
<!-- 4&#45;&gt;10 -->
<g id="edge13" class="edge">
<title>4&#45;&gt;10</title>
<path fill="none" stroke="black" d="M259.32,-234.8C293.1,-244.14 371.99,-260.53 425.6,-228.8 439.76,-220.41 449.01,-204.6 454.81,-190.33"/>
<polygon fill="black" stroke="black" points="458.14,-191.4 458.29,-180.81 451.57,-189 458.14,-191.4"/>
<text text-anchor="middle" x="341.6" y="-250.6" font-family="Helvetica,Arial,sans-serif" font-size="14.00">2</text>
</g>
<!-- 1 -->
<g id="node12" class="node">
<title>1</title>
<ellipse fill="none" stroke="black" cx="103" cy="-167.8" rx="18" ry="18"/>
<text text-anchor="middle" x="103" y="-164.1" font-family="Helvetica,Arial,sans-serif" font-size="14.00">1</text>
</g>
<!-- 1&#45;&gt;5 -->
<g id="edge16" class="edge">
<title>1&#45;&gt;5</title>
<path fill="none" stroke="black" d="M121.2,-166.14C132.33,-165.07 147.06,-163.65 159.76,-162.42"/>
<polygon fill="black" stroke="black" points="160.21,-165.9 169.82,-161.45 159.53,-158.93 160.21,-165.9"/>
<text text-anchor="middle" x="145.5" y="-167.6" font-family="Helvetica,Arial,sans-serif" font-size="14.00">&#45;3</text>
</g>
<!-- 1&#45;&gt;6 -->
<g id="edge14" class="edge">
<title>1&#45;&gt;6</title>
<path fill="none" stroke="black" d="M115.89,-154.9C129.57,-140.07 152.22,-115.51 168.27,-98.1"/>
<polygon fill="black" stroke="black" points="170.92,-100.39 175.13,-90.67 165.78,-95.65 170.92,-100.39"/>
<text text-anchor="middle" x="145.5" y="-131.6" font-family="Helvetica,Arial,sans-serif" font-size="14.00">2</text>
</g>
<!-- 1&#45;&gt;4 -->
<g id="edge15" class="edge">
<title>1&#45;&gt;4</title>
<path fill="none" stroke="black" d="M119.72,-174.91C143.23,-185.55 187.8,-205.72 215.87,-218.42"/>
<polygon fill="black" stroke="black" points="214.49,-221.64 225.05,-222.58 217.38,-215.27 214.49,-221.64"/>
<text text-anchor="middle" x="145.5" y="-191.6" font-family="Helvetica,Arial,sans-serif" font-size="14.00">2</text>
</g>
<!-- 0 -->
<g id="node13" class="node">
<title>0</title>
<ellipse fill="none" stroke="black" cx="18" cy="-102.8" rx="18" ry="18"/>
<text text-anchor="middle" x="18" y="-99.1" font-family="Helvetica,Arial,sans-serif" font-size="14.00">0</text>
</g>
<!-- 0&#45;&gt;3 -->
<g id="edge18" class="edge">
<title>0&#45;&gt;3</title>
<path fill="none" stroke="black" d="M33.46,-93.39C46,-85.23 64.37,-73.28 78.94,-63.8"/>
<polygon fill="black" stroke="black" points="80.96,-66.66 87.43,-58.28 77.14,-60.8 80.96,-66.66"/>
<text text-anchor="middle" x="60.5" y="-82.6" font-family="Helvetica,Arial,sans-serif" font-size="14.00">2</text>
</g>
<!-- 0&#45;&gt;2 -->
<g id="edge17" class="edge">
<title>0&#45;&gt;2</title>
<path fill="none" stroke="black" d="M36.2,-102.8C47.33,-102.8 62.06,-102.8 74.76,-102.8"/>
<polygon fill="black" stroke="black" points="74.82,-106.3 84.82,-102.8 74.82,-99.3 74.82,-106.3"/>
<text text-anchor="middle" x="60.5" y="-106.6" font-family="Helvetica,Arial,sans-serif" font-size="14.00">2</text>
</g>
<!-- 0&#45;&gt;1 -->
<g id="edge19" class="edge">
<title>0&#45;&gt;1</title>
<path fill="none" stroke="black" d="M32.71,-113.53C45.56,-123.6 65,-138.82 80.02,-150.59"/>
<polygon fill="black" stroke="black" points="78.24,-153.64 88.27,-157.05 82.56,-148.13 78.24,-153.64"/>
<text text-anchor="middle" x="60.5" y="-142.6" font-family="Helvetica,Arial,sans-serif" font-size="14.00">&#45;1</text>
</g>
</g>
</svg>
