<?xml version="1.0" encoding="UTF-8" standalone="no"?>
<!DOCTYPE svg PUBLIC "-//W3C//DTD SVG 1.1//EN"
 "http://www.w3.org/Graphics/SVG/1.1/DTD/svg11.dtd">
<!-- Generated by graphviz version 2.43.0 (0)
 -->
<!-- Title: finite_state_machine Pages: 1 -->
<svg width="413pt" height="155pt"
 viewBox="0.00 0.00 413.00 155.00" xmlns="http://www.w3.org/2000/svg" xmlns:xlink="http://www.w3.org/1999/xlink">
<g id="graph0" class="graph" transform="scale(1 1) rotate(0) translate(4 151)">
<title>finite_state_machine</title>
<polygon fill="white" stroke="transparent" points="-4,4 -4,-151 409,-151 409,4 -4,4"/>
<!-- 4 -->
<g id="node1" class="node">
<title>4</title>
<ellipse fill="none" stroke="black" cx="299" cy="-77" rx="18" ry="18"/>
<text text-anchor="middle" x="299" y="-73.3" font-family="Helvetica,Arial,sans-serif" font-size="14.00">4</text>
</g>
<!-- 5 -->
<g id="node2" class="node">
<title>5</title>
<ellipse fill="none" stroke="black" cx="387" cy="-108" rx="18" ry="18"/>
<text text-anchor="middle" x="387" y="-104.3" font-family="Helvetica,Arial,sans-serif" font-size="14.00">5</text>
</g>
<!-- 4&#45;&gt;5 -->
<g id="edge1" class="edge">
<title>4&#45;&gt;5</title>
<path fill="none" stroke="black" d="M316.18,-82.83C328.55,-87.29 345.85,-93.53 360.14,-98.68"/>
<polygon fill="black" stroke="black" points="359.3,-102.1 369.9,-102.2 361.68,-95.51 359.3,-102.1"/>
<text text-anchor="middle" x="343" y="-98.8" font-family="Helvetica,Arial,sans-serif" font-size="14.00">14</text>
</g>
<!-- 1 -->
<g id="node3" class="node">
<title>1</title>
<ellipse fill="none" stroke="black" cx="202.5" cy="-129" rx="18" ry="18"/>
<text text-anchor="middle" x="202.5" y="-125.3" font-family="Helvetica,Arial,sans-serif" font-size="14.00">1</text>
</g>
<!-- 1&#45;&gt;4 -->
<g id="edge3" class="edge">
<title>1&#45;&gt;4</title>
<path fill="none" stroke="black" d="M218.68,-120.65C233.56,-112.46 256.47,-99.85 273.85,-90.29"/>
<polygon fill="black" stroke="black" points="275.78,-93.22 282.85,-85.33 272.41,-87.09 275.78,-93.22"/>
<text text-anchor="middle" x="255" y="-107.8" font-family="Helvetica,Arial,sans-serif" font-size="14.00">1</text>
</g>
<!-- 1&#45;&gt;5 -->
<g id="edge2" class="edge">
<title>1&#45;&gt;5</title>
<path fill="none" stroke="black" d="M220.8,-127.63C248.41,-125.35 304.07,-120.4 351,-114 353.57,-113.65 356.23,-113.25 358.9,-112.83"/>
<polygon fill="black" stroke="black" points="359.66,-116.26 368.95,-111.16 358.51,-109.35 359.66,-116.26"/>
<text text-anchor="middle" x="299" y="-125.8" font-family="Helvetica,Arial,sans-serif" font-size="14.00">21</text>
</g>
<!-- 2 -->
<g id="node4" class="node">
<title>2</title>
<ellipse fill="none" stroke="black" cx="202.5" cy="-18" rx="18" ry="18"/>
<text text-anchor="middle" x="202.5" y="-14.3" font-family="Helvetica,Arial,sans-serif" font-size="14.00">2</text>
</g>
<!-- 2&#45;&gt;4 -->
<g id="edge4" class="edge">
<title>2&#45;&gt;4</title>
<path fill="none" stroke="black" d="M219.97,-23.06C232.4,-27.3 249.54,-34.1 263,-43 268.75,-46.8 274.38,-51.62 279.39,-56.43"/>
<polygon fill="black" stroke="black" points="277.16,-59.16 286.67,-63.83 282.15,-54.24 277.16,-59.16"/>
<text text-anchor="middle" x="255" y="-46.8" font-family="Helvetica,Arial,sans-serif" font-size="14.00">12</text>
</g>
<!-- 0 -->
<g id="node5" class="node">
<title>0</title>
<ellipse fill="none" stroke="black" cx="18" cy="-72" rx="18" ry="18"/>
<text text-anchor="middle" x="18" y="-68.3" font-family="Helvetica,Arial,sans-serif" font-size="14.00">0</text>
</g>
<!-- 0&#45;&gt;1 -->
<g id="edge5" class="edge">
<title>0&#45;&gt;1</title>
<path fill="none" stroke="black" d="M34.05,-80.9C40.13,-84.3 47.29,-88.06 54,-91 91.85,-107.58 101.78,-111.54 142,-121 152.47,-123.46 164.16,-125.24 174.39,-126.48"/>
<polygon fill="black" stroke="black" points="174.09,-129.97 184.41,-127.59 174.86,-123.01 174.09,-129.97"/>
<text text-anchor="middle" x="106" y="-119.8" font-family="Helvetica,Arial,sans-serif" font-size="14.00">7</text>
</g>
<!-- 0&#45;&gt;2 -->
<g id="edge7" class="edge">
<title>0&#45;&gt;2</title>
<path fill="none" stroke="black" d="M32.62,-61.18C45.92,-51.25 67.14,-37.05 88,-30 116.36,-20.41 150.77,-17.96 174.22,-17.56"/>
<polygon fill="black" stroke="black" points="174.49,-21.06 184.47,-17.51 174.45,-14.06 174.49,-21.06"/>
<text text-anchor="middle" x="106" y="-33.8" font-family="Helvetica,Arial,sans-serif" font-size="14.00">8</text>
</g>
<!-- 3 -->
<g id="node6" class="node">
<title>3</title>
<ellipse fill="none" stroke="black" cx="106" cy="-72" rx="18" ry="18"/>
<text text-anchor="middle" x="106" y="-68.3" font-family="Helvetica,Arial,sans-serif" font-size="14.00">3</text>
</g>
<!-- 0&#45;&gt;3 -->
<g id="edge6" class="edge">
<title>0&#45;&gt;3</title>
<path fill="none" stroke="black" d="M36.4,-72C48.25,-72 64.18,-72 77.71,-72"/>
<polygon fill="black" stroke="black" points="77.92,-75.5 87.92,-72 77.92,-68.5 77.92,-75.5"/>
<text text-anchor="middle" x="62" y="-75.8" font-family="Helvetica,Arial,sans-serif" font-size="14.00">10</text>
</g>
<!-- 3&#45;&gt;4 -->
<g id="edge10" class="edge">
<title>3&#45;&gt;4</title>
<path fill="none" stroke="black" d="M124.29,-72.45C157.6,-73.32 230.9,-75.24 270.81,-76.29"/>
<polygon fill="black" stroke="black" points="270.8,-79.79 280.89,-76.55 270.98,-72.79 270.8,-79.79"/>
<text text-anchor="middle" x="202.5" y="-78.8" font-family="Helvetica,Arial,sans-serif" font-size="14.00">1000005</text>
</g>
<!-- 3&#45;&gt;1 -->
<g id="edge8" class="edge">
<title>3&#45;&gt;1</title>
<path fill="none" stroke="black" d="M121.77,-80.91C136.8,-89.97 160.32,-104.16 177.93,-114.79"/>
<polygon fill="black" stroke="black" points="176.16,-117.8 186.53,-119.97 179.77,-111.81 176.16,-117.8"/>
<text text-anchor="middle" x="150" y="-105.8" font-family="Helvetica,Arial,sans-serif" font-size="14.00">11</text>
</g>
<!-- 3&#45;&gt;2 -->
<g id="edge9" class="edge">
<title>3&#45;&gt;2</title>
<path fill="none" stroke="black" d="M119.6,-60.01C125.98,-54.36 134.04,-47.83 142,-43 152.46,-36.66 164.81,-31.19 175.54,-26.99"/>
<polygon fill="black" stroke="black" points="177.08,-30.15 185.22,-23.37 174.63,-23.59 177.08,-30.15"/>
<text text-anchor="middle" x="150" y="-46.8" font-family="Helvetica,Arial,sans-serif" font-size="14.00">2</text>
</g>
</g>
</svg>
