<?xml version="1.0" encoding="UTF-8" standalone="no"?>
<!DOCTYPE svg PUBLIC "-//W3C//DTD SVG 1.1//EN"
 "http://www.w3.org/Graphics/SVG/1.1/DTD/svg11.dtd">
<!-- Generated by graphviz version 2.43.0 (0)
 -->
<!-- Title: finite_state_machine Pages: 1 -->
<svg width="941pt" height="590pt"
 viewBox="0.00 0.00 940.79 589.86" xmlns="http://www.w3.org/2000/svg" xmlns:xlink="http://www.w3.org/1999/xlink">
<g id="graph0" class="graph" transform="scale(1 1) rotate(0) translate(4 585.86)">
<title>finite_state_machine</title>
<polygon fill="white" stroke="transparent" points="-4,4 -4,-585.86 936.79,-585.86 936.79,4 -4,4"/>
<!-- 7 -->
<g id="node1" class="node">
<title>7</title>
<ellipse fill="none" stroke="black" cx="18" cy="-183.86" rx="18" ry="18"/>
<text text-anchor="middle" x="18" y="-180.16" font-family="Helvetica,Arial,sans-serif" font-size="14.00">7</text>
</g>
<!-- 10 -->
<g id="node2" class="node">
<title>10</title>
<ellipse fill="none" stroke="black" cx="100.8" cy="-183.86" rx="20.6" ry="20.6"/>
<text text-anchor="middle" x="100.8" y="-180.16" font-family="Helvetica,Arial,sans-serif" font-size="14.00">10</text>
</g>
<!-- 7&#45;&gt;10 -->
<g id="edge1" class="edge">
<title>7&#45;&gt;10</title>
<path fill="none" stroke="black" d="M36.14,-183.86C45.82,-183.86 58.22,-183.86 69.5,-183.86"/>
<polygon fill="black" stroke="black" points="69.84,-187.36 79.84,-183.86 69.84,-180.36 69.84,-187.36"/>
<text text-anchor="middle" x="58" y="-187.66" font-family="Helvetica,Arial,sans-serif" font-size="14.00">1</text>
</g>
<!-- 5 -->
<g id="node3" class="node">
<title>5</title>
<ellipse fill="none" stroke="black" cx="186.39" cy="-268.86" rx="18" ry="18"/>
<text text-anchor="middle" x="186.39" y="-265.16" font-family="Helvetica,Arial,sans-serif" font-size="14.00">5</text>
</g>
<!-- 7&#45;&gt;5 -->
<g id="edge2" class="edge">
<title>7&#45;&gt;5</title>
<path fill="none" stroke="black" d="M34.31,-192.23C40.42,-195.56 47.54,-199.41 54,-202.86 91.91,-223.12 101.03,-228.9 139.6,-247.86 146.24,-251.13 153.5,-254.53 160.24,-257.63"/>
<polygon fill="black" stroke="black" points="159.06,-260.93 169.61,-261.88 161.95,-254.56 159.06,-260.93"/>
<text text-anchor="middle" x="100.8" y="-241.66" font-family="Helvetica,Arial,sans-serif" font-size="14.00">1</text>
</g>
<!-- 12 -->
<g id="node4" class="node">
<title>12</title>
<ellipse fill="none" stroke="black" cx="186.39" cy="-58.86" rx="20.6" ry="20.6"/>
<text text-anchor="middle" x="186.39" y="-55.16" font-family="Helvetica,Arial,sans-serif" font-size="14.00">12</text>
</g>
<!-- 7&#45;&gt;12 -->
<g id="edge3" class="edge">
<title>7&#45;&gt;12</title>
<path fill="none" stroke="black" d="M19.5,-165.71C21.09,-135.19 27.6,-72.55 54,-27.86 61.85,-14.58 65.57,-10.33 80,-4.86 97.29,1.68 104.24,1.5 121.6,-4.86 138.59,-11.09 154.16,-24.06 165.67,-35.73"/>
<polygon fill="black" stroke="black" points="163.22,-38.23 172.62,-43.13 168.32,-33.44 163.22,-38.23"/>
<text text-anchor="middle" x="100.8" y="-8.66" font-family="Helvetica,Arial,sans-serif" font-size="14.00">1</text>
</g>
<!-- 10&#45;&gt;5 -->
<g id="edge13" class="edge">
<title>10&#45;&gt;5</title>
<path fill="none" stroke="black" d="M115.98,-198.28C129.62,-212.16 150.38,-233.26 165.64,-248.78"/>
<polygon fill="black" stroke="black" points="163.55,-251.64 173.05,-256.32 168.54,-246.73 163.55,-251.64"/>
<text text-anchor="middle" x="143.6" y="-232.66" font-family="Helvetica,Arial,sans-serif" font-size="14.00">1</text>
</g>
<!-- 10&#45;&gt;12 -->
<g id="edge16" class="edge">
<title>10&#45;&gt;12</title>
<path fill="none" stroke="black" d="M104.98,-163.43C109.36,-141.29 119.15,-106.03 139.6,-82.86 144.39,-77.44 150.7,-73.05 157.11,-69.58"/>
<polygon fill="black" stroke="black" points="158.87,-72.62 166.39,-65.15 155.85,-66.3 158.87,-72.62"/>
<text text-anchor="middle" x="143.6" y="-86.66" font-family="Helvetica,Arial,sans-serif" font-size="14.00">0</text>
</g>
<!-- 4 -->
<g id="node7" class="node">
<title>4</title>
<ellipse fill="none" stroke="black" cx="914.79" cy="-496.86" rx="18" ry="18"/>
<text text-anchor="middle" x="914.79" y="-493.16" font-family="Helvetica,Arial,sans-serif" font-size="14.00">4</text>
</g>
<!-- 10&#45;&gt;4 -->
<g id="edge14" class="edge">
<title>10&#45;&gt;4</title>
<path fill="none" stroke="black" d="M114.72,-199.61C117.45,-203.7 119.99,-208.26 121.6,-212.86 157.22,-314.66 116.84,-349.44 139.6,-454.86 150.95,-507.43 131.62,-566.86 185.39,-566.86 185.39,-566.86 185.39,-566.86 835.79,-566.86 864,-566.86 886.65,-541.19 900.13,-520.93"/>
<polygon fill="black" stroke="black" points="903.14,-522.73 905.5,-512.4 897.21,-519 903.14,-522.73"/>
<text text-anchor="middle" x="509.19" y="-570.66" font-family="Helvetica,Arial,sans-serif" font-size="14.00">2</text>
</g>
<!-- 9 -->
<g id="node9" class="node">
<title>9</title>
<ellipse fill="none" stroke="black" cx="674.79" cy="-204.86" rx="18" ry="18"/>
<text text-anchor="middle" x="674.79" y="-201.16" font-family="Helvetica,Arial,sans-serif" font-size="14.00">9</text>
</g>
<!-- 10&#45;&gt;9 -->
<g id="edge15" class="edge">
<title>10&#45;&gt;9</title>
<path fill="none" stroke="black" d="M120.86,-178.09C137.67,-173.51 162.93,-167.86 185.39,-167.86 185.39,-167.86 185.39,-167.86 592.99,-167.86 614.27,-167.86 636.08,-178.61 651.66,-188.51"/>
<polygon fill="black" stroke="black" points="649.82,-191.49 660.07,-194.16 653.72,-185.68 649.82,-191.49"/>
<text text-anchor="middle" x="389.19" y="-171.66" font-family="Helvetica,Arial,sans-serif" font-size="14.00">3</text>
</g>
<!-- 5&#45;&gt;7 -->
<g id="edge6" class="edge">
<title>5&#45;&gt;7</title>
<path fill="none" stroke="black" d="M168.19,-270.66C146.32,-272.14 108.05,-271.97 80,-256.86 59.51,-245.83 43.1,-224.83 32.48,-208.17"/>
<polygon fill="black" stroke="black" points="35.37,-206.19 27.19,-199.46 29.39,-209.82 35.37,-206.19"/>
<text text-anchor="middle" x="100.8" y="-272.66" font-family="Helvetica,Arial,sans-serif" font-size="14.00">0</text>
</g>
<!-- 5&#45;&gt;10 -->
<g id="edge4" class="edge">
<title>5&#45;&gt;10</title>
<path fill="none" stroke="black" d="M179.68,-252.15C173.78,-237.15 163.22,-215.45 147.6,-201.86 142.81,-197.7 136.94,-194.43 131.02,-191.9"/>
<polygon fill="black" stroke="black" points="131.79,-188.45 121.2,-188.29 129.38,-195.03 131.79,-188.45"/>
<text text-anchor="middle" x="143.6" y="-205.66" font-family="Helvetica,Arial,sans-serif" font-size="14.00">0</text>
</g>
<!-- 2 -->
<g id="node5" class="node">
<title>2</title>
<ellipse fill="none" stroke="black" cx="269.19" cy="-289.86" rx="18" ry="18"/>
<text text-anchor="middle" x="269.19" y="-286.16" font-family="Helvetica,Arial,sans-serif" font-size="14.00">2</text>
</g>
<!-- 5&#45;&gt;2 -->
<g id="edge5" class="edge">
<title>5&#45;&gt;2</title>
<path fill="none" stroke="black" d="M204.65,-266.71C213.36,-266.16 224,-266.32 233.19,-268.86 237.42,-270.04 241.65,-271.87 245.63,-273.97"/>
<polygon fill="black" stroke="black" points="243.98,-277.06 254.36,-279.19 247.57,-271.06 243.98,-277.06"/>
<text text-anchor="middle" x="229.19" y="-272.66" font-family="Helvetica,Arial,sans-serif" font-size="14.00">2</text>
</g>
<!-- 12&#45;&gt;7 -->
<g id="edge11" class="edge">
<title>12&#45;&gt;7</title>
<path fill="none" stroke="black" d="M165.89,-62.78C157.45,-64.98 147.68,-68.24 139.6,-72.86 97.89,-96.76 58.72,-137.44 36.9,-162.36"/>
<polygon fill="black" stroke="black" points="34.05,-160.3 30.18,-170.16 39.36,-164.87 34.05,-160.3"/>
<text text-anchor="middle" x="100.8" y="-120.66" font-family="Helvetica,Arial,sans-serif" font-size="14.00">1</text>
</g>
<!-- 12&#45;&gt;10 -->
<g id="edge12" class="edge">
<title>12&#45;&gt;10</title>
<path fill="none" stroke="black" d="M171.71,-73.63C162.13,-84.36 149.34,-99.46 139.6,-113.86 130.5,-127.3 121.8,-143.15 115.04,-156.37"/>
<polygon fill="black" stroke="black" points="111.83,-154.94 110.48,-165.45 118.09,-158.08 111.83,-154.94"/>
<text text-anchor="middle" x="143.6" y="-117.66" font-family="Helvetica,Arial,sans-serif" font-size="14.00">6</text>
</g>
<!-- 2&#45;&gt;5 -->
<g id="edge8" class="edge">
<title>2&#45;&gt;5</title>
<path fill="none" stroke="black" d="M250.85,-288.4C242.94,-287.49 233.5,-286.06 225.19,-283.86 220.97,-282.75 216.58,-281.3 212.35,-279.74"/>
<polygon fill="black" stroke="black" points="213.51,-276.43 202.93,-276 210.93,-282.94 213.51,-276.43"/>
<text text-anchor="middle" x="229.19" y="-288.66" font-family="Helvetica,Arial,sans-serif" font-size="14.00">0</text>
</g>
<!-- 0 -->
<g id="node6" class="node">
<title>0</title>
<ellipse fill="none" stroke="black" cx="349.19" cy="-318.86" rx="18" ry="18"/>
<text text-anchor="middle" x="349.19" y="-315.16" font-family="Helvetica,Arial,sans-serif" font-size="14.00">0</text>
</g>
<!-- 2&#45;&gt;0 -->
<g id="edge7" class="edge">
<title>2&#45;&gt;0</title>
<path fill="none" stroke="black" d="M287.4,-287.23C295.45,-286.65 305.05,-286.93 313.19,-289.86 318.76,-291.87 324.07,-295.19 328.79,-298.88"/>
<polygon fill="black" stroke="black" points="326.77,-301.76 336.6,-305.73 331.39,-296.5 326.77,-301.76"/>
<text text-anchor="middle" x="309.19" y="-293.66" font-family="Helvetica,Arial,sans-serif" font-size="14.00">2</text>
</g>
<!-- 0&#45;&gt;2 -->
<g id="edge35" class="edge">
<title>0&#45;&gt;2</title>
<path fill="none" stroke="black" d="M331.74,-313.89C323.68,-311.36 313.86,-308.13 305.19,-304.86 302.04,-303.68 298.75,-302.37 295.51,-301.03"/>
<polygon fill="black" stroke="black" points="296.67,-297.72 286.1,-297.04 293.94,-304.17 296.67,-297.72"/>
<text text-anchor="middle" x="309.19" y="-310.66" font-family="Helvetica,Arial,sans-serif" font-size="14.00">0</text>
</g>
<!-- 1 -->
<g id="node8" class="node">
<title>1</title>
<ellipse fill="none" stroke="black" cx="834.79" cy="-426.86" rx="18" ry="18"/>
<text text-anchor="middle" x="834.79" y="-423.16" font-family="Helvetica,Arial,sans-serif" font-size="14.00">1</text>
</g>
<!-- 0&#45;&gt;1 -->
<g id="edge36" class="edge">
<title>0&#45;&gt;1</title>
<path fill="none" stroke="black" d="M357.41,-335.26C363.43,-347.43 372.98,-363.76 385.19,-374.86 394.75,-383.56 398.92,-383.82 411.19,-387.86 506.58,-419.32 533.35,-426.86 633.79,-426.86 633.79,-426.86 633.79,-426.86 755.79,-426.86 772.68,-426.86 791.63,-426.86 806.62,-426.86"/>
<polygon fill="black" stroke="black" points="806.75,-430.36 816.75,-426.86 806.75,-423.36 806.75,-430.36"/>
<text text-anchor="middle" x="591.99" y="-429.66" font-family="Helvetica,Arial,sans-serif" font-size="14.00">1</text>
</g>
<!-- 3 -->
<g id="node13" class="node">
<title>3</title>
<ellipse fill="none" stroke="black" cx="429.19" cy="-275.86" rx="18" ry="18"/>
<text text-anchor="middle" x="429.19" y="-272.16" font-family="Helvetica,Arial,sans-serif" font-size="14.00">3</text>
</g>
<!-- 0&#45;&gt;3 -->
<g id="edge34" class="edge">
<title>0&#45;&gt;3</title>
<path fill="none" stroke="black" d="M358.66,-303.11C364.69,-293.64 373.74,-282.39 385.19,-276.86 390.03,-274.53 395.54,-273.43 400.97,-273.05"/>
<polygon fill="black" stroke="black" points="401.08,-276.55 411.1,-273.08 401.11,-269.55 401.08,-276.55"/>
<text text-anchor="middle" x="389.19" y="-280.66" font-family="Helvetica,Arial,sans-serif" font-size="14.00">0</text>
</g>
<!-- 4&#45;&gt;10 -->
<g id="edge10" class="edge">
<title>4&#45;&gt;10</title>
<path fill="none" stroke="black" d="M897.63,-503.19C882.05,-508.72 857.67,-515.86 835.79,-515.86 185.39,-515.86 185.39,-515.86 185.39,-515.86 116.58,-515.86 148.6,-276.15 121.6,-212.86 121,-211.46 120.33,-210.06 119.61,-208.66"/>
<polygon fill="black" stroke="black" points="122.43,-206.56 114.29,-199.78 116.42,-210.16 122.43,-206.56"/>
<text text-anchor="middle" x="509.19" y="-519.66" font-family="Helvetica,Arial,sans-serif" font-size="14.00">0</text>
</g>
<!-- 4&#45;&gt;1 -->
<g id="edge9" class="edge">
<title>4&#45;&gt;1</title>
<path fill="none" stroke="black" d="M906.25,-480.95C900.19,-469.6 890.73,-454.67 878.79,-444.86 873.9,-440.85 867.99,-437.61 862.13,-435.05"/>
<polygon fill="black" stroke="black" points="863.12,-431.67 852.53,-431.35 860.6,-438.21 863.12,-431.67"/>
<text text-anchor="middle" x="874.79" y="-448.66" font-family="Helvetica,Arial,sans-serif" font-size="14.00">2</text>
</g>
<!-- 1&#45;&gt;5 -->
<g id="edge30" class="edge">
<title>1&#45;&gt;5</title>
<path fill="none" stroke="black" d="M821.16,-439.07C806.63,-451.78 781.46,-469.86 755.79,-469.86 633.79,-469.86 633.79,-469.86 633.79,-469.86 561.05,-469.86 542.94,-464.86 470.19,-464.86 268.19,-464.86 268.19,-464.86 268.19,-464.86 196.57,-464.86 187.15,-351.62 186.75,-297.29"/>
<polygon fill="black" stroke="black" points="190.25,-296.96 186.78,-286.95 183.25,-296.94 190.25,-296.96"/>
<text text-anchor="middle" x="509.19" y="-469.66" font-family="Helvetica,Arial,sans-serif" font-size="14.00">2</text>
</g>
<!-- 1&#45;&gt;0 -->
<g id="edge32" class="edge">
<title>1&#45;&gt;0</title>
<path fill="none" stroke="black" d="M822.61,-413.47C808.67,-398.35 783.29,-375.86 755.79,-375.86 428.19,-375.86 428.19,-375.86 428.19,-375.86 403.63,-375.86 381.64,-357.21 367.32,-341.24"/>
<polygon fill="black" stroke="black" points="369.69,-338.62 360.56,-333.25 364.35,-343.14 369.69,-338.62"/>
<text text-anchor="middle" x="591.99" y="-379.66" font-family="Helvetica,Arial,sans-serif" font-size="14.00">3</text>
</g>
<!-- 1&#45;&gt;4 -->
<g id="edge31" class="edge">
<title>1&#45;&gt;4</title>
<path fill="none" stroke="black" d="M848.3,-438.92C854.92,-445.23 863.22,-453.05 870.79,-459.86 877.84,-466.21 885.67,-473.02 892.69,-479.05"/>
<polygon fill="black" stroke="black" points="890.6,-481.86 900.48,-485.68 895.14,-476.53 890.6,-481.86"/>
<text text-anchor="middle" x="874.79" y="-469.66" font-family="Helvetica,Arial,sans-serif" font-size="14.00">0</text>
</g>
<!-- 6 -->
<g id="node10" class="node">
<title>6</title>
<ellipse fill="none" stroke="black" cx="754.79" cy="-277.86" rx="18" ry="18"/>
<text text-anchor="middle" x="754.79" y="-274.16" font-family="Helvetica,Arial,sans-serif" font-size="14.00">6</text>
</g>
<!-- 1&#45;&gt;6 -->
<g id="edge33" class="edge">
<title>1&#45;&gt;6</title>
<path fill="none" stroke="black" d="M827.36,-410.3C820.8,-393.89 810.02,-368.19 798.79,-346.86 790.45,-331.04 779.83,-313.97 771.23,-300.77"/>
<polygon fill="black" stroke="black" points="774.08,-298.73 765.65,-292.31 768.23,-302.58 774.08,-298.73"/>
<text text-anchor="middle" x="794.79" y="-350.66" font-family="Helvetica,Arial,sans-serif" font-size="14.00">1</text>
</g>
<!-- 9&#45;&gt;10 -->
<g id="edge19" class="edge">
<title>9&#45;&gt;10</title>
<path fill="none" stroke="black" d="M665.76,-188.96C653.39,-166.94 627.44,-129.86 592.99,-129.86 228.19,-129.86 228.19,-129.86 228.19,-129.86 190.36,-129.86 150.92,-150.57 126.36,-166.34"/>
<polygon fill="black" stroke="black" points="124.41,-163.43 118.02,-171.88 128.29,-169.26 124.41,-163.43"/>
<text text-anchor="middle" x="389.19" y="-133.66" font-family="Helvetica,Arial,sans-serif" font-size="14.00">1</text>
</g>
<!-- 9&#45;&gt;6 -->
<g id="edge17" class="edge">
<title>9&#45;&gt;6</title>
<path fill="none" stroke="black" d="M692.95,-201.8C701.37,-201.21 711.29,-201.95 718.79,-206.86 733.79,-216.68 742.59,-234.93 747.61,-250.46"/>
<polygon fill="black" stroke="black" points="744.27,-251.52 750.4,-260.16 751,-249.59 744.27,-251.52"/>
<text text-anchor="middle" x="714.79" y="-210.66" font-family="Helvetica,Arial,sans-serif" font-size="14.00">2</text>
</g>
<!-- 11 -->
<g id="node11" class="node">
<title>11</title>
<ellipse fill="none" stroke="black" cx="591.99" cy="-216.86" rx="20.6" ry="20.6"/>
<text text-anchor="middle" x="591.99" y="-213.16" font-family="Helvetica,Arial,sans-serif" font-size="14.00">11</text>
</g>
<!-- 9&#45;&gt;11 -->
<g id="edge18" class="edge">
<title>9&#45;&gt;11</title>
<path fill="none" stroke="black" d="M656.54,-203.66C648.65,-203.42 639.2,-203.56 630.79,-204.86 627.69,-205.34 624.5,-206.03 621.35,-206.84"/>
<polygon fill="black" stroke="black" points="620.17,-203.54 611.56,-209.72 622.14,-210.26 620.17,-203.54"/>
<text text-anchor="middle" x="634.79" y="-208.66" font-family="Helvetica,Arial,sans-serif" font-size="14.00">1</text>
</g>
<!-- 6&#45;&gt;1 -->
<g id="edge28" class="edge">
<title>6&#45;&gt;1</title>
<path fill="none" stroke="black" d="M772.21,-283.02C781.26,-286.66 792.01,-292.41 798.79,-300.86 821.34,-329.02 829.38,-370.77 832.24,-398.39"/>
<polygon fill="black" stroke="black" points="828.77,-398.92 833.12,-408.58 835.74,-398.31 828.77,-398.92"/>
<text text-anchor="middle" x="794.79" y="-304.66" font-family="Helvetica,Arial,sans-serif" font-size="14.00">1</text>
</g>
<!-- 6&#45;&gt;9 -->
<g id="edge27" class="edge">
<title>6&#45;&gt;9</title>
<path fill="none" stroke="black" d="M741.17,-265.93C734.52,-259.65 726.23,-251.83 718.79,-244.86 711.36,-237.9 703.18,-230.29 695.97,-223.58"/>
<polygon fill="black" stroke="black" points="698.31,-220.99 688.6,-216.74 693.55,-226.11 698.31,-220.99"/>
<text text-anchor="middle" x="714.79" y="-248.66" font-family="Helvetica,Arial,sans-serif" font-size="14.00">0</text>
</g>
<!-- 6&#45;&gt;3 -->
<g id="edge29" class="edge">
<title>6&#45;&gt;3</title>
<path fill="none" stroke="black" d="M741.89,-290.71C727.64,-304.62 702.35,-324.86 675.79,-324.86 508.19,-324.86 508.19,-324.86 508.19,-324.86 485.39,-324.86 463.79,-309.66 449.13,-296.19"/>
<polygon fill="black" stroke="black" points="451.34,-293.46 441.73,-289 446.46,-298.48 451.34,-293.46"/>
<text text-anchor="middle" x="591.99" y="-328.66" font-family="Helvetica,Arial,sans-serif" font-size="14.00">1</text>
</g>
<!-- 11&#45;&gt;9 -->
<g id="edge21" class="edge">
<title>11&#45;&gt;9</title>
<path fill="none" stroke="black" d="M612.76,-220.45C620.89,-221.33 630.36,-221.59 638.79,-219.86 642.26,-219.15 645.82,-218.08 649.26,-216.83"/>
<polygon fill="black" stroke="black" points="650.65,-220.05 658.55,-212.99 647.97,-213.58 650.65,-220.05"/>
<text text-anchor="middle" x="634.79" y="-224.66" font-family="Helvetica,Arial,sans-serif" font-size="14.00">1</text>
</g>
<!-- 8 -->
<g id="node12" class="node">
<title>8</title>
<ellipse fill="none" stroke="black" cx="509.19" cy="-220.86" rx="18" ry="18"/>
<text text-anchor="middle" x="509.19" y="-217.16" font-family="Helvetica,Arial,sans-serif" font-size="14.00">8</text>
</g>
<!-- 11&#45;&gt;8 -->
<g id="edge20" class="edge">
<title>11&#45;&gt;8</title>
<path fill="none" stroke="black" d="M573.26,-207.53C564.82,-204.18 554.54,-201.72 545.19,-203.86 541.49,-204.72 537.72,-206.02 534.09,-207.53"/>
<polygon fill="black" stroke="black" points="532.51,-204.4 524.97,-211.85 535.51,-210.73 532.51,-204.4"/>
<text text-anchor="middle" x="549.19" y="-207.66" font-family="Helvetica,Arial,sans-serif" font-size="14.00">1</text>
</g>
<!-- 8&#45;&gt;11 -->
<g id="edge23" class="edge">
<title>8&#45;&gt;11</title>
<path fill="none" stroke="black" d="M527.35,-220.09C535.23,-219.73 544.68,-219.29 553.19,-218.86 555.72,-218.74 558.34,-218.61 560.97,-218.47"/>
<polygon fill="black" stroke="black" points="561.18,-221.96 570.98,-217.95 560.81,-214.97 561.18,-221.96"/>
<text text-anchor="middle" x="549.19" y="-222.66" font-family="Helvetica,Arial,sans-serif" font-size="14.00">1</text>
</g>
<!-- 8&#45;&gt;3 -->
<g id="edge22" class="edge">
<title>8&#45;&gt;3</title>
<path fill="none" stroke="black" d="M492.58,-228.53C484.2,-232.91 473.84,-238.73 465.19,-244.86 460.1,-248.47 454.91,-252.71 450.14,-256.87"/>
<polygon fill="black" stroke="black" points="447.68,-254.38 442.6,-263.68 452.37,-259.58 447.68,-254.38"/>
<text text-anchor="middle" x="469.19" y="-248.66" font-family="Helvetica,Arial,sans-serif" font-size="14.00">1</text>
</g>
<!-- 3&#45;&gt;0 -->
<g id="edge24" class="edge">
<title>3&#45;&gt;0</title>
<path fill="none" stroke="black" d="M413.2,-284.13C402.2,-290.19 387.04,-298.55 374.35,-305.55"/>
<polygon fill="black" stroke="black" points="372.3,-302.68 365.23,-310.57 375.68,-308.81 372.3,-302.68"/>
<text text-anchor="middle" x="389.19" y="-301.66" font-family="Helvetica,Arial,sans-serif" font-size="14.00">2</text>
</g>
<!-- 3&#45;&gt;6 -->
<g id="edge25" class="edge">
<title>3&#45;&gt;6</title>
<path fill="none" stroke="black" d="M447.23,-275.18C463.03,-274.6 487.2,-273.86 508.19,-273.86 508.19,-273.86 508.19,-273.86 675.79,-273.86 692.7,-273.86 711.65,-274.81 726.63,-275.79"/>
<polygon fill="black" stroke="black" points="726.54,-279.29 736.76,-276.49 727.03,-272.31 726.54,-279.29"/>
<text text-anchor="middle" x="591.99" y="-277.66" font-family="Helvetica,Arial,sans-serif" font-size="14.00">1</text>
</g>
<!-- 3&#45;&gt;8 -->
<g id="edge26" class="edge">
<title>3&#45;&gt;8</title>
<path fill="none" stroke="black" d="M435.59,-259.03C440.85,-245.76 450.25,-228.15 465.19,-219.86 469.97,-217.22 475.52,-216.16 481.03,-216.01"/>
<polygon fill="black" stroke="black" points="481.12,-219.52 491.32,-216.64 481.55,-212.54 481.12,-219.52"/>
<text text-anchor="middle" x="469.19" y="-223.66" font-family="Helvetica,Arial,sans-serif" font-size="14.00">1</text>
</g>
</g>
</svg>
