<?xml version="1.0" encoding="UTF-8" standalone="no"?>
<!DOCTYPE svg PUBLIC "-//W3C//DTD SVG 1.1//EN"
 "http://www.w3.org/Graphics/SVG/1.1/DTD/svg11.dtd">
<!-- Generated by graphviz version 2.43.0 (0)
 -->
<!-- Title: finite_state_machine Pages: 1 -->
<svg width="569pt" height="298pt"
 viewBox="0.00 0.00 568.79 298.00" xmlns="http://www.w3.org/2000/svg" xmlns:xlink="http://www.w3.org/1999/xlink">
<g id="graph0" class="graph" transform="scale(1 1) rotate(0) translate(4 294)">
<title>finite_state_machine</title>
<polygon fill="white" stroke="transparent" points="-4,4 -4,-294 564.79,-294 564.79,4 -4,4"/>
<!-- 7 -->
<g id="node1" class="node">
<title>7</title>
<ellipse fill="none" stroke="black" cx="371.6" cy="-86" rx="18" ry="18"/>
<text text-anchor="middle" x="371.6" y="-82.3" font-family="Helvetica,Arial,sans-serif" font-size="14.00">7</text>
</g>
<!-- 10 -->
<g id="node2" class="node">
<title>10</title>
<ellipse fill="none" stroke="black" cx="454.39" cy="-140" rx="20.6" ry="20.6"/>
<text text-anchor="middle" x="454.39" y="-136.3" font-family="Helvetica,Arial,sans-serif" font-size="14.00">10</text>
</g>
<!-- 7&#45;&gt;10 -->
<g id="edge1" class="edge">
<title>7&#45;&gt;10</title>
<path fill="none" stroke="black" d="M388.01,-94.33C396.34,-98.99 406.7,-105.04 415.6,-111 420.12,-114.03 424.81,-117.42 429.29,-120.78"/>
<polygon fill="black" stroke="black" points="427.48,-123.8 437.54,-127.12 431.74,-118.25 427.48,-123.8"/>
<text text-anchor="middle" x="411.6" y="-114.8" font-family="Helvetica,Arial,sans-serif" font-size="14.00">1</text>
</g>
<!-- 12 -->
<g id="node3" class="node">
<title>12</title>
<ellipse fill="none" stroke="black" cx="539.99" cy="-93" rx="20.6" ry="20.6"/>
<text text-anchor="middle" x="539.99" y="-89.3" font-family="Helvetica,Arial,sans-serif" font-size="14.00">12</text>
</g>
<!-- 7&#45;&gt;12 -->
<g id="edge2" class="edge">
<title>7&#45;&gt;12</title>
<path fill="none" stroke="black" d="M389.78,-86.72C417.92,-87.91 474.19,-90.27 509.02,-91.74"/>
<polygon fill="black" stroke="black" points="508.94,-95.24 519.08,-92.16 509.24,-88.25 508.94,-95.24"/>
<text text-anchor="middle" x="454.39" y="-93.8" font-family="Helvetica,Arial,sans-serif" font-size="14.00">2</text>
</g>
<!-- 10&#45;&gt;12 -->
<g id="edge9" class="edge">
<title>10&#45;&gt;12</title>
<path fill="none" stroke="black" d="M473.12,-130.03C484.62,-123.57 499.79,-115.04 512.68,-107.79"/>
<polygon fill="black" stroke="black" points="514.57,-110.74 521.57,-102.79 511.14,-104.64 514.57,-110.74"/>
<text text-anchor="middle" x="497.19" y="-120.8" font-family="Helvetica,Arial,sans-serif" font-size="14.00">6</text>
</g>
<!-- 9 -->
<g id="node4" class="node">
<title>9</title>
<ellipse fill="none" stroke="black" cx="371.6" cy="-242" rx="18" ry="18"/>
<text text-anchor="middle" x="371.6" y="-238.3" font-family="Helvetica,Arial,sans-serif" font-size="14.00">9</text>
</g>
<!-- 9&#45;&gt;10 -->
<g id="edge3" class="edge">
<title>9&#45;&gt;10</title>
<path fill="none" stroke="black" d="M386.84,-231.71C395.77,-224.81 407.16,-215.15 415.6,-205 424.95,-193.75 433.35,-179.9 439.85,-167.87"/>
<polygon fill="black" stroke="black" points="443.11,-169.19 444.63,-158.71 436.9,-165.95 443.11,-169.19"/>
<text text-anchor="middle" x="411.6" y="-215.8" font-family="Helvetica,Arial,sans-serif" font-size="14.00">4</text>
</g>
<!-- 11 -->
<g id="node5" class="node">
<title>11</title>
<ellipse fill="none" stroke="black" cx="260.8" cy="-215" rx="20.6" ry="20.6"/>
<text text-anchor="middle" x="260.8" y="-211.3" font-family="Helvetica,Arial,sans-serif" font-size="14.00">11</text>
</g>
<!-- 11&#45;&gt;9 -->
<g id="edge4" class="edge">
<title>11&#45;&gt;9</title>
<path fill="none" stroke="black" d="M281.24,-219.67C296.13,-223.27 317.18,-228.39 335.6,-233 338.3,-233.68 341.12,-234.39 343.93,-235.11"/>
<polygon fill="black" stroke="black" points="343.32,-238.56 353.87,-237.65 345.05,-231.78 343.32,-238.56"/>
<text text-anchor="middle" x="317.6" y="-236.8" font-family="Helvetica,Arial,sans-serif" font-size="14.00">2</text>
</g>
<!-- 8 -->
<g id="node6" class="node">
<title>8</title>
<ellipse fill="none" stroke="black" cx="178" cy="-218" rx="18" ry="18"/>
<text text-anchor="middle" x="178" y="-214.3" font-family="Helvetica,Arial,sans-serif" font-size="14.00">8</text>
</g>
<!-- 8&#45;&gt;11 -->
<g id="edge5" class="edge">
<title>8&#45;&gt;11</title>
<path fill="none" stroke="black" d="M196.14,-217.36C205.92,-217 218.48,-216.53 229.84,-216.11"/>
<polygon fill="black" stroke="black" points="229.98,-219.61 239.84,-215.74 229.72,-212.61 229.98,-219.61"/>
<text text-anchor="middle" x="218" y="-219.8" font-family="Helvetica,Arial,sans-serif" font-size="14.00">2</text>
</g>
<!-- 6 -->
<g id="node7" class="node">
<title>6</title>
<ellipse fill="none" stroke="black" cx="260.8" cy="-272" rx="18" ry="18"/>
<text text-anchor="middle" x="260.8" y="-268.3" font-family="Helvetica,Arial,sans-serif" font-size="14.00">6</text>
</g>
<!-- 6&#45;&gt;9 -->
<g id="edge6" class="edge">
<title>6&#45;&gt;9</title>
<path fill="none" stroke="black" d="M278.32,-267.44C295.82,-262.62 323.68,-254.94 344.22,-249.27"/>
<polygon fill="black" stroke="black" points="345.21,-252.63 353.92,-246.6 343.35,-245.88 345.21,-252.63"/>
<text text-anchor="middle" x="317.6" y="-264.8" font-family="Helvetica,Arial,sans-serif" font-size="14.00">2</text>
</g>
<!-- 3 -->
<g id="node8" class="node">
<title>3</title>
<ellipse fill="none" stroke="black" cx="98" cy="-218" rx="18" ry="18"/>
<text text-anchor="middle" x="98" y="-214.3" font-family="Helvetica,Arial,sans-serif" font-size="14.00">3</text>
</g>
<!-- 3&#45;&gt;8 -->
<g id="edge7" class="edge">
<title>3&#45;&gt;8</title>
<path fill="none" stroke="black" d="M116.31,-218C126.11,-218 138.58,-218 149.67,-218"/>
<polygon fill="black" stroke="black" points="149.74,-221.5 159.74,-218 149.74,-214.5 149.74,-221.5"/>
<text text-anchor="middle" x="138" y="-221.8" font-family="Helvetica,Arial,sans-serif" font-size="14.00">2</text>
</g>
<!-- 3&#45;&gt;6 -->
<g id="edge8" class="edge">
<title>3&#45;&gt;6</title>
<path fill="none" stroke="black" d="M114.01,-227C120.08,-230.41 127.24,-234.16 134,-237 167.06,-250.9 207.3,-260.98 233.22,-266.66"/>
<polygon fill="black" stroke="black" points="232.56,-270.1 243.07,-268.76 234.01,-263.25 232.56,-270.1"/>
<text text-anchor="middle" x="178" y="-260.8" font-family="Helvetica,Arial,sans-serif" font-size="14.00">2</text>
</g>
<!-- 4 -->
<g id="node9" class="node">
<title>4</title>
<ellipse fill="none" stroke="black" cx="317.6" cy="-182" rx="18" ry="18"/>
<text text-anchor="middle" x="317.6" y="-178.3" font-family="Helvetica,Arial,sans-serif" font-size="14.00">4</text>
</g>
<!-- 4&#45;&gt;10 -->
<g id="edge10" class="edge">
<title>4&#45;&gt;10</title>
<path fill="none" stroke="black" d="M335.19,-177.61C354.59,-172.39 387.62,-163.2 415.6,-154 418.72,-152.97 421.97,-151.85 425.2,-150.7"/>
<polygon fill="black" stroke="black" points="426.45,-153.97 434.65,-147.25 424.06,-147.39 426.45,-153.97"/>
<text text-anchor="middle" x="371.6" y="-175.8" font-family="Helvetica,Arial,sans-serif" font-size="14.00">2</text>
</g>
<!-- 1 -->
<g id="node10" class="node">
<title>1</title>
<ellipse fill="none" stroke="black" cx="178" cy="-153" rx="18" ry="18"/>
<text text-anchor="middle" x="178" y="-149.3" font-family="Helvetica,Arial,sans-serif" font-size="14.00">1</text>
</g>
<!-- 1&#45;&gt;6 -->
<g id="edge12" class="edge">
<title>1&#45;&gt;6</title>
<path fill="none" stroke="black" d="M192.54,-164.14C201.87,-172.41 213.98,-184.38 222,-197 234.22,-216.23 229.16,-224.96 240,-245 240.93,-246.73 241.96,-248.47 243.05,-250.19"/>
<polygon fill="black" stroke="black" points="240.2,-252.22 248.76,-258.47 245.97,-248.25 240.2,-252.22"/>
<text text-anchor="middle" x="218" y="-200.8" font-family="Helvetica,Arial,sans-serif" font-size="14.00">2</text>
</g>
<!-- 1&#45;&gt;4 -->
<g id="edge13" class="edge">
<title>1&#45;&gt;4</title>
<path fill="none" stroke="black" d="M195.87,-156.56C219.29,-161.49 261.89,-170.47 289.72,-176.33"/>
<polygon fill="black" stroke="black" points="289.08,-179.78 299.59,-178.41 290.52,-172.93 289.08,-179.78"/>
<text text-anchor="middle" x="218" y="-165.8" font-family="Helvetica,Arial,sans-serif" font-size="14.00">2</text>
</g>
<!-- 5 -->
<g id="node11" class="node">
<title>5</title>
<ellipse fill="none" stroke="black" cx="260.8" cy="-107" rx="18" ry="18"/>
<text text-anchor="middle" x="260.8" y="-103.3" font-family="Helvetica,Arial,sans-serif" font-size="14.00">5</text>
</g>
<!-- 1&#45;&gt;5 -->
<g id="edge11" class="edge">
<title>1&#45;&gt;5</title>
<path fill="none" stroke="black" d="M189.07,-138.6C195.34,-130.71 204.09,-121.46 214,-116 219.55,-112.94 225.98,-110.91 232.23,-109.57"/>
<polygon fill="black" stroke="black" points="233.11,-112.97 242.41,-107.89 231.97,-106.07 233.11,-112.97"/>
<text text-anchor="middle" x="218" y="-119.8" font-family="Helvetica,Arial,sans-serif" font-size="14.00">2</text>
</g>
<!-- 5&#45;&gt;7 -->
<g id="edge17" class="edge">
<title>5&#45;&gt;7</title>
<path fill="none" stroke="black" d="M278.8,-103.72C296.2,-100.36 323.51,-95.09 343.82,-91.17"/>
<polygon fill="black" stroke="black" points="344.56,-94.59 353.72,-89.26 343.23,-87.72 344.56,-94.59"/>
<text text-anchor="middle" x="317.6" y="-102.8" font-family="Helvetica,Arial,sans-serif" font-size="14.00">1</text>
</g>
<!-- 5&#45;&gt;10 -->
<g id="edge18" class="edge">
<title>5&#45;&gt;10</title>
<path fill="none" stroke="black" d="M278.23,-112.33C284.82,-114.32 292.51,-116.47 299.6,-118 342.05,-127.17 391.94,-133.5 423.12,-136.95"/>
<polygon fill="black" stroke="black" points="423.01,-140.45 433.33,-138.04 423.76,-133.5 423.01,-140.45"/>
<text text-anchor="middle" x="371.6" y="-135.8" font-family="Helvetica,Arial,sans-serif" font-size="14.00">1</text>
</g>
<!-- 2 -->
<g id="node13" class="node">
<title>2</title>
<ellipse fill="none" stroke="black" cx="371.6" cy="-32" rx="18" ry="18"/>
<text text-anchor="middle" x="371.6" y="-28.3" font-family="Helvetica,Arial,sans-serif" font-size="14.00">2</text>
</g>
<!-- 5&#45;&gt;2 -->
<g id="edge19" class="edge">
<title>5&#45;&gt;2</title>
<path fill="none" stroke="black" d="M265.51,-89.35C270.2,-71.94 280.14,-46.22 299.6,-34 312.58,-25.85 329.7,-25.14 343.87,-26.57"/>
<polygon fill="black" stroke="black" points="343.63,-30.07 354.02,-28 344.6,-23.14 343.63,-30.07"/>
<text text-anchor="middle" x="317.6" y="-37.8" font-family="Helvetica,Arial,sans-serif" font-size="14.00">2</text>
</g>
<!-- 0 -->
<g id="node12" class="node">
<title>0</title>
<ellipse fill="none" stroke="black" cx="18" cy="-153" rx="18" ry="18"/>
<text text-anchor="middle" x="18" y="-149.3" font-family="Helvetica,Arial,sans-serif" font-size="14.00">0</text>
</g>
<!-- 0&#45;&gt;3 -->
<g id="edge16" class="edge">
<title>0&#45;&gt;3</title>
<path fill="none" stroke="black" d="M32.23,-164.03C44.11,-173.92 61.76,-188.63 75.64,-200.2"/>
<polygon fill="black" stroke="black" points="73.78,-203.21 83.7,-206.92 78.26,-197.83 73.78,-203.21"/>
<text text-anchor="middle" x="58" y="-190.8" font-family="Helvetica,Arial,sans-serif" font-size="14.00">2</text>
</g>
<!-- 0&#45;&gt;1 -->
<g id="edge14" class="edge">
<title>0&#45;&gt;1</title>
<path fill="none" stroke="black" d="M36.21,-153C63.52,-153 117.01,-153 149.62,-153"/>
<polygon fill="black" stroke="black" points="149.81,-156.5 159.81,-153 149.81,-149.5 149.81,-156.5"/>
<text text-anchor="middle" x="98" y="-156.8" font-family="Helvetica,Arial,sans-serif" font-size="14.00">4</text>
</g>
<!-- 0&#45;&gt;2 -->
<g id="edge15" class="edge">
<title>0&#45;&gt;2</title>
<path fill="none" stroke="black" d="M19.96,-134.85C23.16,-94.32 37.07,0 97,0 97,0 97,0 261.8,0 291.54,0 324.07,-11.14 345.74,-20.28"/>
<polygon fill="black" stroke="black" points="344.6,-23.6 355.16,-24.42 347.41,-17.19 344.6,-23.6"/>
<text text-anchor="middle" x="178" y="-3.8" font-family="Helvetica,Arial,sans-serif" font-size="14.00">2</text>
</g>
<!-- 2&#45;&gt;5 -->
<g id="edge20" class="edge">
<title>2&#45;&gt;5</title>
<path fill="none" stroke="black" d="M355.07,-39.76C340.29,-47.42 317.68,-59.87 299.6,-73 293.55,-77.39 287.37,-82.6 281.8,-87.6"/>
<polygon fill="black" stroke="black" points="279.14,-85.29 274.18,-94.66 283.89,-90.43 279.14,-85.29"/>
<text text-anchor="middle" x="317.6" y="-76.8" font-family="Helvetica,Arial,sans-serif" font-size="14.00">0</text>
</g>
</g>
</svg>
